{"glyphs":{"0":{"ha":718,"x_min":0,"x_max":0,"o":"m 28 540 b 13 342 11 486 6 419 b 326 0 24 160 129 0 b 600 124 432 0 529 46 b 658 649 704 235 751 419 b 390 849 614 763 515 849 b 263 824 347 849 306 839 b 92 679 192 786 138 744 b 28 540 65 642 44 594 z m 463 65 b 328 35 419 44 375 35 b 47 344 146 35 58 183 b 92 610 38 460 60 544 b 390 814 149 722 260 814 b 626 636 501 814 586 736 b 575 147 715 422 669 249 b 463 65 543 113 506 86 z m 224 415 b 225 378 221 403 221 390 b 297 329 235 343 265 329 b 394 410 351 329 379 358 b 404 331 399 392 403 365 b 385 497 429 374 422 453 b 324 525 369 519 350 525 l 321 525 b 224 415 313 525 242 508 z m 328 60 b 347 76 339 60 346 65 b 332 94 349 86 342 94 b 163 183 264 104 206 129 b 107 390 125 232 103 300 b 89 408 107 403 101 408 b 72 392 79 410 72 401 b 92 242 68 335 76 285 b 328 60 129 140 217 67 z m 360 419 b 297 364 350 382 335 364 b 258 386 282 364 263 368 b 258 410 257 392 257 400 b 325 490 265 443 288 485 b 353 482 335 490 346 489 l 356 476 b 363 451 360 469 363 461 b 360 419 364 442 363 432 z m 78 460 b 81 433 71 450 72 440 b 92 429 83 431 88 429 b 107 436 99 429 103 432 b 104 461 113 443 114 456 b 92 465 100 464 96 465 b 78 460 86 465 82 464 z "},"1":{"ha":514,"x_min":0,"x_max":0,"o":"m 24 601 b 25 539 14 578 14 557 b 131 475 57 488 96 475 b 164 479 143 475 154 476 b 121 49 136 382 71 82 b 313 0 165 19 257 0 b 399 17 342 0 371 6 b 451 82 426 28 444 50 b 486 439 463 138 475 290 b 496 760 497 576 500 711 b 418 843 490 800 453 828 l 415 843 b 349 857 392 853 369 857 b 297 844 331 857 313 854 b 72 672 244 811 139 739 b 24 601 50 649 33 625 z m 56 557 b 97 647 43 578 64 610 b 349 822 138 688 293 822 b 461 756 382 822 457 796 b 451 440 465 710 463 576 b 417 89 440 293 428 142 b 313 35 408 43 351 35 b 140 76 265 35 178 50 b 206 497 103 103 194 458 b 299 610 244 525 275 572 b 156 513 236 556 199 528 b 132 510 146 511 139 510 b 56 557 106 510 78 519 z m 406 571 b 389 419 403 531 397 479 b 404 400 389 408 394 401 b 415 401 408 399 411 400 b 424 414 421 404 424 408 b 429 768 457 661 436 749 l 428 771 b 415 783 426 778 422 782 l 407 783 b 394 761 394 779 390 772 l 396 758 b 406 571 399 744 411 696 z m 385 378 b 388 351 376 368 378 360 b 399 347 390 349 394 347 b 415 358 407 347 413 351 b 415 374 418 364 418 369 b 399 385 413 381 407 385 b 385 378 394 385 389 382 z "},"2":{"ha":818,"x_min":0,"x_max":0,"o":"m 586 299 b 694 510 649 364 685 438 b 679 658 703 561 697 611 b 431 808 636 763 540 808 b 13 504 261 808 24 696 b 39 406 8 461 21 432 b 156 350 67 372 113 350 b 307 433 210 350 258 394 b 333 456 317 443 324 449 b 406 493 351 471 382 493 b 406 485 407 492 407 489 b 381 438 404 469 396 453 b 342 404 371 428 357 419 l 333 397 b 132 82 240 315 88 179 b 426 0 169 4 343 0 b 763 26 522 0 672 7 b 806 136 799 33 806 108 b 756 288 806 176 803 269 b 610 299 728 297 664 299 z m 679 50 b 426 35 594 39 500 35 b 338 38 394 35 365 36 l 333 39 b 164 97 249 44 181 60 b 333 351 129 165 249 275 b 365 378 344 361 356 368 b 442 482 399 406 436 436 b 438 507 442 492 440 500 b 453 508 442 508 447 508 l 468 508 b 528 503 486 508 507 507 b 425 532 496 518 463 532 b 333 500 392 532 361 518 b 285 461 318 489 301 476 b 156 386 242 424 194 386 b 67 428 124 386 88 401 b 47 503 51 446 43 469 b 431 774 58 671 278 774 b 646 644 525 774 608 735 b 660 515 663 606 667 563 b 528 294 647 426 596 349 b 432 260 504 276 472 265 b 489 256 451 257 471 256 b 540 263 507 256 525 257 b 578 264 553 264 565 264 l 614 264 b 744 254 663 264 718 264 b 771 138 768 246 771 158 b 756 61 771 131 763 61 b 679 50 732 57 707 53 z m 129 586 b 140 582 132 583 136 582 b 154 588 146 582 150 583 b 331 699 199 642 263 678 l 333 699 b 419 711 363 707 392 711 b 521 690 456 711 489 704 b 528 689 522 689 524 689 b 543 699 535 689 540 692 b 535 722 547 710 544 718 b 418 746 497 738 458 746 b 126 611 308 746 197 694 b 129 586 119 601 121 593 z m 590 667 b 594 679 594 671 596 675 b 575 697 594 692 588 697 b 558 678 565 697 557 689 b 576 660 558 665 564 660 b 590 667 582 661 586 663 z "},"3":{"ha":796,"x_min":0,"x_max":0,"o":"m 368 0 b 771 257 522 0 718 100 b 775 364 782 294 785 329 b 597 526 753 447 674 497 b 689 636 624 550 665 592 b 708 714 704 663 713 688 b 632 828 704 757 678 817 l 626 829 b 592 828 617 829 604 829 l 554 828 b 504 826 539 828 522 828 b 71 801 365 822 147 815 l 63 800 l 53 778 b 40 742 49 768 46 757 b 13 617 28 704 14 657 b 38 542 8 583 17 557 b 181 518 64 524 121 518 b 275 522 215 518 249 521 l 244 492 b 186 411 211 458 183 425 b 235 383 190 399 208 393 b 329 338 268 372 313 358 b 339 307 339 325 342 315 b 304 289 333 292 317 289 b 226 328 281 289 253 300 b 169 353 213 344 193 353 b 51 274 118 353 72 322 b 69 144 31 229 42 185 b 368 0 132 53 260 0 z m 344 264 b 372 294 357 271 367 281 b 356 360 379 313 376 336 b 224 425 338 385 235 421 b 279 481 224 429 251 454 b 336 531 296 496 315 513 l 379 568 l 322 561 b 275 557 307 560 292 558 b 174 553 247 556 211 553 b 57 571 124 553 78 556 b 47 615 47 576 46 594 b 88 768 49 661 69 724 b 504 792 169 779 371 788 b 583 793 536 793 563 793 l 625 793 l 635 789 b 674 710 647 781 668 757 b 617 594 678 672 649 629 b 553 535 599 574 576 554 l 538 524 b 454 490 510 503 488 497 b 500 483 465 486 482 483 b 565 501 522 483 544 489 b 688 436 617 483 657 463 l 689 435 b 740 356 715 411 733 385 b 738 268 750 326 747 297 b 689 185 728 239 713 211 l 685 179 b 368 35 608 92 485 35 b 97 164 271 35 153 82 b 83 260 76 196 68 228 b 169 318 99 293 132 318 b 201 304 182 318 193 314 b 304 254 235 267 272 254 b 344 264 318 254 332 257 z m 365 58 b 696 271 494 58 667 133 b 689 289 697 278 696 285 b 679 293 686 292 683 293 b 661 279 669 293 664 289 b 365 93 635 157 476 93 l 349 93 b 332 94 343 93 338 93 b 313 79 321 96 314 92 b 328 60 311 68 315 61 b 347 58 335 58 340 58 z m 676 343 b 675 317 668 333 668 324 b 689 310 679 313 685 310 b 701 315 693 310 697 311 b 703 342 711 322 711 332 b 689 347 699 346 694 347 b 676 343 685 347 681 346 z "},"4":{"ha":860,"x_min":0,"x_max":0,"o":"m 432 1 b 475 0 450 0 464 0 b 664 57 529 0 626 7 b 667 61 665 58 665 60 b 713 183 679 82 696 128 b 747 306 724 222 736 265 b 847 735 796 483 843 706 b 817 800 851 763 838 783 b 647 842 775 829 699 842 b 544 789 604 842 563 832 b 463 561 513 715 489 639 b 417 533 456 544 435 533 b 401 538 410 533 404 535 b 399 556 397 540 396 546 b 424 675 406 585 414 632 b 435 772 433 719 439 760 b 257 819 419 810 296 819 b 101 718 189 819 128 800 b 35 463 83 663 54 553 b 22 314 19 389 11 326 b 194 300 33 303 113 300 l 307 300 b 357 299 339 300 356 300 b 342 236 361 294 354 271 b 300 44 319 176 285 74 b 432 1 314 17 382 4 z m 475 35 b 333 60 439 35 358 42 l 332 60 b 374 224 325 75 354 169 b 399 304 386 256 397 283 b 507 365 453 311 474 332 b 367 333 463 339 426 333 l 343 333 b 301 335 331 335 317 335 l 207 335 b 53 342 147 335 58 339 b 69 456 49 346 54 390 b 86 525 74 478 79 501 l 103 594 b 135 707 114 639 125 679 b 258 785 156 768 204 785 b 401 760 276 785 399 774 b 390 682 406 756 397 721 b 364 563 381 639 371 592 b 378 511 358 540 365 522 b 417 499 389 501 401 499 b 494 550 450 499 483 518 b 547 696 507 585 526 644 b 576 776 560 731 569 758 b 647 807 588 800 615 807 b 713 800 669 807 690 804 l 721 799 b 796 772 749 794 775 788 b 813 740 808 763 814 753 b 714 315 808 711 763 490 l 713 311 b 667 154 697 257 682 199 b 636 78 654 115 643 90 b 475 35 610 40 515 35 z m 663 785 b 644 768 650 785 644 779 b 661 750 644 756 650 750 l 663 750 l 667 749 b 713 744 682 749 697 747 b 744 732 729 740 746 738 b 667 407 729 621 700 513 b 667 396 665 404 665 400 b 683 385 669 389 675 385 b 700 397 692 385 697 389 b 779 726 733 504 764 615 b 713 781 785 761 750 775 l 708 781 b 667 785 693 785 678 783 z m 656 368 b 651 342 646 361 644 351 b 667 335 656 338 661 335 b 678 339 671 335 675 336 b 681 364 688 344 688 357 b 667 371 679 368 674 371 b 656 368 663 371 660 369 z "},"5":{"ha":788,"x_min":0,"x_max":0,"o":"m 425 576 b 575 568 475 571 525 568 b 740 601 608 568 719 569 b 772 725 763 633 771 688 b 749 810 774 763 767 797 b 525 825 732 824 558 825 l 478 825 b 429 824 461 825 444 825 l 422 824 b 229 790 335 819 256 811 l 225 788 l 213 758 b 174 394 178 676 85 436 b 247 379 197 383 221 379 b 292 382 263 379 276 381 b 310 383 299 383 304 383 l 325 383 b 390 336 357 383 381 375 b 386 274 396 308 394 288 b 332 244 376 253 354 244 b 286 256 317 244 301 249 l 279 260 b 129 310 236 281 179 310 b 15 182 60 310 26 242 b 19 119 11 161 13 140 b 331 0 53 18 244 0 b 729 183 465 0 678 35 b 743 281 739 215 744 247 b 569 521 739 401 681 483 b 417 547 521 539 469 547 z m 425 343 b 332 419 413 397 388 419 b 289 417 317 419 304 418 b 269 415 282 415 276 415 l 247 415 b 188 426 226 415 208 417 b 253 764 121 460 236 725 b 422 788 279 779 344 783 l 431 789 b 483 790 449 790 465 790 l 581 790 b 729 781 633 790 714 789 b 738 725 736 775 738 753 b 711 621 736 693 729 647 b 597 601 701 606 653 601 b 414 613 536 601 475 607 l 400 614 l 381 544 b 264 488 321 540 293 524 b 369 513 301 508 331 511 b 708 281 531 513 704 479 b 690 182 710 244 704 211 b 332 35 642 67 449 35 b 53 131 264 35 82 49 b 50 176 49 146 47 161 b 131 274 57 219 79 274 b 264 228 174 274 225 249 l 269 225 b 333 210 290 215 311 210 b 388 225 353 210 371 215 b 422 268 403 235 415 249 b 425 343 429 289 431 314 z m 476 113 b 461 93 464 111 460 104 b 479 78 461 81 467 76 b 643 156 540 82 604 106 b 679 293 669 189 683 233 b 639 394 679 318 671 394 b 628 372 629 390 624 382 b 644 290 638 340 640 314 b 615 176 647 242 638 204 b 476 113 583 133 528 117 z m 404 92 b 422 72 403 81 411 72 b 435 76 428 72 432 74 b 422 108 449 88 439 108 b 410 104 418 108 414 107 b 404 92 406 100 404 96 z "},"6":{"ha":688,"x_min":0,"x_max":0,"o":"m 117 78 b 349 0 181 25 267 0 b 671 283 500 0 644 138 b 664 401 678 326 676 365 b 479 546 640 467 585 519 b 633 665 522 575 597 629 b 660 721 654 686 661 704 b 457 799 649 788 510 799 b 332 775 406 799 356 790 b 11 332 182 682 26 517 b 60 136 6 256 22 190 b 117 78 75 114 94 94 z m 331 36 b 88 157 236 46 144 75 b 46 329 54 206 40 264 b 353 746 61 500 211 660 b 453 764 369 758 408 764 b 625 717 479 764 621 754 b 439 561 619 683 479 592 b 390 529 421 550 404 539 l 388 526 b 339 431 353 497 343 474 b 429 521 363 479 392 500 l 432 519 b 631 389 549 503 608 451 b 636 290 642 357 642 325 b 349 35 610 160 483 35 b 332 36 342 35 336 35 z m 244 242 b 243 225 243 235 243 229 b 332 164 247 176 293 164 l 335 164 b 421 267 382 168 417 222 b 415 307 422 282 421 294 b 361 346 406 331 388 343 l 358 347 b 250 260 304 347 267 306 b 244 242 247 253 246 247 z m 169 546 b 113 458 147 519 128 490 b 113 444 111 454 111 449 b 121 435 114 440 117 436 b 129 433 122 433 125 433 b 144 443 136 433 142 436 b 356 672 193 542 272 606 b 358 697 364 681 365 689 b 344 703 354 701 350 703 b 333 700 339 703 335 701 l 329 696 b 169 546 307 679 233 624 z m 368 224 b 328 199 358 207 344 199 b 279 226 310 199 281 204 b 283 249 278 232 279 239 b 358 311 294 281 321 311 b 383 294 371 310 379 304 b 386 283 385 290 386 288 l 386 271 b 368 224 385 256 378 239 z m 118 422 b 104 428 114 426 110 428 b 92 424 99 428 94 426 b 104 392 78 413 88 392 b 117 396 108 392 113 393 b 118 422 124 403 125 415 z "},"7":{"ha":656,"x_min":0,"x_max":0,"o":"m 118 804 b 72 786 101 800 86 793 l 68 785 l 57 761 b 15 522 36 715 -6 597 b 151 447 31 463 100 447 b 239 460 183 447 215 453 b 108 143 203 389 126 238 b 108 72 100 110 100 86 b 310 0 142 21 249 0 b 435 44 353 0 408 7 b 569 417 475 104 547 347 b 640 736 614 567 651 710 b 267 821 607 797 347 821 b 118 804 222 821 164 818 z m 75 713 b 94 758 85 735 90 750 b 265 786 146 785 208 786 b 607 722 314 786 585 765 b 536 428 614 704 581 568 b 406 64 514 356 443 115 b 311 35 388 39 338 35 b 138 90 268 35 164 50 b 257 419 115 126 206 319 b 288 478 272 449 283 471 b 374 589 347 510 357 540 b 303 519 353 556 331 535 l 257 501 b 151 482 224 490 186 482 b 67 506 119 482 90 488 b 75 713 19 539 50 649 z m 74 647 b 86 626 72 638 76 631 b 108 639 96 626 104 628 l 110 644 b 140 718 117 671 124 700 b 267 728 183 724 224 728 b 421 713 318 728 369 722 b 440 726 433 713 439 717 b 426 747 443 736 439 743 b 264 763 369 757 315 763 b 119 747 243 763 131 758 b 75 653 93 721 85 686 z m 460 733 b 460 707 451 725 451 717 b 472 701 463 703 467 701 b 485 707 478 701 482 703 b 486 732 494 715 494 724 b 472 739 482 736 476 739 b 460 733 469 739 465 738 z "},"8":{"ha":739,"x_min":0,"x_max":0,"o":"m 393 947 b 201 868 321 947 251 919 b 193 557 81 750 157 608 b 15 322 88 519 26 433 b 22 215 11 285 14 249 b 364 0 63 68 224 0 b 663 113 464 0 592 39 b 729 329 711 163 740 231 b 574 544 714 465 624 522 b 628 611 592 560 613 579 b 633 811 665 688 661 756 b 550 903 615 849 588 879 l 547 904 b 435 946 514 925 475 940 l 431 946 b 413 947 424 947 418 947 z m 396 913 b 601 794 479 913 564 872 b 597 626 625 749 626 692 b 472 532 571 575 522 553 l 529 521 b 535 519 531 521 533 521 b 547 517 536 519 540 518 b 694 325 588 501 679 458 b 638 138 704 238 681 181 b 364 35 574 69 457 35 b 57 225 239 35 93 93 b 50 318 49 254 46 285 b 228 531 61 425 121 504 l 254 536 l 236 558 b 183 653 211 589 193 621 b 225 843 164 710 161 779 b 396 913 271 889 331 913 z m 393 213 b 436 278 415 229 432 254 b 435 307 438 289 438 299 b 407 342 431 319 421 332 l 401 344 b 383 351 396 349 390 350 b 350 357 374 356 363 357 b 238 292 311 357 256 329 b 232 253 231 279 229 267 b 319 183 239 219 281 183 b 393 213 346 183 371 194 z m 422 618 b 456 639 435 622 446 629 b 465 700 471 656 475 676 b 458 713 464 704 461 708 b 435 736 454 719 446 728 b 369 754 417 749 394 754 b 296 688 321 754 296 736 b 383 611 301 639 333 613 b 422 618 396 611 410 614 z m 435 106 b 432 94 432 103 431 99 b 435 86 432 90 433 88 b 450 79 439 81 443 78 b 547 106 488 81 518 90 l 550 106 b 636 189 588 126 617 154 b 663 311 657 225 667 265 b 611 440 663 335 639 440 b 604 438 608 440 606 439 b 596 414 594 433 592 425 b 628 310 617 376 624 342 b 606 206 631 271 624 236 b 447 114 574 149 513 118 b 435 106 443 114 439 111 z m 388 313 b 401 283 399 304 403 294 b 319 218 397 250 351 218 b 267 260 299 218 271 239 b 268 276 265 267 265 272 b 351 322 279 303 326 322 b 383 315 367 322 376 319 b 386 314 385 315 385 315 z m 408 711 b 435 683 424 704 433 696 l 435 669 b 383 647 429 651 400 647 b 331 692 351 647 335 663 b 332 706 331 699 331 703 b 369 719 338 718 357 719 b 408 711 379 719 393 717 z m 403 104 b 390 108 399 107 394 108 b 376 103 386 108 382 107 b 379 76 371 93 369 82 b 383 74 381 75 382 74 b 390 72 385 72 386 72 b 406 79 397 72 401 75 b 403 104 411 86 413 99 z "},"9":{"ha":715,"x_min":0,"x_max":0,"o":"m 201 283 b 144 83 169 214 131 119 b 318 0 164 31 263 0 b 464 82 382 0 431 28 b 646 457 535 203 596 329 b 701 700 683 557 711 646 b 389 911 679 851 529 911 b 19 690 246 911 60 846 b 186 357 -32 500 101 397 b 228 339 203 349 217 343 b 201 283 221 325 213 307 z m 188 831 b 389 876 250 863 326 876 b 565 836 450 876 511 865 l 568 835 b 667 696 622 806 657 761 b 613 469 674 650 650 564 b 435 100 563 342 506 218 b 317 35 408 57 368 35 b 176 96 283 35 192 58 b 264 331 165 133 242 293 b 394 372 314 331 357 332 b 308 357 367 363 338 357 b 269 361 296 357 282 358 l 239 372 b 53 682 176 393 1 482 b 188 831 71 750 122 799 z m 275 681 b 225 633 251 668 235 651 b 221 594 219 621 218 607 b 307 525 228 560 269 525 b 425 619 357 525 418 569 b 396 683 429 642 422 665 b 381 692 392 686 386 689 b 339 699 371 696 357 699 b 275 681 319 699 299 693 z m 557 407 b 621 568 581 458 606 511 b 568 799 647 657 649 751 b 517 819 558 806 528 819 b 500 806 507 819 501 815 b 513 785 496 796 500 789 b 568 754 536 778 556 768 b 588 576 611 711 606 643 b 525 422 572 522 549 472 b 508 386 518 407 513 396 b 519 364 506 375 510 368 b 542 375 529 364 538 364 b 557 407 543 379 547 390 z m 360 581 b 308 560 343 568 325 560 b 254 601 288 560 258 581 b 314 660 254 629 285 651 b 340 664 324 663 332 664 b 367 660 351 664 361 661 b 376 654 371 658 374 656 b 390 624 386 644 392 635 b 360 581 389 608 375 592 z m 444 826 b 447 800 436 817 438 808 b 458 796 450 797 454 796 b 474 803 464 796 469 799 b 471 829 479 810 478 822 b 458 833 467 832 463 833 b 444 826 454 833 449 831 z "},"\u0000":{"ha":0,"x_min":0,"x_max":0,"o":""}," ":{"ha":347,"x_min":0,"x_max":0,"o":""},"\r":{"ha":347,"x_min":0,"x_max":0,"o":""},"A":{"ha":1074,"x_min":0,"x_max":0,"o":"m 325 -1 b 394 44 353 6 376 21 b 467 196 431 89 456 167 l 486 194 b 536 192 503 193 519 192 b 542 193 538 193 539 193 l 558 192 b 789 1 592 75 665 1 b 1051 168 889 1 1040 51 b 1053 200 1053 178 1053 189 l 1053 235 b 551 1083 1047 492 883 1094 b 543 1085 547 1083 547 1085 b 235 813 428 1085 293 907 b 42 368 142 667 75 506 b 58 57 4 224 8 106 b 239 -11 107 8 172 -11 b 325 -1 268 -11 297 -8 z m 417 242 b 315 272 382 249 347 260 b 433 208 353 244 390 224 b 339 40 422 167 381 56 b 239 25 306 31 272 25 b 82 83 182 25 125 43 b 76 360 43 121 44 226 b 394 963 125 556 251 815 b 536 1049 469 1038 515 1049 b 543 1049 540 1050 542 1050 l 550 1049 b 1017 233 861 1049 1011 479 l 1017 201 b 1015 171 1017 192 1017 181 b 790 38 1004 76 872 38 b 593 200 681 38 625 99 b 711 263 636 211 675 232 b 521 231 649 242 586 231 b 417 242 486 231 451 235 z m 619 579 b 551 642 610 614 589 642 b 536 640 544 642 540 642 l 532 639 b 492 617 517 635 504 626 b 450 514 471 599 451 568 b 456 476 449 500 451 488 b 517 436 465 450 489 438 b 536 438 524 436 529 438 b 622 535 590 444 617 481 b 619 579 624 549 622 564 z m 494 996 b 268 715 413 940 319 800 b 274 690 261 706 264 697 b 282 688 278 689 281 688 b 297 697 289 688 294 690 b 515 967 349 778 439 915 l 518 968 b 522 993 525 974 528 983 b 507 1000 518 997 514 1000 b 497 997 503 1000 499 999 z m 489 543 b 550 606 497 572 518 606 b 585 571 571 606 581 589 b 586 538 588 563 588 551 b 518 472 582 494 560 472 b 500 476 511 472 506 474 b 489 490 494 478 490 483 b 485 514 486 496 485 504 b 489 543 485 522 486 532 z m 238 667 b 256 647 238 654 243 647 b 275 667 268 647 275 654 b 256 685 275 679 268 685 b 238 667 243 685 238 679 z "},"B":{"ha":958,"x_min":0,"x_max":0,"o":"m 574 1167 b 329 1089 485 1167 400 1139 b 179 1153 289 1150 246 1153 b 89 1144 147 1153 118 1151 b 29 1022 49 1133 44 1117 l 29 1018 b 14 432 18 963 7 672 b 60 107 18 283 33 157 b 274 0 111 15 211 0 b 326 3 297 0 315 1 l 332 4 b 399 57 360 6 383 36 b 592 4 456 19 524 4 b 913 175 721 4 853 49 b 943 331 936 224 947 276 b 774 589 936 440 879 546 b 913 890 836 626 935 710 b 574 1167 890 1064 740 1167 z m 447 1108 b 574 1129 488 1122 529 1129 b 875 886 722 1129 857 1038 b 804 658 890 771 849 701 b 713 603 778 633 747 615 l 632 581 l 715 567 b 904 329 829 549 900 439 b 878 190 908 281 899 233 b 590 42 826 81 704 42 b 403 101 518 42 463 58 l 389 114 b 315 196 367 131 344 153 b 372 86 331 153 340 124 b 329 42 363 71 344 43 l 324 40 b 275 38 313 40 296 38 b 92 126 217 38 136 53 b 51 433 68 169 56 290 b 65 1013 44 674 58 958 l 67 1015 b 97 1107 78 1090 81 1103 b 179 1115 124 1114 153 1115 b 303 1058 233 1115 276 1115 b 233 946 265 1021 249 992 b 314 1032 271 996 288 1014 l 333 1047 b 447 1108 368 1074 407 1093 z m 450 915 b 401 863 428 903 411 883 b 400 822 396 849 396 835 b 486 758 410 789 451 758 b 601 863 536 758 597 811 b 568 925 604 889 593 910 l 563 928 b 547 932 557 929 551 931 b 518 936 540 933 529 936 b 450 915 497 936 472 928 z m 464 393 b 415 342 442 381 425 363 b 413 301 410 326 408 313 b 500 238 422 267 465 238 b 615 340 550 238 611 288 b 581 403 617 367 606 388 b 532 414 575 410 543 414 b 464 393 510 414 486 406 z m 547 1101 b 531 1083 538 1100 532 1093 b 550 1064 531 1072 538 1065 b 801 871 671 1060 790 1008 l 801 869 b 822 851 803 857 810 851 b 839 872 832 853 840 863 l 839 875 b 547 1101 828 1035 690 1097 z m 436 833 b 436 849 435 838 435 843 b 519 899 447 875 492 899 b 549 892 535 899 544 896 b 564 865 561 885 565 875 b 488 796 564 835 517 796 b 436 833 469 796 440 815 z m 449 311 b 450 326 447 317 449 322 b 532 376 461 353 503 376 b 561 371 544 376 554 375 b 578 343 572 364 578 354 b 500 275 574 313 533 275 b 449 311 483 275 454 294 z m 475 1079 b 496 1060 475 1068 485 1060 b 515 1079 506 1060 515 1068 b 496 1099 515 1090 506 1099 b 475 1079 485 1099 475 1090 z "},"C":{"ha":904,"x_min":0,"x_max":0,"o":"m 253 1050 b 57 781 168 989 106 899 b 28 388 3 653 1 515 b 435 0 76 165 194 0 b 769 126 557 0 679 43 b 833 297 814 167 835 232 b 671 517 833 392 782 517 b 633 511 660 517 646 515 b 479 418 589 500 513 451 b 467 408 475 414 471 411 l 456 400 b 407 524 424 439 411 481 b 424 638 403 564 408 603 b 551 744 446 688 492 744 b 614 731 569 744 592 738 b 711 708 646 719 674 708 b 858 785 771 708 825 736 b 892 918 883 822 894 867 b 576 1142 881 1089 722 1142 b 253 1050 442 1142 336 1111 z m 182 143 b 67 396 122 208 88 296 b 93 767 40 517 43 649 b 575 1103 183 994 326 1103 b 853 917 704 1103 842 1063 b 826 806 856 874 847 836 b 711 747 800 768 756 747 b 551 783 650 747 601 783 b 388 653 476 783 414 717 b 368 519 369 611 364 567 b 422 378 372 471 390 424 b 315 356 399 365 369 357 b 386 346 342 350 365 346 b 504 392 425 346 460 358 b 525 407 511 396 518 401 b 643 474 563 433 606 464 b 671 478 653 476 663 478 b 794 297 758 478 794 369 b 743 154 796 242 781 188 b 435 39 660 78 546 39 b 182 143 322 39 239 78 z m 133 440 b 114 457 132 451 125 457 b 104 454 110 457 106 456 b 94 435 96 451 93 444 b 267 111 113 319 175 185 b 278 107 269 108 274 107 b 293 114 283 107 289 108 b 290 142 301 124 300 133 b 133 440 206 208 149 336 z m 119 503 b 104 508 115 507 110 508 b 83 489 93 508 83 500 b 104 468 83 476 93 468 b 125 489 115 468 125 476 b 119 503 125 494 124 499 z "},"D":{"ha":950,"x_min":0,"x_max":0,"o":"m 510 8 b 826 215 651 8 753 101 b 938 603 893 321 939 454 b 493 1076 933 839 742 1081 b 329 1036 436 1075 382 1063 b 213 1081 297 1076 261 1081 b 40 983 140 1081 72 1054 b 15 672 18 936 11 810 b 111 54 18 539 38 168 b 240 0 140 10 190 0 b 296 13 257 0 281 3 b 328 61 308 17 321 40 b 510 8 379 22 447 8 z m 550 46 b 529 44 543 44 536 44 l 510 44 b 350 89 454 44 394 56 b 329 108 340 94 336 101 l 322 117 b 269 225 301 143 290 174 b 301 94 268 179 274 138 b 283 46 297 83 288 47 b 279 43 282 44 281 44 b 239 36 269 39 260 36 b 142 74 204 36 163 42 b 51 672 72 182 57 547 b 74 968 47 807 56 924 b 213 1044 100 1028 153 1044 b 301 1015 247 1044 275 1044 b 232 896 261 983 243 947 b 319 990 258 940 288 969 l 332 997 b 497 1040 385 1026 440 1040 b 901 603 725 1040 897 819 b 797 235 903 463 860 335 b 550 46 744 151 653 57 z m 522 549 b 532 586 528 561 531 574 b 526 631 533 604 532 618 b 467 675 517 654 500 671 b 342 581 406 675 364 636 b 335 542 336 565 333 553 b 433 472 335 490 390 472 l 435 472 b 522 549 475 475 506 511 z m 586 964 b 672 919 617 954 646 940 b 781 758 758 856 781 764 b 817 761 782 733 819 739 b 694 947 817 768 788 876 b 490 1015 635 993 564 1014 b 472 997 478 1015 472 1010 b 490 979 472 985 478 979 b 586 964 522 978 554 974 z m 369 543 b 464 640 369 588 418 640 b 493 618 479 638 489 631 b 496 590 497 610 497 600 b 428 508 492 557 467 508 b 369 543 407 508 371 515 z m 424 997 b 443 979 424 985 431 979 b 461 997 456 979 461 985 b 443 1017 461 1010 456 1017 b 424 997 431 1017 424 1010 z "},"E":{"ha":843,"x_min":0,"x_max":0,"o":"m 443 403 b 503 400 458 401 479 400 b 646 443 551 400 611 406 b 638 646 694 494 694 597 b 549 668 619 664 586 668 b 431 656 504 668 457 661 l 428 763 b 664 728 472 751 578 728 b 824 819 739 728 797 742 b 831 925 833 851 835 888 b 729 1086 824 983 790 1068 b 431 1119 647 1113 518 1119 b 38 963 324 1119 49 1111 b 15 608 33 896 22 758 b 28 207 11 460 13 304 b 204 18 43 114 103 25 b 453 6 282 8 375 6 b 756 75 531 6 700 8 b 786 154 774 96 785 122 b 769 236 788 183 782 211 b 574 344 735 313 651 344 b 442 315 529 344 485 335 z m 490 786 b 446 796 472 790 458 793 l 422 801 b 417 803 421 803 419 803 l 415 803 l 392 810 b 294 857 364 819 335 831 b 392 776 315 825 347 797 l 394 611 l 417 615 b 418 617 418 615 418 615 l 422 617 b 553 635 443 621 503 635 b 646 543 613 635 643 604 b 619 468 646 515 640 489 b 507 435 593 439 542 435 b 451 439 486 435 467 436 b 428 442 443 440 435 440 l 408 444 l 404 254 l 432 269 b 574 310 478 296 525 310 b 732 226 642 310 699 286 b 750 156 736 210 750 160 b 700 76 750 121 732 92 b 456 42 640 50 550 42 b 247 51 385 42 315 46 b 207 53 232 51 219 53 b 63 214 122 60 78 139 b 51 607 47 307 47 461 b 74 960 58 756 69 893 b 426 1085 85 1075 342 1085 b 718 1053 515 1085 636 1079 b 794 921 765 1039 790 964 b 789 829 799 886 797 856 b 665 763 768 769 722 763 b 490 786 608 763 539 772 z m 560 1057 b 464 1063 539 1061 507 1063 b 239 1046 410 1063 338 1058 b 224 1025 226 1044 222 1038 b 243 1010 224 1015 233 1008 b 465 1028 342 1025 411 1028 b 590 1014 544 1028 579 1018 l 593 1014 b 597 1013 594 1014 596 1013 b 614 1026 607 1013 613 1017 b 601 1049 618 1038 614 1044 l 600 1049 b 560 1057 593 1050 581 1053 z m 629 1019 b 647 1001 629 1007 635 1001 b 667 1019 660 1001 667 1007 b 647 1039 667 1032 660 1039 b 629 1019 635 1039 629 1032 z "},"F":{"ha":856,"x_min":0,"x_max":0,"o":"m 424 211 b 417 476 419 253 417 418 b 489 472 440 474 465 472 b 661 547 558 472 646 485 b 669 597 665 564 668 581 l 669 624 b 557 750 664 690 628 744 b 532 751 549 751 540 751 l 506 751 b 410 747 474 751 442 750 l 413 788 b 621 761 481 772 550 761 b 844 918 726 761 829 803 b 685 1125 857 1024 789 1090 b 450 1160 614 1151 528 1160 b 65 1024 351 1160 76 1128 b 26 156 47 864 -7 279 b 249 -17 57 58 146 -17 b 357 21 288 -17 325 -6 b 424 211 400 56 428 117 z m 450 714 b 476 715 458 715 467 715 l 531 715 b 556 714 539 715 547 715 b 619 674 585 713 606 699 b 633 599 631 656 635 631 b 626 557 632 583 631 572 b 497 507 615 517 553 507 b 401 514 465 507 433 510 l 381 518 l 381 496 b 383 371 382 451 382 410 b 388 208 385 306 386 235 b 333 49 392 129 371 76 b 249 19 310 28 281 19 b 61 165 165 19 83 83 b 63 574 46 224 51 396 b 100 1019 74 754 93 942 b 450 1124 106 1099 372 1124 b 669 1093 524 1124 599 1117 l 674 1092 b 810 924 763 1060 819 1008 b 619 797 799 824 703 797 b 450 817 560 797 494 807 l 449 817 l 428 821 b 408 825 419 824 413 825 b 400 826 404 826 401 826 l 396 828 b 279 876 361 838 322 850 b 378 800 300 847 332 818 l 372 707 l 393 710 b 410 711 397 711 403 711 b 428 714 414 713 421 713 z m 576 1094 b 458 1101 550 1099 511 1101 b 275 1090 397 1101 336 1097 b 260 1069 263 1089 258 1082 b 279 1054 261 1057 268 1053 b 460 1065 339 1061 399 1065 b 618 1047 514 1065 564 1063 b 640 1061 628 1047 639 1050 b 628 1082 644 1071 638 1078 l 625 1083 b 576 1094 618 1085 601 1089 z m 650 1049 b 669 1029 650 1036 657 1029 b 688 1049 682 1029 688 1036 b 669 1067 688 1061 682 1067 b 650 1049 657 1067 650 1061 z "},"G":{"ha":1038,"x_min":0,"x_max":0,"o":"m 863 601 b 614 672 806 639 685 672 b 493 579 558 672 514 628 b 475 486 481 547 474 517 b 524 369 476 443 492 399 b 447 464 479 388 454 419 b 460 557 443 493 449 525 b 661 713 492 642 567 713 b 686 711 671 713 676 711 b 744 701 704 707 724 706 b 867 686 785 692 828 686 b 996 747 921 686 969 699 b 1025 901 1019 786 1029 846 b 972 1040 1021 942 1011 1017 b 635 1140 851 1111 740 1140 b 51 678 358 1140 136 929 b 39 299 8 550 0 415 b 529 3 114 82 317 3 b 890 140 654 3 814 31 b 865 600 1011 317 936 549 z m 913 288 b 860 160 906 243 888 200 b 529 38 793 60 640 38 b 74 310 331 38 140 111 b 85 667 36 419 44 544 b 635 1104 167 906 372 1104 b 954 1010 735 1104 842 1075 b 989 899 979 996 989 924 b 965 765 993 850 986 799 b 867 722 944 731 906 722 b 750 736 829 722 789 729 b 661 747 721 742 690 747 b 425 569 553 747 461 668 b 413 460 413 532 407 494 b 575 324 424 378 493 324 b 746 410 653 324 708 356 b 615 369 700 381 669 369 b 601 372 611 371 607 371 b 510 488 540 383 514 428 b 525 565 510 514 515 539 b 615 638 542 600 572 638 b 844 571 676 638 796 604 b 914 411 872 550 904 489 b 913 288 919 372 919 331 z m 328 892 b 376 918 350 907 367 915 b 389 940 389 922 393 929 b 371 953 385 949 379 953 b 256 875 344 953 274 893 b 124 629 190 808 146 722 b 128 614 122 624 124 618 b 142 608 131 610 135 608 b 158 621 151 608 157 613 b 256 822 176 694 207 763 b 328 892 282 853 306 876 z m 128 596 b 108 578 115 596 108 590 b 128 558 108 565 115 558 b 146 578 140 558 146 565 b 128 596 146 590 140 596 z "},"H":{"ha":1103,"x_min":0,"x_max":0,"o":"m 496 925 b 486 990 496 951 493 972 b 275 1086 461 1064 344 1086 b 74 944 158 1086 111 1049 b 11 506 32 836 11 669 b 94 97 13 340 38 185 b 364 1 147 11 275 1 b 479 22 413 1 456 7 b 522 399 526 54 528 332 b 564 403 538 403 549 404 b 607 399 579 403 593 401 b 700 10 596 325 567 43 b 781 0 725 3 751 0 b 1072 218 914 0 1050 79 b 1072 692 1090 313 1090 515 b 939 1065 1067 764 1033 1049 b 800 1078 910 1071 856 1078 b 607 985 731 1078 626 1068 b 596 817 596 942 592 878 b 614 706 600 776 604 738 b 544 717 586 713 565 717 b 506 713 532 717 518 715 l 467 704 b 496 925 478 753 496 850 z m 486 399 b 461 53 492 339 493 75 b 367 38 443 42 410 38 b 182 65 307 38 236 44 b 47 506 63 110 47 407 b 97 904 46 650 65 799 b 275 1051 131 1007 163 1051 b 453 979 325 1051 435 1035 b 429 699 476 914 442 751 l 417 651 l 447 661 b 542 681 490 674 515 681 b 639 663 568 681 593 675 l 678 651 l 660 688 b 632 819 644 719 636 765 b 642 976 628 876 631 936 b 800 1042 657 1036 749 1042 b 933 1031 854 1042 904 1035 b 1036 688 1001 1025 1031 736 b 1038 224 1054 513 1053 319 b 781 36 1015 100 899 36 b 708 44 757 36 732 39 b 643 399 597 67 638 344 b 753 372 682 393 718 385 b 569 443 700 419 639 443 b 358 364 501 443 429 418 b 486 399 401 382 443 393 z m 94 696 b 83 611 90 661 86 632 b 97 592 83 600 88 593 b 100 590 99 592 99 592 b 119 607 111 590 118 596 b 190 951 128 675 158 899 b 185 976 197 961 194 969 b 176 979 181 978 178 979 b 161 971 169 979 164 976 b 94 696 133 928 108 794 z m 97 575 b 79 556 85 575 79 568 b 97 538 79 543 85 538 b 117 556 110 538 117 543 b 97 575 117 568 110 575 z "},"I":{"ha":499,"x_min":0,"x_max":0,"o":"m 353 29 b 449 226 411 49 436 175 b 489 651 482 378 493 582 b 254 1103 489 817 483 1103 b 181 1094 232 1103 207 1100 l 179 1094 b 115 1056 156 1086 135 1074 b 32 900 82 1028 47 979 b 18 408 17 817 11 600 b 68 78 25 258 42 124 b 210 -3 100 24 147 -3 b 353 29 258 -3 307 13 z m 369 90 b 342 63 361 75 351 67 b 210 33 299 47 256 33 b 99 96 160 33 122 54 b 54 410 72 136 61 265 b 67 894 47 597 51 814 b 189 1060 89 1024 179 1057 b 250 1067 211 1064 232 1067 b 453 682 443 1067 453 825 b 414 233 453 532 443 382 b 369 90 408 207 392 133 z m 338 944 b 368 843 351 914 363 868 b 379 629 378 789 383 722 b 396 611 379 617 385 611 b 415 628 407 611 414 617 b 403 850 419 722 413 794 b 332 1000 399 872 368 1000 b 318 993 328 1000 322 997 l 317 990 b 317 974 314 985 314 979 b 321 968 318 972 319 969 b 338 944 326 963 332 954 z m 300 1035 b 281 1017 288 1035 281 1029 b 300 997 281 1004 288 997 b 319 1017 310 997 319 1006 b 300 1035 319 1026 310 1035 z "},"J":{"ha":949,"x_min":0,"x_max":0,"o":"m 206 739 b 386 657 253 685 313 657 b 522 675 435 657 479 663 b 450 351 522 581 522 424 b 251 549 417 442 360 549 b 15 357 143 549 15 475 b 233 56 15 243 142 107 b 472 -4 300 18 378 -4 b 918 528 744 -4 878 299 b 921 874 939 650 942 772 b 767 1113 899 992 849 1081 l 761 1114 b 519 1124 682 1121 601 1124 b 226 1089 440 1124 294 1122 b 147 915 211 1085 154 1060 b 206 739 146 842 168 783 z m 233 763 b 183 914 201 800 182 851 b 211 1035 188 982 199 1017 b 235 1054 218 1044 225 1051 l 240 1056 b 524 1088 304 1086 443 1088 b 756 1079 601 1088 678 1086 b 886 868 822 1051 865 974 b 882 533 904 768 903 650 b 472 32 844 326 722 32 b 96 236 307 32 189 101 b 51 357 67 281 51 321 b 251 513 51 456 163 513 b 425 317 350 513 400 397 l 431 296 l 450 306 b 457 310 451 307 454 308 b 472 324 461 314 467 318 b 536 439 493 342 518 376 b 557 690 558 526 557 651 b 649 779 600 711 622 742 b 556 724 606 747 583 735 l 533 715 b 386 692 518 704 410 692 b 233 763 325 692 274 715 z m 669 1043 b 656 1065 671 1056 667 1063 b 526 1072 650 1067 599 1072 b 472 1071 510 1072 493 1071 l 469 1071 b 289 1051 414 1067 351 1063 b 275 1029 278 1049 274 1042 b 296 1015 276 1018 286 1015 b 529 1036 374 1031 450 1036 b 647 1031 596 1036 642 1032 b 651 1029 649 1029 650 1029 b 669 1043 661 1029 667 1033 z m 682 1043 b 700 1025 682 1031 688 1025 b 719 1043 713 1025 719 1031 b 700 1063 719 1056 713 1063 b 682 1043 688 1063 682 1056 z "},"K":{"ha":1113,"x_min":0,"x_max":0,"o":"m 439 1094 b 307 1129 400 1119 350 1129 b 169 1097 256 1129 204 1119 b 136 1068 156 1090 144 1081 l 133 1064 b 19 629 63 940 31 769 b 54 81 1 400 24 172 b 229 0 76 17 168 0 b 392 61 281 0 363 13 b 447 215 418 101 436 172 b 660 35 492 171 589 79 b 740 11 685 19 711 11 b 897 194 838 11 897 106 b 701 472 897 311 757 428 b 1065 739 781 514 1010 643 b 1093 825 1081 765 1089 793 b 1078 964 1100 871 1096 919 b 883 1101 1046 1043 972 1101 b 490 801 749 1101 579 913 b 501 907 497 839 501 874 b 471 1063 503 967 494 1022 b 439 1094 463 1075 451 1086 z m 415 235 b 361 79 404 196 386 121 b 229 36 339 46 267 36 b 89 92 192 36 100 46 b 54 626 60 176 36 401 b 165 1049 67 769 93 922 b 304 1093 192 1083 264 1093 b 467 907 442 1093 467 1032 b 431 722 463 840 449 771 l 397 613 l 481 733 b 882 1067 542 815 743 1067 b 1044 951 954 1067 1018 1017 b 1058 831 1060 913 1064 869 b 1033 756 1054 803 1046 778 b 683 503 988 669 757 542 l 633 476 l 672 449 b 861 194 719 414 861 299 b 739 47 861 124 818 47 b 678 65 718 47 699 53 b 472 240 611 107 517 196 l 443 268 b 397 374 425 290 410 319 b 419 254 393 326 401 286 z m 82 522 b 82 418 81 488 81 453 b 101 401 82 408 90 400 b 111 406 106 401 108 403 b 118 419 115 408 118 413 b 133 708 114 531 124 640 b 139 747 135 724 138 738 b 142 778 140 764 142 774 b 133 793 142 785 139 790 b 124 794 129 794 126 796 b 111 790 119 794 115 793 b 107 776 107 785 106 781 b 103 753 107 775 106 767 b 82 522 97 711 85 621 z m 121 842 b 114 829 117 838 114 833 b 133 810 114 818 124 810 b 153 829 146 810 153 817 b 133 847 153 842 146 847 b 121 842 129 847 125 846 z "},"L":{"ha":894,"x_min":0,"x_max":0,"o":"m 60 967 b 260 1139 75 1083 144 1139 l 286 1138 b 450 1050 356 1133 410 1128 b 426 439 494 967 436 496 b 319 351 382 422 347 400 b 422 408 360 385 390 399 l 426 433 l 426 439 b 486 458 444 446 464 451 b 464 454 479 457 471 456 b 482 1067 475 561 532 978 b 286 1174 431 1164 371 1169 l 263 1174 b 247 1175 261 1175 257 1175 b 25 969 119 1175 40 1099 b 26 493 14 867 15 671 b 74 101 38 310 56 146 b 513 -1 125 0 399 -1 b 879 226 644 -1 864 22 b 756 475 890 382 842 453 b 681 483 733 482 707 483 b 490 458 624 483 561 474 l 500 425 b 681 449 567 438 626 449 b 746 440 704 449 726 446 b 843 229 817 422 854 364 b 511 35 832 54 632 35 l 479 35 b 453 36 469 35 460 35 b 107 117 378 36 140 40 b 60 967 71 196 38 760 z m 86 889 b 85 788 85 857 85 822 l 86 767 b 103 749 86 754 92 749 b 121 767 115 749 121 754 l 121 788 b 167 1040 121 903 121 997 b 229 1063 183 1056 204 1063 b 247 1081 242 1063 247 1068 b 229 1099 247 1093 242 1099 b 167 1086 204 1099 183 1094 b 86 889 107 1058 89 983 z m 268 1085 b 286 1065 268 1075 276 1065 b 306 1085 297 1065 306 1075 b 286 1104 306 1097 299 1104 b 268 1085 274 1104 268 1097 z "},"M":{"ha":1293,"x_min":0,"x_max":0,"o":"m 692 876 b 275 1089 599 969 414 1089 b 79 926 168 1089 106 1022 b 19 476 54 824 26 642 b 46 143 15 332 19 200 b 292 0 94 39 182 0 b 506 53 361 0 449 15 b 588 183 544 79 571 118 b 551 500 606 258 578 403 b 671 436 583 467 622 436 b 790 482 708 436 758 461 b 767 65 746 363 675 135 b 964 3 821 22 893 3 b 1221 169 1081 3 1178 60 b 1278 569 1254 260 1274 414 b 1240 1000 1282 757 1267 940 b 1079 1118 1208 1071 1158 1119 b 692 876 943 1118 775 971 z m 671 472 b 543 568 615 472 569 529 b 406 683 511 628 474 660 b 500 550 471 639 485 599 b 553 192 525 467 575 279 b 365 42 526 88 465 57 b 292 35 339 38 315 35 b 79 158 196 35 119 69 b 56 475 53 210 51 335 b 167 1014 61 593 76 929 b 275 1053 199 1042 235 1053 b 681 838 408 1053 593 929 l 694 822 l 707 838 b 1079 1083 782 928 953 1083 b 1208 986 1144 1083 1182 1042 b 1242 571 1231 931 1246 754 b 1154 125 1238 454 1229 222 b 964 39 1108 65 1038 39 b 788 94 904 39 836 57 b 844 521 700 160 811 443 b 958 604 868 553 899 578 b 697 478 822 586 817 519 b 671 472 690 474 681 472 z m 108 424 b 90 406 96 424 90 418 b 108 200 90 328 92 256 b 257 79 129 122 174 79 b 278 97 268 79 278 85 b 260 115 278 110 272 115 b 147 193 199 114 165 144 b 126 406 126 247 125 322 b 108 424 126 418 121 424 z "},"N":{"ha":1257,"x_min":0,"x_max":0,"o":"m 993 1090 b 793 975 911 1090 811 1069 b 749 690 779 897 761 774 b 431 1090 713 885 671 1086 b 153 869 281 1090 192 1004 b 122 765 143 838 133 803 l 121 761 b 49 106 54 544 -33 261 b 282 -43 99 11 175 -43 b 399 -25 328 -43 367 -35 b 528 288 461 -10 506 176 b 733 -3 557 194 617 54 b 869 -28 768 -18 819 -28 b 1014 13 918 -28 976 -19 b 1235 679 1124 111 1218 540 b 1190 1039 1253 836 1246 975 b 993 1090 1150 1083 1050 1090 z m 989 39 b 869 7 961 13 907 7 b 749 29 821 7 781 14 b 546 357 617 89 558 293 l 540 378 b 535 518 531 421 529 469 b 511 378 518 475 511 426 b 390 10 506 338 454 26 b 282 -7 363 3 325 -7 b 81 122 188 -7 124 40 b 122 643 17 243 67 453 b 154 751 133 681 144 717 b 188 860 167 789 178 825 b 431 1054 225 982 297 1054 b 722 672 647 1054 689 844 b 721 446 733 604 744 529 b 772 601 749 492 768 547 b 829 968 783 669 807 856 b 994 1054 840 1042 933 1054 b 1164 1014 1038 1054 1132 1050 b 1199 683 1213 960 1217 833 b 1089 232 1181 532 1138 364 b 989 39 1054 138 1018 65 z m 78 286 b 90 169 76 243 81 204 b 232 28 111 93 158 46 b 254 40 243 28 250 29 b 242 63 258 51 254 58 b 122 189 171 81 139 122 b 122 383 110 243 111 306 b 128 422 124 396 124 407 b 122 439 129 428 128 433 b 110 443 118 442 114 443 b 93 428 100 443 94 438 b 78 286 83 376 79 329 z m 103 478 b 122 460 103 465 110 460 b 140 478 135 460 140 465 b 122 497 140 490 135 497 b 103 478 110 497 103 490 z "},"O":{"ha":1139,"x_min":0,"x_max":0,"o":"m 946 1018 b 624 1133 858 1090 746 1133 b 140 856 425 1133 247 1015 b 25 558 89 778 46 682 b 28 343 10 476 13 406 b 535 -4 83 115 315 -4 b 1026 278 742 -4 915 104 b 1117 719 1108 406 1144 563 b 946 1018 1094 842 1033 944 z m 624 1099 b 1082 714 854 1099 1042 936 b 996 297 1108 565 1074 419 b 536 32 894 135 732 32 b 63 351 328 32 115 139 b 60 551 47 411 44 475 b 624 1099 108 829 322 1099 z m 632 446 b 682 496 653 458 669 475 b 703 601 703 528 710 564 b 582 703 693 661 642 703 b 439 567 504 703 450 636 b 439 514 435 546 435 529 b 563 428 454 458 508 428 b 632 446 588 428 611 433 z m 651 514 b 563 464 631 482 600 464 b 474 522 525 464 483 482 b 474 560 471 533 471 546 b 582 667 483 614 525 667 b 668 594 625 667 661 638 b 651 514 674 567 667 538 z m 654 1047 b 669 1028 653 1036 657 1029 b 979 783 821 1010 919 922 l 981 779 b 997 768 983 772 989 768 b 1004 769 1000 768 1003 768 b 1014 793 1015 774 1018 782 l 1013 797 b 674 1063 947 951 840 1042 b 654 1047 663 1064 656 1060 z m 613 1031 b 632 1049 625 1031 632 1036 b 613 1068 632 1061 625 1068 b 594 1049 600 1068 594 1061 b 613 1031 594 1036 600 1031 z "},"P":{"ha":1040,"x_min":0,"x_max":0,"o":"m 114 76 b 310 0 154 26 214 0 b 557 224 456 0 553 75 b 550 317 558 258 554 290 b 501 489 546 349 519 433 b 643 453 544 463 594 453 b 993 643 782 453 926 518 b 1025 810 1019 694 1029 753 b 701 1135 1014 985 872 1108 b 539 1147 647 1143 593 1147 b 21 826 328 1147 39 1083 b 39 276 10 688 6 453 b 114 76 54 193 74 125 z m 110 156 b 74 283 92 199 79 249 b 57 824 44 457 46 686 b 539 1111 74 1058 349 1111 b 939 953 692 1111 846 1090 b 990 807 969 907 986 858 b 961 660 994 756 985 706 b 643 489 901 546 767 489 b 479 554 582 489 518 506 l 444 606 b 403 693 432 629 418 656 b 447 539 404 644 418 583 b 478 443 458 504 468 472 b 514 311 494 393 510 338 b 522 224 518 288 522 257 b 310 36 518 92 432 36 b 188 60 272 36 231 43 b 110 156 153 72 126 111 z m 671 735 b 701 765 683 742 694 753 b 715 831 715 786 719 808 b 639 894 708 868 676 894 b 550 811 590 894 560 854 b 551 779 549 799 549 788 b 629 724 561 742 594 724 b 671 735 644 724 658 728 z m 88 729 b 99 724 90 725 94 724 l 100 724 b 117 743 110 724 118 732 b 167 933 113 825 129 889 b 346 1026 204 978 263 1006 b 360 1047 357 1028 361 1035 b 338 1061 356 1057 349 1061 b 139 956 247 1039 182 1007 l 138 954 b 99 886 121 933 108 913 b 82 740 85 844 79 796 b 88 729 82 736 83 732 z m 586 788 b 586 806 585 792 585 797 b 639 858 590 832 610 858 b 679 825 660 858 675 846 b 671 785 682 810 679 796 b 628 760 661 769 646 760 b 586 788 611 760 590 767 z m 86 676 b 99 671 90 672 94 671 b 118 689 111 671 118 676 b 99 708 118 701 111 708 b 79 689 89 708 79 700 b 86 676 79 685 82 681 z "},"Q":{"ha":1275,"x_min":0,"x_max":0,"o":"m 232 114 b 528 -4 315 42 417 -4 b 876 118 650 -4 776 47 b 1094 -18 922 42 1004 -18 b 1260 165 1194 -18 1249 76 b 1261 210 1261 182 1263 197 b 1111 417 1257 281 1147 383 b 1125 886 1210 607 1199 768 b 635 1122 1025 1049 818 1122 b 53 764 390 1122 149 993 b 46 379 -4 632 1 500 b 232 114 83 279 147 185 z m 179 894 b 635 1086 293 1019 461 1086 b 1094 867 806 1086 1003 1018 b 1081 436 1161 757 1171 614 b 942 472 1038 463 988 472 b 1067 408 1003 451 1039 431 l 1078 399 b 1150 329 1104 375 1129 351 b 1225 208 1188 289 1224 242 b 1224 169 1226 197 1225 185 b 1093 18 1213 99 1178 18 b 897 151 1013 18 933 82 l 888 172 l 871 158 b 529 32 772 85 651 32 b 79 390 324 32 146 208 b 85 750 36 503 31 628 b 179 894 108 804 140 853 z m 544 444 b 681 576 628 444 671 493 b 676 636 682 597 682 615 b 588 718 667 681 638 718 b 567 715 583 718 576 717 l 564 715 b 511 683 544 708 526 699 b 453 547 483 660 457 618 b 460 496 451 528 454 511 b 544 444 475 458 507 444 z m 544 668 b 588 682 557 678 571 682 b 642 628 619 682 636 657 b 644 579 646 613 646 596 b 546 481 639 518 608 481 b 493 510 522 481 503 488 b 489 546 489 519 488 531 b 544 668 489 589 508 640 z m 165 375 b 149 385 161 382 156 385 b 142 383 144 385 143 385 b 132 360 131 379 128 371 b 467 69 196 221 315 104 b 488 83 476 69 483 68 b 474 104 492 93 483 103 b 289 203 406 119 340 154 b 165 375 235 251 193 313 z m 124 397 b 143 415 136 397 143 403 b 124 435 143 428 136 435 b 106 415 111 435 106 428 b 124 397 106 403 111 397 z "},"R":{"ha":1015,"x_min":0,"x_max":0,"o":"m 513 203 b 510 271 513 226 511 250 b 722 17 543 169 599 24 l 725 17 b 744 15 729 15 736 15 b 956 181 839 15 949 81 b 869 339 958 211 918 279 b 767 460 836 382 804 421 b 771 461 768 460 769 461 b 994 674 892 476 972 551 b 826 1056 1028 856 951 981 b 489 1139 731 1115 601 1139 b 65 924 342 1139 106 1089 b 13 415 43 831 19 607 b 39 75 8 260 13 121 b 260 -6 79 4 185 -6 b 453 26 303 -6 415 0 b 513 203 499 58 513 132 z m 528 336 b 493 381 524 353 514 381 b 474 368 485 381 478 376 b 468 336 468 361 467 351 l 468 333 b 453 79 476 275 490 143 b 349 36 431 42 403 42 b 260 31 321 32 292 31 b 71 93 201 31 100 38 b 49 414 49 135 44 265 b 100 915 56 607 78 822 b 489 1104 133 1061 360 1104 b 814 1021 599 1104 721 1081 b 960 681 922 953 989 843 b 725 494 938 558 847 494 b 586 524 692 494 657 497 b 719 460 614 490 669 465 l 725 454 b 840 317 765 410 803 365 b 919 183 883 261 924 206 b 744 51 908 100 822 51 b 592 164 665 51 629 96 b 528 336 560 224 540 292 z m 515 631 b 567 694 539 649 556 671 b 578 746 576 713 579 729 b 529 815 578 774 563 799 b 517 819 525 817 521 818 b 483 824 508 822 497 824 b 331 717 422 824 349 776 b 333 668 326 700 328 683 b 439 601 349 633 400 601 b 515 631 465 601 492 611 z m 533 708 b 440 636 515 671 475 636 b 367 682 417 636 376 658 b 365 706 363 690 363 699 b 483 788 376 749 440 788 b 515 783 500 788 511 785 b 543 744 532 774 542 761 b 533 708 543 732 540 721 z m 822 581 b 814 568 818 578 815 574 l 814 561 b 831 547 815 551 821 547 b 865 568 842 547 858 561 b 933 699 894 594 921 643 b 908 881 944 754 942 819 b 850 947 901 896 868 947 b 839 942 846 947 842 946 b 838 917 832 936 831 924 b 876 864 854 900 867 882 b 899 706 906 810 908 754 b 822 581 888 665 864 603 z m 794 967 b 814 947 794 954 801 947 b 832 967 826 947 832 954 b 814 985 832 979 826 985 b 794 967 801 985 794 979 z "},"S":{"ha":1028,"x_min":0,"x_max":0,"o":"m 215 969 b 200 733 165 869 165 796 b 385 585 235 674 300 628 b 501 460 425 563 494 511 b 496 435 504 449 503 440 b 463 421 489 425 475 421 b 363 472 433 421 400 446 b 207 542 314 506 267 542 b 35 406 126 542 64 475 b 17 258 14 357 8 308 b 481 -3 50 74 314 -3 b 844 174 635 -3 750 50 b 890 644 997 378 919 586 b 1014 842 926 667 1010 735 b 594 1150 1018 1060 781 1150 b 215 969 458 1150 282 1101 z m 207 506 b 463 385 304 506 383 381 b 524 411 485 385 508 394 b 538 467 536 425 540 443 b 401 617 526 531 453 590 b 232 751 322 657 261 697 b 247 953 203 803 204 865 b 594 1114 311 1072 467 1114 b 978 843 757 1114 982 1040 b 868 672 978 749 896 689 b 608 836 821 733 692 836 b 849 647 701 803 793 726 l 851 642 b 893 517 872 603 886 561 b 844 238 908 440 906 343 b 481 33 761 97 643 33 b 53 264 339 33 83 96 b 67 392 43 308 51 353 b 207 506 89 447 142 506 z m 483 85 b 499 65 482 74 486 67 b 531 63 508 64 519 63 b 843 321 681 63 803 182 b 831 343 844 332 840 339 b 808 331 821 343 810 343 b 531 99 775 206 664 99 l 518 99 b 504 100 514 99 508 99 b 483 85 494 101 488 97 z m 844 399 b 825 379 832 399 825 392 b 844 361 825 367 832 361 b 863 379 857 361 863 367 b 844 399 863 392 857 399 z "},"T":{"ha":1214,"x_min":0,"x_max":0,"o":"m 758 125 b 815 553 790 243 811 483 b 954 543 843 549 899 543 b 1076 558 999 543 1043 547 b 1182 742 1125 575 1164 653 b 1183 988 1203 826 1204 925 l 1182 990 b 613 1147 1128 1138 740 1147 b 76 1060 518 1147 136 1135 b 46 1006 65 1047 56 1028 b 14 801 25 950 10 874 b 282 567 21 618 115 567 b 397 579 319 567 358 571 b 342 58 369 472 272 139 b 521 0 382 11 463 0 b 738 72 585 0 697 17 b 758 125 744 83 751 101 z m 772 464 b 708 93 761 335 740 136 b 519 36 679 50 571 36 b 368 82 474 36 401 44 b 440 596 303 153 429 569 b 504 704 451 629 469 665 b 418 621 472 694 440 664 b 281 603 374 608 326 603 b 107 644 233 603 147 613 b 79 992 33 707 38 890 b 146 1058 99 1033 101 1043 b 613 1111 268 1103 475 1111 b 1149 978 733 1111 1104 1099 l 1149 976 b 1147 749 1169 919 1165 831 b 1064 592 1131 671 1101 604 b 956 579 1035 582 996 579 b 808 589 893 579 831 585 b 751 707 801 643 783 686 b 782 588 778 658 782 619 z m 74 861 b 88 840 72 849 76 842 b 108 854 97 840 104 839 b 157 994 111 874 135 990 b 486 1036 268 1024 374 1036 b 504 1054 499 1036 504 1042 b 488 1072 506 1064 497 1072 b 147 1029 372 1072 258 1058 b 97 960 125 1022 110 994 b 74 861 88 928 79 893 z m 540 1074 b 521 1054 528 1074 521 1067 b 540 1036 521 1042 528 1036 b 558 1054 553 1036 558 1042 b 540 1074 558 1067 553 1074 z "},"U":{"ha":1136,"x_min":0,"x_max":0,"o":"m 211 1038 b 69 794 154 983 107 899 b 13 433 31 683 8 554 b 226 56 19 282 67 111 b 600 0 344 13 474 0 b 810 32 672 0 743 6 b 1107 415 981 100 1069 247 b 1074 918 1142 582 1124 767 b 1006 1035 1058 967 1046 1001 b 864 1083 967 1067 914 1083 b 701 1010 801 1083 742 1058 b 669 596 601 888 640 722 b 679 436 688 518 701 457 b 540 385 644 407 585 385 b 486 413 518 385 493 389 b 494 483 479 429 482 453 b 567 710 517 543 546 626 l 569 717 b 569 999 592 796 619 924 b 365 1090 529 1061 438 1090 b 211 1038 308 1090 251 1075 z m 238 92 b 143 151 199 107 167 126 b 49 435 81 218 53 319 b 104 783 44 551 65 674 b 236 1011 138 879 182 963 b 364 1054 268 1043 315 1054 b 529 992 421 1054 489 1035 b 532 718 588 929 550 781 b 461 494 511 639 483 556 b 451 403 446 456 444 425 b 464 379 454 393 458 385 b 369 401 435 383 403 390 b 526 349 424 367 475 353 b 786 496 638 349 726 406 l 756 474 b 724 451 746 467 735 458 b 704 604 731 490 719 543 b 729 988 678 725 640 876 b 864 1047 763 1028 813 1047 b 1022 954 926 1047 996 1017 b 1032 931 1026 947 1029 939 l 1040 906 b 1071 422 1089 761 1104 582 b 797 65 1038 265 953 131 b 603 36 735 39 668 36 b 238 92 507 36 350 44 z m 151 715 b 378 994 185 833 238 976 b 374 1031 401 999 396 1031 b 117 725 213 1013 157 858 b 129 703 115 713 119 706 b 135 701 131 703 133 701 b 151 715 143 701 149 706 z m 117 690 b 99 672 104 690 99 685 b 117 653 99 660 104 653 b 136 672 129 653 136 660 b 117 690 136 685 129 690 z "},"V":{"ha":1171,"x_min":0,"x_max":0,"o":"m 136 392 b 475 14 201 229 308 65 b 556 0 501 4 529 0 b 664 35 599 0 635 11 b 928 415 710 69 821 235 b 1151 850 1024 578 1118 754 b 1156 939 1161 882 1163 911 b 949 1089 1133 1029 1040 1089 b 731 906 844 1089 778 989 b 597 572 671 801 626 668 b 351 1053 554 703 426 1032 l 350 1054 b 293 1061 332 1058 313 1061 b 18 889 185 1061 56 996 l 18 886 b 75 551 -4 824 28 688 b 136 392 93 500 114 447 z m 149 986 b 293 1025 193 1010 247 1025 b 339 1019 310 1025 326 1024 l 342 1019 b 567 551 407 997 522 674 b 604 332 585 508 608 417 b 617 501 619 371 624 442 l 618 506 b 914 1050 646 628 772 1015 b 949 1053 925 1051 938 1053 b 1121 931 1021 1053 1106 1006 b 1117 861 1126 910 1125 886 b 897 433 1083 768 993 596 b 642 63 794 257 682 96 b 556 36 618 44 590 36 b 300 175 460 36 360 104 b 110 563 228 263 150 447 b 51 875 61 696 36 819 l 53 878 b 149 986 68 924 104 960 z m 189 549 b 114 804 151 632 114 743 b 96 822 114 817 108 822 b 78 804 83 822 78 817 b 188 461 78 714 150 547 b 204 451 192 454 197 451 b 213 453 208 451 211 451 b 221 476 222 457 225 465 b 189 549 211 496 201 519 z m 228 440 b 218 438 226 440 224 439 b 213 411 208 431 206 422 b 228 403 215 406 221 403 b 238 406 232 403 236 404 b 244 431 249 413 251 421 b 228 440 240 438 235 440 z "},"W":{"ha":1576,"x_min":0,"x_max":0,"o":"m 511 607 b 521 461 518 561 522 510 b 540 638 536 500 544 576 b 785 1010 579 726 690 965 b 815 1017 793 1014 803 1017 b 921 911 858 1017 893 971 b 982 718 949 853 968 778 l 994 661 b 1006 615 999 643 1001 628 l 1024 542 l 1047 644 b 1233 1031 1064 735 1143 1008 l 1238 1032 b 1304 1039 1261 1036 1283 1039 b 1526 960 1356 1039 1511 1013 b 1472 663 1533 935 1506 808 b 1354 246 1435 503 1383 328 b 1104 39 1310 129 1238 39 b 878 211 1024 39 925 153 l 876 214 b 749 413 826 275 782 340 b 789 281 750 379 765 329 b 485 35 774 251 650 35 b 299 100 419 35 349 61 b 179 324 217 164 206 235 b 172 347 178 331 175 339 l 164 372 b 76 1008 103 585 -10 974 b 219 1035 121 1026 168 1035 b 396 983 272 1035 364 1024 b 492 693 425 950 469 781 l 525 706 b 424 1007 503 797 457 969 b 219 1071 383 1054 282 1071 b 64 1042 165 1071 113 1061 b 144 314 -60 990 83 518 b 164 247 151 290 158 268 b 276 72 185 181 210 124 b 485 -1 333 28 413 -1 b 808 242 649 -1 768 175 b 822 224 813 236 817 231 b 1106 3 875 149 1008 3 b 1388 232 1257 3 1336 100 b 1507 654 1421 315 1469 494 b 1561 968 1543 804 1568 938 b 1304 1075 1539 1042 1375 1075 b 1229 1067 1278 1075 1253 1072 l 1224 1065 b 1024 697 1126 1039 1057 817 b 818 1054 993 832 933 1054 b 660 936 751 1054 693 988 b 528 697 622 882 579 808 b 540 638 535 681 536 660 b 539 635 539 636 539 636 l 517 586 l 511 607 b 493 689 507 640 500 668 b 501 651 497 674 500 661 z m 81 943 b 85 807 74 911 75 861 b 129 610 94 736 114 660 b 146 597 132 601 138 597 b 164 614 158 597 164 603 l 164 621 b 119 813 149 669 129 744 b 115 935 113 863 110 907 b 164 965 121 956 143 961 b 235 969 183 968 207 969 b 253 988 247 969 253 975 b 235 1006 253 1000 247 1006 b 81 943 183 1006 96 1006 z m 153 578 b 147 551 143 571 140 563 b 164 543 151 546 157 543 b 172 546 168 543 171 544 b 179 571 183 553 186 561 b 164 581 176 578 171 581 b 153 578 160 581 156 579 z "},"X":{"ha":1403,"x_min":0,"x_max":0,"o":"m 508 17 b 729 210 597 56 675 139 b 1036 10 804 128 917 10 b 1238 172 1132 10 1215 79 b 1042 469 1249 242 1088 421 b 1078 510 1051 479 1063 492 l 1088 519 b 1096 529 1090 522 1093 525 b 1388 956 1200 650 1404 886 b 1124 1135 1369 1051 1215 1135 b 707 796 999 1135 767 911 b 349 1113 631 888 464 1086 b 293 1119 331 1118 311 1119 b 17 919 172 1119 58 1032 b 207 564 -12 838 104 681 b 338 426 264 499 317 447 b 188 138 301 372 183 193 b 415 -4 192 39 331 -4 b 508 17 447 -4 478 3 z m 460 1007 b 571 897 497 975 536 936 b 696 751 613 853 654 804 l 715 726 l 728 756 b 1124 1099 767 857 1006 1099 b 1353 949 1196 1099 1338 1026 b 1021 499 1364 882 1093 576 b 904 400 986 465 942 428 b 1007 454 931 410 969 428 b 1203 178 1033 428 1214 238 b 1036 46 1188 103 1108 46 b 742 250 931 46 801 171 l 726 268 l 714 249 b 417 31 647 160 535 31 b 265 75 363 31 308 43 b 224 144 242 93 224 113 b 368 406 228 189 332 351 b 518 331 417 371 481 342 b 349 465 457 369 400 415 l 342 474 b 207 617 328 481 222 597 b 51 907 117 722 29 844 b 293 1085 85 1004 189 1085 b 354 1075 314 1085 333 1082 b 460 1007 386 1064 422 1039 z m 99 871 b 88 849 86 867 83 860 b 297 556 110 769 235 622 b 310 550 300 551 304 550 b 322 554 315 550 319 551 b 324 581 331 563 331 571 b 121 860 268 639 143 785 b 104 872 117 868 111 872 b 99 871 101 872 100 872 z m 331 536 b 332 522 329 532 329 526 b 349 513 336 515 342 513 b 358 515 351 513 354 514 b 365 542 368 522 369 531 b 349 550 361 547 356 550 b 339 547 346 550 343 549 b 331 536 335 544 332 540 z "},"Y":{"ha":1301,"x_min":0,"x_max":0,"o":"m 363 -100 b 571 -171 422 -140 506 -171 b 644 -153 600 -171 624 -165 b 1090 564 694 -125 1018 436 b 1117 608 1100 579 1110 594 b 1288 1004 1219 793 1299 954 b 968 1210 1261 1122 1082 1214 b 906 1199 946 1210 925 1206 b 615 751 788 1149 647 871 b 186 1031 533 829 319 1031 b 22 926 115 1031 50 993 b 14 822 10 894 4 860 b 58 732 19 792 35 761 b 414 419 151 617 349 467 b 307 -57 381 364 231 14 b 363 -100 322 -72 342 -86 z m 357 929 b 613 710 472 851 590 728 b 629 547 611 656 619 596 b 649 726 633 607 639 678 b 925 1165 671 835 821 1121 b 981 1175 942 1172 960 1175 b 1251 1003 1071 1175 1229 1100 b 1117 689 1258 967 1201 839 b 1057 585 1099 656 1078 622 l 1026 532 b 619 -122 869 264 658 -100 b 564 -136 604 -132 586 -136 b 331 -35 485 -136 386 -86 b 440 383 275 15 397 294 l 461 425 l 446 436 b 304 546 397 472 350 508 b 86 750 226 608 138 685 b 50 822 67 774 54 799 b 57 908 43 853 46 882 b 194 996 81 964 135 996 b 357 929 239 996 297 968 z m 1071 706 b 1197 1010 1115 781 1197 932 b 1179 1031 1199 1019 1190 1026 b 1161 1017 1167 1031 1161 1026 b 1038 728 1157 944 1078 789 b 1046 703 1032 718 1035 710 b 1058 699 1050 700 1054 699 b 1071 706 1064 699 1068 701 z m 1007 686 b 1021 661 1003 676 1011 665 l 1031 658 b 1046 669 1038 658 1043 663 b 1032 694 1050 679 1042 689 b 1022 696 1031 696 1026 696 b 1007 686 1015 696 1010 693 z "},"Z":{"ha":1244,"x_min":0,"x_max":0,"o":"m 560 1121 b 476 1122 525 1122 497 1122 b 14 908 319 1122 36 1117 b 50 746 7 846 29 785 b 272 568 88 672 182 568 b 285 569 278 568 282 568 l 292 571 b 396 590 329 575 364 583 b 167 186 311 506 133 303 b 668 -6 211 26 517 -6 b 1208 182 800 -6 1168 22 b 1167 481 1254 360 1233 446 b 1060 501 1138 496 1103 501 b 913 488 1017 501 967 494 b 1079 828 964 568 1042 710 b 1075 1040 1108 918 1118 997 b 560 1121 1028 1088 728 1111 z m 532 683 b 447 642 503 667 475 653 b 271 604 403 631 317 604 b 82 761 197 604 111 703 b 49 904 64 799 43 850 b 474 1088 67 1083 335 1088 b 1050 1015 589 1088 1001 1064 b 1046 839 1079 983 1072 918 b 888 515 1008 728 935 596 b 885 508 886 511 886 513 b 863 474 875 496 869 483 l 846 446 b 751 339 819 411 789 372 b 885 447 792 360 847 401 b 1061 465 951 457 1011 465 b 1149 449 1096 465 1126 461 b 1174 190 1200 422 1214 349 b 669 29 1139 60 788 29 b 201 196 554 29 240 51 b 292 417 186 251 232 339 b 453 597 350 494 418 565 l 469 614 b 608 739 517 640 581 692 b 532 683 585 718 560 700 z m 485 1019 b 504 1035 496 1018 503 1022 b 488 1054 504 1044 497 1054 b 394 1058 460 1057 429 1058 b 292 1051 361 1058 326 1057 l 279 1050 b 81 886 189 1036 81 990 b 93 810 79 860 83 831 b 110 799 96 803 101 799 b 117 801 113 799 115 800 b 126 825 126 806 131 815 b 115 885 119 842 115 861 b 285 1015 119 971 211 1004 l 292 1015 b 394 1022 326 1021 361 1022 b 485 1019 426 1022 457 1021 z m 528 1043 b 533 1017 521 1032 524 1024 b 543 1014 538 1015 540 1014 b 560 1022 550 1014 556 1017 b 553 1049 567 1033 564 1042 b 543 1051 551 1050 547 1051 b 528 1043 536 1051 531 1049 z "},"a":{"ha":932,"x_min":0,"x_max":0,"o":"m 333 800 b 21 418 178 732 57 583 b 39 161 0 331 6 244 b 290 0 83 54 175 0 b 568 122 392 1 500 46 b 733 15 596 56 663 15 b 915 154 808 15 901 78 b 917 178 918 161 918 169 b 804 388 906 235 854 350 b 583 825 815 451 842 769 b 497 835 554 832 525 835 b 333 800 440 835 385 824 z m 114 556 b 497 799 193 692 336 799 b 575 790 524 799 549 796 b 772 407 786 744 781 489 l 765 368 l 778 363 b 882 172 818 340 875 217 b 881 161 882 168 882 164 b 733 51 869 101 793 51 b 593 164 667 51 604 96 b 640 311 619 214 635 274 b 586 206 622 274 607 238 l 561 169 b 290 36 503 89 390 36 b 72 175 190 36 111 81 b 56 411 40 251 38 332 b 114 556 67 461 86 510 z m 392 322 b 493 446 446 326 489 396 b 488 494 494 464 493 481 b 422 540 478 518 457 536 b 290 439 357 540 313 496 l 289 436 b 282 394 285 424 282 410 b 392 322 286 335 342 322 z m 176 90 b 279 54 207 71 242 58 b 290 56 283 53 286 54 b 299 69 296 58 299 63 b 290 88 300 76 297 83 b 283 89 289 88 288 89 b 135 186 221 99 167 129 b 108 351 108 235 101 292 b 111 368 110 357 110 363 b 103 386 113 378 110 383 b 93 389 101 388 97 389 b 74 357 76 389 74 369 b 103 168 64 290 71 224 b 176 90 121 135 146 108 z m 419 504 b 454 481 440 503 449 493 b 457 450 457 471 458 461 b 389 358 453 415 426 363 l 388 358 b 318 396 361 358 319 363 b 319 410 317 400 318 406 l 324 424 b 388 499 340 469 367 489 b 408 504 396 501 403 503 z m 103 443 b 88 435 96 443 90 440 b 93 408 81 424 83 415 b 103 406 97 407 100 406 b 119 414 110 406 115 408 b 114 440 126 425 124 433 b 103 443 108 442 104 443 z "},"b":{"ha":1001,"x_min":0,"x_max":0,"o":"m 454 1031 b 282 1092 408 1071 339 1092 b 10 638 42 1092 15 822 b 82 135 10 456 40 258 b 251 0 115 35 136 0 b 411 94 342 0 375 7 b 633 21 472 40 554 21 b 890 135 739 21 824 46 b 982 365 942 201 969 288 b 950 585 994 444 982 519 b 658 774 894 696 785 774 b 471 713 592 774 526 750 b 486 981 482 789 506 922 b 454 1031 479 1000 469 1017 z m 517 75 b 418 138 481 88 447 108 l 399 163 l 388 132 b 371 92 382 117 376 104 b 338 46 361 71 349 50 b 254 36 325 42 292 36 b 153 64 225 36 168 38 b 111 163 132 93 121 128 b 46 638 74 282 42 468 b 204 1043 46 758 67 999 b 282 1056 229 1051 256 1056 b 453 968 340 1056 431 1029 b 429 692 471 913 442 744 l 425 674 b 343 531 388 629 358 569 b 426 635 371 569 394 603 l 454 657 b 506 693 472 672 489 683 l 507 694 b 658 738 553 721 604 738 b 918 568 771 738 869 668 b 947 371 946 511 958 442 b 633 56 914 188 832 56 b 517 75 592 56 553 63 z m 514 389 b 507 349 508 372 506 358 b 600 281 511 300 557 281 b 606 282 603 281 604 281 l 608 282 b 704 397 658 286 700 347 b 699 442 706 414 704 429 b 638 485 689 465 671 481 b 514 389 578 485 535 443 z m 79 603 b 86 486 79 567 82 528 b 106 469 86 476 96 468 b 111 471 107 469 110 471 b 121 489 119 475 122 482 b 119 700 111 571 114 640 b 156 892 129 815 154 885 b 146 915 160 901 156 911 b 139 917 142 915 143 917 b 122 904 132 917 126 913 b 83 704 101 839 90 771 b 79 603 81 672 79 639 z m 542 350 b 606 443 542 383 574 432 b 635 450 621 450 631 450 b 665 429 650 447 661 440 b 668 400 668 419 669 410 b 600 317 664 367 640 317 b 564 324 589 317 576 319 b 542 350 550 328 543 338 z m 94 443 b 101 418 88 433 90 425 b 111 415 103 417 107 415 b 126 424 118 415 124 418 b 121 450 132 433 131 444 b 111 453 117 451 114 453 b 94 443 104 453 99 450 z "},"c":{"ha":739,"x_min":0,"x_max":0,"o":"m 46 607 b 13 435 22 556 11 497 b 401 0 19 218 171 0 b 704 186 532 0 649 68 b 686 401 747 281 729 353 b 529 469 647 446 589 469 b 394 404 475 469 424 450 b 392 432 393 414 392 422 b 429 543 390 471 397 519 b 540 503 456 510 503 503 b 700 617 624 503 678 533 b 707 707 710 649 711 679 b 686 772 704 736 697 758 b 453 857 638 828 525 857 b 46 607 268 857 111 761 z m 74 582 b 149 699 92 626 117 665 b 446 821 226 781 335 817 l 447 821 b 658 750 508 821 618 801 b 671 704 664 740 669 725 b 665 626 675 681 672 653 b 538 539 644 556 603 539 b 467 556 499 539 478 546 b 454 571 460 560 456 565 l 450 593 l 429 585 b 390 554 414 578 401 567 b 356 431 363 521 354 471 b 379 360 357 410 361 375 b 369 253 369 326 365 288 b 390 322 376 276 383 300 b 529 433 417 388 456 433 b 660 378 578 433 628 415 b 672 201 693 339 707 279 b 401 36 625 96 515 36 b 49 435 190 36 56 242 b 74 582 47 488 56 536 z m 78 510 b 90 489 74 500 81 490 b 96 488 92 488 93 488 b 113 500 106 488 111 492 b 390 753 151 633 247 736 l 394 753 b 410 772 407 754 411 761 b 390 788 410 782 400 789 b 78 510 232 772 122 660 z m 446 794 b 429 785 439 794 433 792 b 436 760 422 775 425 767 b 446 757 438 758 442 757 b 461 765 453 757 458 760 b 456 792 467 775 465 786 b 446 794 451 793 449 794 z "},"d":{"ha":1051,"x_min":0,"x_max":0,"o":"m 843 1038 b 613 739 653 1038 619 899 b 419 818 581 782 525 818 b 72 610 271 818 144 733 b 14 374 32 539 10 461 b 336 0 21 194 138 0 b 622 97 436 0 539 43 b 783 6 643 68 706 6 b 1039 585 992 6 1039 419 b 843 1038 1039 714 1013 1038 z m 690 931 b 843 1001 722 985 772 1001 b 1004 585 982 1001 1004 689 b 783 42 1004 456 965 42 b 649 122 717 42 668 99 b 696 283 692 165 703 224 b 611 132 679 226 660 169 b 338 36 535 81 432 36 b 50 375 160 36 57 214 b 93 574 46 447 61 514 b 418 783 156 696 281 783 b 611 646 571 783 604 694 l 611 625 b 633 608 611 614 624 608 b 649 621 643 608 649 613 l 649 632 b 647 650 649 636 649 643 b 690 931 643 789 658 876 z m 460 507 b 419 521 450 514 436 519 b 288 383 347 521 288 454 b 388 317 292 333 343 317 l 390 317 b 486 432 440 321 482 382 b 481 476 488 450 486 464 b 460 507 476 489 469 499 z m 207 618 b 381 713 251 668 308 703 b 388 715 385 714 383 714 b 396 733 394 721 397 726 b 375 749 393 743 386 749 b 86 443 218 726 115 593 b 93 425 85 436 86 429 b 104 422 97 424 100 422 b 121 438 114 422 119 428 b 207 618 133 504 163 568 z m 324 386 b 329 411 324 394 325 403 b 417 485 344 450 372 485 b 447 464 432 483 443 476 b 450 436 450 454 451 446 b 382 353 446 403 421 353 b 346 360 371 353 358 356 b 324 386 332 364 325 372 z m 93 406 b 78 397 86 406 81 403 b 83 371 72 388 74 376 b 93 368 88 369 90 368 b 110 378 100 368 106 371 b 103 403 117 388 114 396 b 93 406 101 404 97 406 z "},"e":{"ha":825,"x_min":0,"x_max":0,"o":"m 249 836 b 93 708 188 813 136 774 b 10 433 44 631 15 533 b 86 129 4 321 26 211 b 363 0 151 40 257 0 b 693 185 500 0 651 35 b 678 306 708 239 699 278 b 549 358 649 346 597 358 b 369 296 488 358 413 339 b 365 414 354 322 331 372 b 404 403 378 410 392 406 b 571 376 458 386 514 376 b 769 469 654 376 724 392 b 811 643 801 524 813 592 b 449 867 810 817 590 867 b 249 836 376 867 308 858 z m 199 771 b 449 832 263 817 369 832 b 776 643 567 832 774 793 b 739 488 776 597 767 536 b 571 413 700 422 642 413 b 426 433 522 413 472 421 b 368 454 389 443 368 453 b 251 549 322 475 281 506 b 333 432 267 500 293 458 b 322 314 306 393 310 349 b 353 254 329 293 339 274 l 368 233 l 382 256 b 549 322 411 300 493 322 b 650 285 583 322 626 317 b 658 194 665 264 669 235 b 363 36 625 64 479 36 b 93 185 251 36 147 85 b 46 431 56 256 40 342 b 196 768 53 549 96 694 z m 578 613 b 557 647 574 625 567 636 b 474 690 542 665 517 685 b 447 692 464 690 457 692 b 372 654 415 692 388 683 b 365 617 367 642 364 629 b 481 513 367 546 414 513 b 560 540 508 513 539 519 b 578 613 579 558 585 583 z m 224 140 b 160 201 199 157 178 178 b 110 369 125 250 108 307 b 93 388 111 379 103 388 b 75 371 83 389 75 381 b 93 250 74 326 79 286 b 294 68 128 157 201 96 b 317 81 304 68 313 69 b 304 103 321 92 317 99 b 224 140 275 111 247 124 z m 400 618 b 447 656 400 650 418 656 b 544 601 485 656 529 640 b 536 565 549 586 546 575 b 475 549 519 550 496 549 l 474 549 b 400 618 425 551 401 575 z m 78 435 b 83 408 72 425 74 414 b 93 406 88 407 90 406 b 110 415 100 406 106 408 b 104 440 115 425 114 436 b 93 443 101 442 97 443 b 78 435 86 443 81 440 z "},"f":{"ha":865,"x_min":0,"x_max":0,"o":"m 513 489 b 500 549 506 507 501 528 b 513 546 503 549 507 547 b 649 526 557 533 603 526 b 808 642 732 526 786 558 b 813 726 817 669 818 697 b 503 896 786 849 614 896 b 211 718 375 896 263 840 b 188 494 182 650 176 571 b 14 328 81 488 22 432 b 28 232 10 290 14 258 b 176 156 57 169 114 156 b 288 179 232 156 267 169 b 324 107 303 156 314 133 b 240 136 303 122 275 136 b 65 33 169 136 97 99 b 47 -67 51 4 46 -29 b 303 -310 54 -200 167 -310 b 672 -4 471 -310 657 -181 b 626 172 676 51 664 111 b 681 167 644 168 663 167 b 843 279 757 167 822 206 b 847 360 851 306 853 333 b 653 492 825 453 740 492 b 532 444 588 492 553 465 b 513 489 525 456 519 471 z m 647 563 b 375 685 546 563 436 600 b 464 567 390 633 421 593 b 490 447 463 518 475 479 b 508 415 497 432 503 422 b 517 403 511 411 514 407 l 533 379 l 546 406 b 568 431 551 415 558 424 b 651 456 585 443 611 456 b 811 351 721 456 796 426 b 810 290 817 332 817 311 b 681 203 792 231 740 203 b 590 219 654 203 624 207 l 531 242 l 569 192 b 636 -1 624 125 642 58 b 303 -275 625 -158 451 -275 b 83 -64 185 -275 90 -179 b 97 18 82 -33 86 -6 b 240 100 124 72 183 100 b 336 43 278 100 315 75 l 368 -8 l 368 53 b 310 213 368 115 342 163 l 299 231 l 282 217 b 258 204 275 213 268 208 b 178 192 242 199 215 192 b 60 247 129 192 83 197 b 49 325 50 271 46 296 b 208 460 58 425 113 460 l 229 458 l 226 481 b 244 704 211 557 215 636 b 503 861 290 811 390 861 b 778 719 590 861 756 824 b 775 651 782 699 781 675 b 647 563 754 581 713 563 z m 581 51 b 376 -207 579 -78 499 -172 b 365 -229 367 -211 363 -218 b 382 -242 367 -237 372 -242 b 490 -193 404 -242 472 -208 b 617 51 572 -136 615 -49 b 599 69 617 64 611 69 b 581 51 586 69 581 64 z m 311 -226 b 317 -253 306 -236 307 -247 b 326 -256 321 -254 324 -256 b 343 -246 333 -256 339 -253 b 336 -221 350 -236 347 -228 b 326 -218 335 -219 331 -218 b 311 -226 319 -218 314 -221 z "},"g":{"ha":983,"x_min":0,"x_max":0,"o":"m 503 849 b 375 874 463 865 421 874 b 18 561 169 874 51 757 b 29 338 6 482 8 408 b 346 119 74 178 189 119 b 590 189 429 119 519 146 b 483 -8 586 122 575 -8 b 378 40 449 -8 413 17 b 346 61 367 47 356 54 b 253 96 314 82 285 96 b 111 -49 182 96 118 18 b 133 -146 108 -81 115 -112 b 504 -344 200 -272 365 -344 b 961 206 821 -344 939 -62 b 806 907 983 475 913 771 b 678 960 778 944 728 960 b 503 849 607 960 518 926 z m 375 838 b 510 806 424 838 467 828 l 539 790 l 536 822 b 568 889 535 850 547 874 b 678 924 600 915 639 924 b 778 885 718 924 757 911 b 925 208 881 756 947 469 b 504 -308 903 -49 794 -308 b 165 -129 381 -308 225 -244 b 146 -51 151 -103 144 -76 b 254 57 150 -1 203 57 b 346 18 286 57 314 39 b 357 11 350 17 354 15 b 483 -44 397 -17 438 -44 b 597 39 543 -44 576 -12 b 629 222 618 85 624 149 l 629 225 b 715 360 669 268 700 322 b 563 214 665 300 624 249 b 336 156 492 175 414 156 b 64 347 197 156 101 210 b 54 556 46 410 42 485 b 375 838 86 735 188 838 z m 444 543 b 381 589 435 569 413 585 b 247 486 315 589 269 546 b 240 443 242 468 239 454 b 349 372 244 386 300 372 b 450 496 404 376 446 443 b 444 543 453 514 451 531 z m 78 485 b 94 361 76 442 82 400 b 113 349 97 353 103 349 b 118 350 114 349 117 349 b 129 372 128 354 132 361 b 133 596 107 443 110 525 b 247 739 154 661 193 715 b 257 763 258 743 261 751 b 240 774 254 769 249 774 b 233 771 239 774 238 772 b 99 607 168 743 125 681 b 78 485 86 568 79 528 z m 378 554 b 411 531 396 551 407 543 b 415 499 415 521 417 511 b 347 407 411 465 385 411 l 346 407 b 276 444 319 407 278 411 b 281 474 275 453 276 463 b 378 554 296 517 329 554 z m 276 786 b 282 760 271 776 272 765 b 292 757 286 758 289 757 b 308 767 299 757 304 760 b 301 792 315 776 313 785 b 292 794 300 793 296 794 b 276 786 285 794 279 792 z "},"h":{"ha":947,"x_min":0,"x_max":0,"o":"m 386 44 b 413 89 394 56 403 71 b 446 382 454 167 450 335 b 529 396 474 393 500 396 b 607 25 524 322 503 58 b 708 10 640 14 674 10 b 893 106 776 10 871 33 b 913 629 938 249 939 489 b 647 843 890 758 776 843 b 446 761 571 843 500 815 b 456 1122 461 850 481 1076 b 257 1200 426 1178 319 1200 b 103 1136 201 1200 136 1185 b 39 794 74 1092 50 917 b 17 306 21 631 13 431 b 219 3 17 167 50 10 l 231 3 b 242 1 235 3 238 3 b 293 0 263 1 278 0 b 386 44 335 0 361 8 z m 401 171 b 381 104 397 144 390 122 b 285 36 350 47 332 36 b 103 96 217 36 149 36 b 53 307 71 139 54 203 b 74 790 49 429 56 628 b 132 1115 85 904 107 1079 b 257 1164 158 1154 214 1164 b 424 1106 297 1164 401 1146 b 403 724 446 1056 417 808 l 399 697 l 378 599 l 431 685 b 647 807 479 763 557 807 b 876 622 760 807 858 738 b 858 117 903 488 899 253 b 708 46 843 60 757 46 b 618 58 678 46 647 50 b 565 400 536 86 560 340 b 706 375 614 396 660 385 b 569 429 663 403 618 419 l 561 429 b 524 432 549 431 536 432 l 511 432 b 499 431 507 432 503 432 b 285 297 408 424 333 371 b 410 379 328 336 369 363 b 401 171 413 342 413 246 z m 93 646 b 92 526 92 608 90 568 b 110 510 92 515 97 510 b 128 528 122 510 128 515 b 138 746 124 607 131 681 b 178 953 153 867 174 946 b 167 976 182 963 176 972 b 161 978 165 976 163 978 b 144 965 154 978 149 974 b 103 750 140 958 118 872 b 93 646 99 718 94 683 z m 97 479 b 103 453 90 468 93 460 b 113 450 107 451 110 450 b 129 458 119 450 125 453 b 122 485 136 469 133 478 b 113 488 118 486 115 488 b 97 479 106 488 100 485 z "},"i":{"ha":369,"x_min":0,"x_max":0,"o":"m 24 671 b 14 315 13 581 8 440 b 74 47 21 190 38 81 b 185 0 103 19 142 0 b 276 40 221 0 251 14 l 279 43 b 356 447 354 129 356 342 b 332 738 356 574 343 689 b 186 850 314 806 257 849 b 35 739 115 850 56 807 b 24 671 31 724 26 701 z m 49 317 b 69 729 42 481 54 671 b 186 814 85 783 132 814 b 297 728 240 813 282 782 b 319 447 310 682 319 569 b 299 172 321 351 314 250 b 185 36 288 113 256 36 b 97 74 151 36 121 53 b 49 317 69 101 56 201 z m 15 963 b 158 867 19 888 97 867 b 303 1038 239 874 296 961 b 294 1103 304 1061 304 1082 b 208 1165 279 1140 249 1160 b 25 1021 119 1165 57 1103 b 15 963 17 1000 14 981 z m 63 932 b 50 964 56 940 51 951 b 58 1008 50 976 53 990 b 206 1129 82 1071 135 1129 b 261 1090 238 1125 251 1111 b 267 1042 267 1078 268 1061 b 161 903 263 990 218 907 l 158 903 b 63 932 128 903 85 907 z m 196 781 b 204 757 192 771 194 761 b 263 401 269 724 269 608 l 261 372 b 276 354 261 363 267 356 b 297 372 288 354 297 360 l 297 401 b 276 728 301 557 306 663 b 213 792 269 749 236 792 b 196 781 206 792 200 788 z m 261 331 b 267 304 254 319 257 311 b 276 301 268 303 272 301 b 293 310 283 301 289 304 b 286 336 300 321 297 329 b 276 339 282 338 279 339 b 261 331 269 339 264 336 z "},"j":{"ha":910,"x_min":0,"x_max":0,"o":"m 485 169 b 465 75 481 133 475 101 b 381 0 450 29 425 0 b 274 49 343 0 311 25 b 149 104 233 76 192 104 b 7 -40 78 104 14 26 b 29 -137 4 -72 11 -104 b 404 -336 96 -267 265 -336 b 881 224 725 -336 858 -53 b 754 840 899 458 847 703 b 563 931 706 911 646 931 b 214 757 454 931 258 872 b 197 669 201 725 197 696 b 354 492 197 586 267 492 b 472 508 414 493 438 499 b 489 399 479 471 485 433 b 493 285 493 356 497 318 b 485 169 492 243 489 204 z m 463 -4 b 504 76 481 18 494 44 b 529 282 519 132 524 203 b 525 403 531 318 529 358 b 504 529 519 443 514 486 b 618 628 553 558 594 600 b 504 561 578 601 542 579 b 354 528 450 538 410 529 b 233 669 288 528 233 607 b 247 744 233 693 238 718 b 563 894 283 843 472 894 b 754 771 669 894 708 857 b 846 226 824 636 864 424 b 403 -300 824 -39 701 -300 b 61 -121 276 -300 124 -237 b 43 -43 46 -93 40 -67 b 150 65 47 7 99 65 b 254 19 188 65 219 42 b 381 -36 294 -8 335 -36 b 463 -4 417 -36 444 -25 z m 504 958 b 647 1129 586 965 640 1051 b 639 1194 650 1153 647 1175 b 554 1256 626 1226 600 1250 b 369 1111 464 1256 401 1194 b 360 1054 361 1090 358 1071 b 504 958 364 979 442 958 z m 504 994 b 396 1056 463 994 400 1003 b 403 1099 394 1067 397 1081 b 551 1221 426 1164 479 1221 b 607 1182 581 1217 597 1203 b 611 1133 613 1167 614 1150 b 507 994 607 1078 564 999 z m 613 -171 b 442 -235 567 -210 510 -235 l 425 -235 b 406 -233 418 -235 413 -235 b 385 -249 393 -232 386 -236 b 401 -268 385 -258 392 -268 b 422 -271 408 -269 415 -271 l 442 -271 b 747 -26 592 -271 699 -164 b 738 -3 751 -17 747 -7 b 714 -14 728 -3 718 -3 b 613 -171 692 -75 657 -131 z m 738 50 b 744 24 733 40 735 29 b 754 21 749 22 751 21 b 771 31 761 21 767 24 b 764 56 776 40 774 51 b 754 60 761 58 758 60 b 738 50 747 60 742 57 z "},"k":{"ha":881,"x_min":0,"x_max":0,"o":"m 411 896 b 381 1090 406 983 397 1063 b 213 1181 347 1144 275 1181 b 58 1068 139 1181 90 1131 l 58 1065 b 19 467 32 976 13 706 b 104 46 21 378 32 107 b 269 0 147 13 215 0 b 407 50 318 0 375 10 b 426 119 422 68 431 90 l 421 171 l 429 163 b 661 7 481 103 578 7 b 822 179 751 7 818 93 b 817 219 822 196 821 210 b 639 386 799 271 682 354 b 856 654 683 431 815 572 b 868 719 867 675 871 696 b 688 860 861 797 764 860 b 413 647 575 860 468 735 b 411 896 414 710 415 807 z m 421 228 b 353 358 394 263 379 297 b 379 231 357 304 363 265 l 390 115 b 379 72 392 97 389 82 b 269 36 356 40 304 36 b 118 82 231 36 144 47 b 56 467 67 151 56 382 b 92 1054 49 703 67 967 b 150 1125 107 1082 124 1108 l 151 1126 b 215 1144 172 1142 194 1144 b 350 1071 264 1143 324 1114 b 376 611 385 1018 381 710 l 372 501 l 410 569 b 688 824 457 661 572 824 b 833 715 744 824 826 776 b 825 671 835 700 832 686 b 693 499 799 622 743 556 b 599 396 664 464 632 431 l 583 381 l 601 368 b 685 307 632 347 660 326 b 783 207 728 274 774 233 b 786 181 786 199 788 190 b 661 43 786 114 732 43 b 421 228 579 43 469 168 z m 90 672 b 107 654 89 663 97 654 b 125 672 119 654 125 660 l 126 711 b 150 992 131 833 132 929 b 199 1065 160 1031 176 1056 b 207 1089 208 1069 211 1079 b 192 1099 204 1096 199 1099 b 150 1071 176 1099 157 1081 b 104 950 128 1044 113 1004 b 90 713 94 885 94 807 z m 89 619 b 94 594 82 610 85 601 b 104 592 96 593 100 592 b 121 600 111 592 117 594 b 114 626 126 610 124 621 b 104 629 110 628 107 629 b 89 619 97 629 93 626 z "},"l":{"ha":399,"x_min":0,"x_max":0,"o":"m 300 82 b 374 479 358 185 369 363 b 378 529 375 500 376 514 b 375 944 389 663 397 824 b 199 1139 357 1043 311 1139 b 156 1135 186 1139 171 1138 l 136 1128 b 21 933 101 1115 32 1061 b 25 301 14 832 7 531 b 56 111 32 228 43 164 b 111 17 68 58 88 26 b 182 0 138 6 161 0 b 300 82 233 0 272 32 z m 335 394 b 282 125 326 301 315 200 b 178 38 258 74 226 38 b 125 49 160 38 143 42 b 61 304 93 63 72 169 b 57 931 43 531 50 832 b 194 1103 64 1013 104 1103 b 340 938 290 1103 325 1017 b 342 532 363 822 353 663 b 339 481 340 519 340 501 b 335 394 338 454 336 425 z m 303 618 b 321 635 313 617 321 625 b 315 918 328 746 328 840 b 229 1076 304 974 286 1050 b 221 1078 225 1076 225 1078 b 206 1068 214 1078 210 1075 b 214 1043 201 1057 204 1049 b 279 911 247 1026 268 979 b 286 636 292 839 292 746 b 300 618 285 626 290 619 z m 300 557 b 315 567 307 557 313 560 b 310 592 322 576 319 585 b 300 594 308 593 304 594 b 283 586 293 594 288 592 b 290 560 276 575 279 567 b 300 557 294 558 297 557 z "},"m":{"ha":1275,"x_min":0,"x_max":0,"o":"m 557 11 b 614 0 575 4 594 0 b 803 217 749 0 792 100 b 801 413 810 278 807 347 b 831 468 797 440 810 458 b 867 476 842 474 854 476 b 935 449 893 476 917 465 b 956 278 967 417 982 365 b 935 100 933 204 926 144 b 1021 7 944 51 972 21 l 1024 6 b 1082 -3 1044 0 1064 -3 b 1222 85 1144 -3 1190 29 b 1243 164 1229 97 1238 126 b 1251 500 1258 246 1267 378 b 1063 806 1240 615 1199 783 b 996 811 1040 810 1018 811 b 732 692 892 811 803 769 b 533 799 688 757 615 799 b 343 719 463 799 397 768 b 199 822 326 803 275 822 b 18 643 81 822 33 758 b 18 311 7 567 7 429 b 65 61 28 200 43 104 b 194 -1 92 17 144 -1 b 326 82 247 -1 319 21 b 322 175 331 103 326 136 b 397 450 311 282 297 435 b 486 324 464 450 479 379 b 490 122 496 253 492 172 l 490 106 b 508 44 489 82 496 63 b 557 11 521 29 538 18 z m 685 51 b 614 36 667 42 643 36 b 525 104 569 36 525 54 l 526 122 b 521 329 528 171 532 256 b 408 486 510 414 479 486 b 392 485 401 486 396 486 b 286 172 258 467 275 293 b 279 63 292 114 300 81 b 194 33 257 42 221 33 b 97 79 157 33 115 46 b 54 314 76 117 61 208 b 54 639 43 431 43 561 b 199 786 67 738 99 786 b 310 682 271 786 310 761 b 256 522 276 632 267 588 b 326 653 278 582 299 619 l 342 669 b 533 763 392 724 457 763 b 713 656 611 763 675 721 b 676 533 686 615 678 574 b 728 629 697 574 711 603 l 744 650 b 996 775 806 729 894 775 b 1113 747 1036 775 1078 774 b 1217 496 1174 703 1204 606 b 1208 169 1231 379 1224 247 b 1082 33 1197 94 1167 33 b 969 107 1031 33 982 50 b 990 267 963 146 969 199 b 960 474 1022 368 1000 436 b 867 511 935 499 904 511 b 815 500 846 511 829 507 b 765 410 783 485 761 454 b 768 221 771 344 774 281 b 685 51 760 144 742 83 z m 1040 733 b 1050 711 1036 724 1040 715 b 1131 613 1094 694 1115 656 b 1161 369 1149 556 1157 476 b 1181 351 1163 357 1169 351 b 1197 371 1192 353 1197 360 b 1165 624 1193 482 1183 564 b 1063 744 1147 679 1119 724 b 1057 746 1061 746 1060 746 b 1040 733 1050 746 1044 742 z m 985 749 b 992 724 981 739 982 728 b 1003 721 994 722 999 721 b 1018 731 1010 721 1014 724 b 1011 756 1024 740 1021 750 b 1001 758 1007 757 1004 758 b 985 749 994 758 989 756 z "},"n":{"ha":819,"x_min":0,"x_max":0,"o":"m 293 810 b 200 829 268 822 238 829 b 18 649 79 829 33 765 b 21 315 8 567 10 438 b 69 67 31 206 46 110 b 197 4 96 22 147 4 b 331 89 249 4 324 28 b 325 182 332 111 329 143 b 399 457 314 289 299 442 b 408 458 403 457 404 458 b 488 332 457 458 478 400 b 493 131 499 261 497 179 l 493 118 b 625 4 493 42 554 4 b 806 254 769 4 801 136 b 782 575 813 364 796 496 b 535 807 760 701 668 807 b 342 728 463 807 396 774 b 293 810 335 768 318 796 z m 257 53 b 197 40 236 43 214 40 b 100 85 160 40 121 51 b 56 319 79 122 65 214 b 54 644 44 438 43 567 b 200 793 67 744 99 793 l 215 793 b 229 792 219 793 225 793 b 301 739 272 788 292 765 b 310 689 307 724 310 707 l 310 683 b 263 554 283 644 272 608 b 331 664 286 603 304 636 l 342 676 b 535 771 393 731 457 771 b 747 569 650 771 729 678 b 769 257 763 490 775 367 b 626 39 765 160 749 39 b 543 74 594 39 564 47 b 529 118 533 83 529 99 l 529 129 b 524 338 531 179 533 264 b 410 493 511 422 481 493 l 393 493 b 290 179 258 471 279 300 b 294 93 294 142 299 111 b 257 53 293 75 275 60 z m 726 485 b 704 592 722 526 714 563 b 601 713 686 647 657 692 b 578 701 592 713 582 713 b 589 678 575 690 579 682 b 669 581 633 663 654 624 b 701 338 688 525 697 444 b 721 319 703 325 710 319 b 738 339 732 321 738 328 b 726 485 735 394 731 443 z m 528 725 b 535 699 522 715 525 704 b 544 697 536 697 540 697 b 561 707 551 697 557 700 b 554 732 567 717 564 725 b 543 735 549 733 544 735 b 528 725 536 735 532 732 z "},"o":{"ha":924,"x_min":0,"x_max":0,"o":"m 488 10 b 775 160 597 24 701 69 b 885 363 825 217 863 289 b 906 563 906 429 913 497 b 543 858 883 763 738 858 b 11 367 229 858 22 685 b 31 215 10 310 17 260 b 378 0 82 57 224 0 b 488 10 415 0 451 3 z m 64 225 b 47 367 51 265 46 313 b 542 824 58 667 257 824 b 869 560 719 824 849 739 b 850 372 876 499 869 436 b 583 68 808 233 713 108 b 379 36 517 47 449 36 b 64 225 240 36 108 85 z m 463 321 b 564 444 518 325 560 392 b 558 492 567 463 565 479 b 494 539 549 518 529 535 b 361 435 429 539 383 494 b 354 392 356 417 353 403 b 463 321 358 335 414 321 z m 90 279 b 197 113 103 208 138 151 b 207 110 199 111 203 110 b 221 117 214 110 218 113 b 217 142 228 126 226 135 b 126 286 165 175 136 226 b 153 507 114 351 124 429 b 142 531 156 518 151 526 b 119 519 132 531 124 531 b 89 396 104 478 93 436 b 90 279 83 354 83 315 z m 492 503 b 525 479 510 500 521 492 b 529 447 529 469 531 460 b 461 357 525 415 499 357 l 460 357 b 454 356 458 356 456 356 b 389 394 428 356 393 363 b 492 503 389 443 442 503 z m 140 578 b 147 551 133 567 136 558 b 154 549 149 550 151 549 b 172 558 163 549 168 551 b 167 583 179 568 176 576 b 154 586 164 585 160 586 b 140 578 147 586 143 583 z "},"p":{"ha":911,"x_min":0,"x_max":0,"o":"m 546 804 b 350 706 468 804 404 763 b 214 810 346 788 286 810 b 39 629 107 810 57 725 b 29 228 24 550 22 390 b 79 -228 40 25 60 -182 b 231 -301 101 -283 176 -301 b 356 -244 275 -301 338 -289 b 369 42 378 -193 374 -32 b 533 -7 418 10 474 -7 b 742 68 610 -7 682 24 b 883 406 857 153 894 279 b 546 804 868 576 739 804 z m 429 729 b 547 768 464 756 503 768 b 847 401 718 768 836 551 b 742 114 857 296 829 192 b 533 28 688 65 610 28 b 415 57 493 28 453 39 b 349 103 389 72 369 86 l 343 108 b 271 208 317 132 297 160 b 331 76 282 157 296 114 b 324 -231 332 54 347 -172 b 231 -265 313 -261 256 -265 b 113 -214 193 -265 128 -254 b 65 231 97 -172 76 29 b 74 622 58 388 58 549 b 214 775 92 700 124 775 b 272 767 235 775 254 771 b 315 703 306 757 314 729 b 310 653 317 688 314 671 l 269 528 l 342 638 b 429 729 365 672 394 703 z m 424 289 b 494 275 444 278 471 275 b 596 399 549 279 592 346 b 590 446 597 417 596 433 b 525 493 581 472 560 489 b 385 346 450 493 385 419 b 424 289 386 317 401 299 z m 681 157 b 675 132 671 150 668 142 b 690 125 679 128 685 125 b 742 163 703 125 732 153 b 806 294 776 197 797 242 b 778 535 821 367 810 450 b 756 546 774 544 765 546 b 744 522 746 542 740 532 b 771 301 774 444 783 367 b 681 157 760 242 731 190 z m 429 386 b 522 457 444 422 485 457 b 557 433 540 454 551 446 b 560 401 560 424 561 413 b 492 311 556 369 529 311 l 490 311 b 485 310 489 310 488 310 b 421 349 458 310 422 317 b 429 386 421 361 424 374 z m 721 589 b 726 564 715 579 717 568 b 736 560 731 561 735 560 b 753 569 744 560 750 563 b 747 596 758 579 757 590 b 736 599 742 597 738 599 b 721 589 729 599 725 596 z "},"q":{"ha":854,"x_min":0,"x_max":0,"o":"m 313 819 b 33 489 168 769 64 653 b 25 364 26 450 24 408 b 307 -4 32 168 144 -4 b 401 14 339 -4 369 3 b 410 -306 383 -67 339 -261 b 521 -343 433 -321 472 -343 b 831 475 786 -343 825 319 b 753 708 835 558 807 643 b 467 844 681 799 583 844 b 313 819 413 844 361 836 z m 304 35 b 61 364 165 35 68 157 b 69 482 60 407 63 446 b 465 808 103 681 265 808 b 725 686 571 808 658 769 b 794 476 774 626 799 553 b 521 -306 789 319 746 -306 b 429 -276 482 -306 450 -287 b 446 38 365 -236 440 17 b 560 182 506 75 539 122 b 304 35 497 94 414 35 z m 272 356 b 369 319 292 326 333 319 b 471 443 424 324 467 393 b 465 492 472 461 471 478 b 400 538 456 515 435 533 b 260 392 325 538 260 465 b 272 356 261 376 265 365 z m 733 247 b 740 258 738 249 739 253 b 753 533 764 371 768 463 b 650 701 738 601 707 661 b 639 706 646 704 643 706 b 625 697 632 706 628 703 b 629 674 619 690 619 679 b 718 526 679 636 707 586 b 706 267 732 458 728 372 b 719 244 703 256 707 249 b 733 247 724 244 729 246 z m 296 393 b 297 407 294 397 296 403 l 301 421 b 397 501 317 464 349 501 b 432 478 418 500 426 490 b 435 447 435 468 436 458 b 367 356 431 413 404 360 l 365 356 b 296 393 339 356 297 360 z m 581 733 b 588 708 574 724 576 715 b 597 706 589 707 593 706 b 613 714 604 706 610 708 b 607 740 618 724 617 735 b 597 743 603 742 600 743 b 581 733 590 743 585 740 z "},"r":{"ha":742,"x_min":0,"x_max":0,"o":"m 119 794 b 31 601 61 753 42 669 b 15 215 10 469 4 326 b 94 22 25 115 49 40 b 206 0 132 10 168 0 b 319 78 261 0 304 24 b 331 190 329 104 329 144 b 418 447 335 294 340 429 b 475 454 440 453 458 454 b 547 440 507 454 529 446 b 594 428 563 433 578 428 b 729 626 678 428 725 554 b 710 710 731 661 725 689 b 506 801 668 767 572 801 b 324 713 429 801 369 768 b 189 815 307 772 250 815 b 119 794 161 815 138 808 z m 107 57 b 50 219 67 72 54 182 b 67 596 40 326 46 468 b 189 779 78 667 99 779 b 267 743 219 779 246 767 b 292 664 283 722 296 696 l 290 651 b 275 504 267 597 271 556 b 351 690 289 599 306 629 b 506 765 390 736 443 765 b 681 689 560 765 647 736 b 693 628 690 675 694 654 b 592 464 689 576 657 464 b 560 474 582 464 572 468 b 476 490 539 481 514 490 b 410 482 457 490 435 488 b 294 192 307 456 299 307 b 285 88 293 149 292 110 b 206 36 275 50 243 36 b 139 46 185 36 163 40 l 135 47 b 107 57 125 51 117 53 z m 85 524 b 79 417 83 492 81 457 l 78 372 b 94 354 76 363 85 354 b 113 371 107 354 113 360 b 115 415 114 386 114 400 b 139 644 119 521 124 594 b 192 710 150 676 165 697 b 200 733 201 714 204 724 b 183 744 196 740 190 744 b 139 717 171 744 149 726 b 94 607 117 693 101 656 b 85 524 90 583 86 556 z m 78 329 b 83 304 71 319 74 311 b 94 301 86 303 90 301 b 110 310 101 301 106 304 b 104 336 117 321 114 329 b 94 339 99 338 96 339 b 78 329 88 339 82 336 z "},"s":{"ha":754,"x_min":0,"x_max":0,"o":"m 197 375 b 169 378 188 376 179 378 b 42 263 104 378 58 319 b 42 153 32 228 31 190 b 349 -3 75 35 238 -3 b 619 113 453 -3 554 29 b 647 503 758 289 676 457 b 719 656 672 524 726 579 b 440 850 708 796 563 850 b 258 813 383 850 315 839 b 128 685 199 785 150 744 b 136 511 99 607 104 554 b 282 417 169 463 228 438 b 375 338 315 406 364 371 b 374 321 378 331 378 325 b 349 310 368 311 358 310 b 278 339 328 310 304 324 b 224 367 260 349 242 357 b 197 375 214 369 206 372 z m 161 529 b 157 674 135 563 131 608 b 440 819 197 778 335 819 b 689 653 547 819 678 776 b 624 522 696 583 642 536 b 504 574 592 549 544 574 b 606 508 558 551 585 529 l 624 483 b 594 131 650 436 719 288 b 349 28 535 57 443 28 b 71 163 251 28 101 57 b 72 254 61 194 63 225 b 169 346 85 297 119 346 b 263 311 201 346 235 326 b 349 278 294 294 321 278 b 406 315 372 278 396 292 b 293 446 421 369 346 426 b 161 529 247 463 190 486 z m 299 738 b 357 756 314 744 333 751 b 458 767 385 763 418 767 l 476 767 b 494 765 482 767 488 767 b 513 782 507 765 513 771 b 496 801 514 792 506 800 b 353 792 447 801 401 801 b 236 739 296 779 260 760 b 206 706 224 729 213 718 b 213 682 200 696 203 686 b 221 679 214 681 217 679 b 236 689 228 679 233 682 b 261 714 242 697 250 706 b 299 738 271 721 283 729 z m 174 663 b 183 638 169 653 172 644 b 193 636 185 636 189 636 b 208 647 200 638 206 642 b 199 672 213 657 208 668 b 189 674 197 674 193 674 b 174 663 182 674 176 669 z "},"t":{"ha":976,"x_min":0,"x_max":0,"o":"m 514 421 b 514 476 513 446 513 464 b 688 528 550 483 649 507 b 707 543 694 531 701 536 b 725 631 722 564 729 596 b 678 756 724 669 710 729 b 589 778 657 772 622 778 b 522 772 563 778 539 776 b 525 956 529 814 539 906 b 321 1046 503 1040 393 1046 l 286 1046 b 174 769 174 1042 174 836 b 13 643 79 769 24 746 b 39 533 8 599 18 563 b 160 472 67 496 114 479 b 175 315 164 444 169 381 b 597 -75 197 99 379 -75 b 940 194 767 -75 889 36 b 944 364 963 267 961 321 b 790 467 921 429 858 467 b 669 338 703 467 688 410 b 604 239 657 288 643 239 b 594 240 600 239 596 239 b 514 421 533 254 514 350 z m 496 308 b 608 203 513 254 546 203 b 703 328 669 203 688 265 l 707 339 b 790 432 719 393 731 432 b 911 351 844 432 890 401 b 906 206 926 317 926 268 b 596 -39 860 61 751 -39 b 211 318 397 -39 229 121 b 197 457 206 372 201 424 b 233 650 193 528 196 593 b 163 508 206 632 172 579 b 67 556 128 514 90 524 b 49 639 51 578 44 606 b 160 735 56 713 89 735 b 192 732 169 735 181 733 l 213 731 l 211 771 b 288 1010 207 831 208 1010 b 321 1011 299 1010 310 1011 b 490 946 371 1011 475 1008 b 483 763 504 894 490 792 l 483 757 b 482 754 482 756 482 756 l 476 728 l 503 733 b 592 743 504 733 549 743 b 690 628 672 743 683 697 b 676 564 692 601 688 576 b 493 510 664 547 517 510 l 479 507 l 478 493 b 476 453 476 481 476 467 b 483 363 478 429 479 396 b 496 308 486 344 490 326 z m 524 10 b 538 -11 522 -3 526 -10 b 594 -17 558 -15 576 -17 b 889 222 738 -17 842 93 b 878 244 893 232 888 240 b 871 246 876 246 874 246 b 854 235 863 246 857 242 b 594 19 814 119 724 19 b 544 25 576 19 560 21 l 542 25 b 524 10 532 25 525 19 z m 500 13 b 493 39 506 22 503 33 b 483 42 489 40 486 42 b 468 32 476 42 472 39 b 474 6 463 22 464 11 b 483 3 478 4 481 3 b 500 13 490 3 496 6 z "},"u":{"ha":726,"x_min":0,"x_max":0,"o":"m 161 828 b 13 528 33 828 17 621 b 56 219 8 432 17 318 b 367 0 111 79 217 0 b 714 500 626 0 707 290 b 690 725 718 594 707 676 b 535 808 671 782 590 808 b 426 744 486 808 442 796 b 411 578 417 707 415 644 b 378 349 407 478 404 375 b 364 340 372 343 368 340 b 332 433 346 340 338 379 b 335 694 325 517 331 632 b 336 714 336 699 336 706 b 161 828 329 810 240 828 z m 194 89 b 89 232 149 124 113 171 b 47 526 51 326 43 433 b 136 788 51 594 63 754 b 153 792 143 790 149 792 l 163 792 b 300 711 222 792 296 788 l 300 696 b 297 431 296 632 290 517 b 307 358 299 404 303 379 l 308 354 b 458 208 331 271 381 232 b 371 299 410 243 386 271 b 403 322 381 303 390 311 b 447 576 439 354 443 475 b 461 735 451 642 451 703 b 535 774 468 767 508 774 b 657 713 575 774 643 751 b 678 501 672 669 682 592 b 367 36 671 310 603 36 b 194 89 299 36 240 54 z m 89 647 b 81 397 72 579 71 486 b 100 381 82 386 89 381 b 107 383 103 381 106 382 b 117 400 114 386 117 392 b 124 640 107 488 108 575 b 183 729 131 672 147 722 b 196 751 196 733 200 740 b 179 765 194 761 189 765 b 89 647 128 765 100 689 z m 92 351 b 97 326 85 342 88 333 b 107 324 100 325 103 324 b 124 332 114 324 119 326 b 118 358 129 342 128 353 b 107 361 113 360 108 361 b 92 351 101 361 96 358 z "},"v":{"ha":913,"x_min":0,"x_max":0,"o":"m 138 414 b 185 313 153 381 168 347 b 375 36 226 229 301 96 b 503 0 407 13 454 0 b 635 47 549 0 603 13 b 801 446 657 69 735 265 b 903 786 864 607 913 769 b 768 844 885 825 811 844 b 679 825 740 844 711 840 b 522 488 603 786 546 588 l 521 489 b 293 831 486 563 372 814 b 207 838 267 835 239 838 b 14 783 160 838 32 831 b 56 606 0 747 42 644 b 63 592 60 599 61 593 b 138 414 63 586 93 510 z m 118 796 b 207 801 153 800 190 801 l 228 801 b 299 792 251 801 286 799 b 507 432 369 753 486 485 b 532 254 525 383 536 331 b 543 417 549 306 554 360 l 551 451 b 694 792 565 526 625 760 b 768 808 721 804 746 808 b 872 769 800 808 857 796 b 768 458 875 760 828 615 b 608 71 701 279 626 93 b 503 36 585 43 538 36 b 299 183 394 36 351 100 b 89 619 210 318 149 469 b 47 771 74 657 40 746 b 118 796 51 782 83 790 z m 135 692 b 118 751 125 728 119 747 b 97 765 117 763 107 765 b 82 746 85 764 81 757 b 256 339 100 635 192 443 b 271 329 260 332 264 329 b 279 332 272 329 275 331 b 286 357 289 339 292 347 b 186 551 243 425 213 492 l 185 554 b 135 692 161 610 144 656 z m 314 288 b 308 314 321 299 318 307 b 299 317 304 315 301 317 b 282 308 292 317 286 314 b 289 282 275 297 278 289 b 299 279 290 281 294 279 b 314 288 306 279 311 282 z "},"w":{"ha":1265,"x_min":0,"x_max":0,"o":"m 694 824 b 678 825 689 825 683 825 b 467 483 622 825 560 783 b 401 774 451 583 428 735 b 163 839 368 822 225 839 b 18 800 126 839 40 833 b 107 408 -15 763 40 582 b 274 42 174 238 251 68 b 428 10 304 15 388 10 b 575 49 490 10 551 19 b 672 226 600 82 646 171 b 913 0 714 114 778 0 b 1138 157 1010 0 1108 61 l 1138 158 b 1232 578 1149 196 1203 414 b 1246 774 1250 672 1258 751 b 1058 835 1219 822 1111 835 b 975 822 1032 835 999 833 b 865 508 935 804 892 615 b 860 535 864 518 861 525 b 725 818 826 646 775 814 b 711 821 721 819 715 819 z m 682 788 b 706 786 692 788 696 786 b 721 783 711 785 717 783 b 829 517 753 779 799 622 l 858 394 b 871 283 864 361 868 324 b 883 411 883 328 888 365 l 892 450 b 992 790 906 532 958 771 b 1057 800 1008 800 1036 800 b 1215 756 1093 800 1196 790 b 1197 585 1222 740 1214 674 b 1103 168 1171 446 1140 306 b 911 36 1081 85 993 36 l 899 36 b 885 38 894 36 889 36 b 700 263 771 51 713 207 l 682 328 l 649 256 b 546 69 624 206 571 103 b 429 44 531 51 483 44 b 301 67 401 44 324 49 b 140 421 281 88 203 254 b 46 778 78 583 24 751 b 160 803 72 800 128 803 b 372 753 206 803 340 792 b 439 418 399 713 431 493 l 451 304 l 476 392 b 682 788 576 743 633 788 z m 1104 776 b 1085 760 1093 776 1086 771 b 1101 740 1085 749 1090 742 b 1151 722 1113 739 1146 733 b 1138 575 1158 690 1150 636 b 1122 511 1133 554 1128 532 l 1106 447 b 1088 375 1100 421 1093 397 b 1101 354 1086 364 1090 357 b 1106 353 1103 354 1104 353 b 1122 367 1115 353 1121 357 b 1138 425 1128 388 1132 404 l 1140 438 b 1186 731 1169 549 1201 671 l 1185 732 b 1104 776 1175 764 1133 772 z m 1035 771 b 1040 744 1028 760 1031 751 b 1050 742 1044 743 1047 742 b 1067 750 1057 742 1063 744 b 1060 776 1074 761 1071 769 b 1050 779 1056 778 1053 779 b 1035 771 1043 779 1038 776 z "},"x":{"ha":967,"x_min":0,"x_max":0,"o":"m 513 618 b 208 896 460 738 356 896 b 131 883 182 896 156 892 b 18 697 50 858 -19 789 b 242 417 47 621 178 481 b 131 171 219 379 149 249 b 128 117 124 146 122 128 b 349 35 150 64 290 35 b 482 106 411 35 450 60 b 546 244 506 140 525 188 b 753 14 592 181 700 32 b 822 0 775 4 799 0 b 949 96 885 0 922 40 b 796 414 990 193 838 368 b 929 674 822 454 903 576 b 844 817 951 769 918 799 b 778 829 824 822 804 825 b 756 833 771 831 765 832 b 740 835 751 835 747 835 b 513 618 644 835 554 686 z m 503 229 b 482 182 496 211 489 196 b 340 72 450 111 414 72 b 160 131 307 72 179 96 b 213 286 153 151 179 221 b 279 411 231 324 253 365 l 286 424 l 276 433 b 228 483 261 449 244 465 b 131 590 200 513 164 551 b 51 701 93 633 64 674 b 131 843 25 769 69 819 b 210 860 157 854 183 860 b 494 569 349 860 450 685 l 497 561 b 494 453 486 522 485 486 b 522 556 494 488 507 524 b 738 799 563 633 646 799 l 750 799 b 772 794 757 797 763 796 b 836 782 796 790 818 786 b 894 682 886 769 911 749 b 817 511 879 626 849 563 b 758 424 799 482 779 453 l 749 411 l 760 400 b 853 289 796 363 826 325 b 915 110 897 229 936 153 b 822 36 897 67 871 36 b 764 47 804 36 785 40 b 568 276 719 61 604 224 l 536 322 l 522 282 b 503 229 515 264 508 246 z m 178 833 b 163 814 165 832 161 825 b 182 799 164 801 171 797 b 310 754 238 799 267 797 b 424 588 342 722 381 667 b 439 578 428 581 432 578 b 447 581 440 578 443 579 b 454 604 457 585 460 594 b 310 801 417 671 369 753 b 207 835 276 828 244 835 l 193 835 b 178 833 189 835 183 835 z m 115 814 b 118 788 108 807 108 794 b 131 785 124 786 128 785 b 144 792 138 785 142 788 b 142 818 151 801 151 813 b 131 822 138 821 135 822 b 115 814 124 822 118 819 z "},"y":{"ha":901,"x_min":0,"x_max":0,"o":"m 478 531 b 404 554 450 531 425 539 b 338 706 371 579 351 644 l 321 781 b 168 889 304 853 239 889 b 19 763 96 889 19 844 b 65 494 18 692 31 589 b 433 244 131 322 254 244 b 517 253 463 244 490 247 b 460 18 508 144 499 57 b 404 -1 446 6 428 -1 b 299 47 367 -1 328 26 b 174 103 258 75 217 103 b 32 -42 100 103 39 25 b 54 -139 29 -74 36 -106 b 425 -336 121 -265 286 -336 b 882 213 742 -336 860 -56 b 726 914 904 483 835 776 b 599 967 699 951 649 967 b 442 899 542 967 476 947 b 426 803 424 872 415 840 b 490 532 450 713 472 622 b 478 531 488 531 483 531 z m 404 -36 b 524 61 469 -36 503 0 b 553 261 542 113 547 182 b 672 354 614 279 643 310 b 536 293 629 322 585 306 l 526 290 b 433 281 499 285 467 281 b 99 507 265 281 158 350 b 56 763 65 597 54 697 b 168 853 56 824 113 853 b 286 772 219 853 274 828 l 289 754 b 314 653 296 725 303 690 b 478 496 339 565 376 496 b 514 499 490 496 503 497 l 532 501 l 529 519 b 461 813 508 619 488 714 b 471 878 454 836 458 858 b 599 931 497 915 554 931 b 699 892 639 931 678 918 b 847 215 803 763 869 476 b 425 -301 825 -42 714 -301 b 86 -122 296 -301 149 -236 b 68 -44 71 -94 65 -68 b 97 22 69 -21 79 1 l 100 25 b 175 64 126 53 149 64 b 279 18 210 64 244 40 b 404 -36 317 -8 356 -36 z m 422 311 b 513 318 450 311 481 313 b 528 339 525 319 529 326 b 510 354 526 349 519 354 l 507 354 b 422 346 476 349 449 346 b 133 613 240 346 181 458 b 117 625 132 621 126 625 b 100 613 107 625 101 621 b 100 603 99 610 99 607 b 422 311 156 426 225 311 z m 83 674 b 90 647 76 663 79 654 b 100 644 94 646 97 644 b 115 653 107 644 113 647 b 110 679 122 664 119 672 b 100 682 106 681 103 682 b 83 674 93 682 88 679 z "},"z":{"ha":967,"x_min":0,"x_max":0,"o":"m 172 49 b 399 0 233 7 338 0 b 782 65 504 0 689 14 b 922 215 842 99 890 156 b 951 392 954 278 968 343 b 813 460 929 450 868 460 b 663 439 758 460 700 449 b 790 814 703 528 808 763 b 472 932 754 919 564 932 b 42 818 386 932 85 911 b 25 769 35 801 29 785 b 24 563 10 707 8 629 b 124 411 35 513 65 422 b 169 407 136 408 151 407 b 264 417 204 407 243 413 b 132 104 200 338 110 207 b 172 49 138 81 151 63 z m 178 225 b 414 532 219 338 344 454 b 171 442 351 496 254 442 b 124 449 156 442 139 443 b 58 569 92 464 71 510 b 60 761 46 632 44 704 b 153 851 75 821 93 829 b 471 896 244 881 375 896 b 757 803 540 896 728 886 b 653 501 768 767 699 604 b 614 418 631 453 614 419 b 500 324 549 393 529 367 b 619 390 538 351 576 374 l 642 397 b 679 406 654 400 676 406 b 817 425 717 415 771 425 b 917 379 856 425 901 422 b 890 232 932 342 918 286 b 653 63 835 126 765 85 b 399 36 581 47 488 36 b 167 113 338 36 189 40 b 178 225 158 149 163 186 z m 831 253 b 815 244 825 253 819 250 b 653 124 772 172 731 144 b 472 94 607 113 550 104 b 456 75 461 93 456 86 b 476 58 457 63 464 57 b 765 135 624 76 704 92 b 846 226 794 156 822 183 b 840 251 853 236 850 244 b 831 253 839 253 835 253 z m 842 294 b 847 268 835 283 838 275 b 857 265 850 267 853 265 b 874 274 864 265 869 268 b 868 300 881 285 878 293 b 857 303 863 301 858 303 b 842 294 850 303 844 300 z "},"$":{"ha":886,"x_min":0,"x_max":0,"o":"m 433 1050 b 385 1053 418 1051 401 1053 b 303 1040 353 1053 324 1050 l 293 1038 l 292 1026 b 289 982 290 1014 290 999 b 282 860 288 953 286 911 b 172 749 238 833 199 793 b 139 632 149 711 138 672 b 263 474 144 553 197 511 b 257 306 258 418 258 361 l 256 306 b 186 331 239 322 215 331 b 18 200 110 331 36 272 b 22 89 10 165 11 129 b 254 -101 54 -17 150 -81 b 264 -210 258 -144 260 -182 b 289 -276 269 -246 278 -268 b 388 -307 318 -297 354 -307 b 488 -267 421 -307 467 -296 b 497 -225 497 -254 501 -240 b 494 -182 496 -221 496 -206 l 494 -97 b 783 117 615 -65 726 0 b 808 357 817 185 829 267 b 747 508 797 406 779 454 b 863 743 794 531 911 596 b 493 914 818 879 617 914 l 493 942 b 471 1042 493 978 488 1033 b 433 1050 461 1046 449 1049 z m 385 1019 b 458 1010 414 1019 443 1017 b 456 988 463 1010 454 1004 b 461 896 460 965 460 935 l 461 879 l 478 881 b 831 733 590 881 790 858 b 719 532 875 590 736 539 b 544 588 676 571 601 588 b 481 575 515 588 493 583 b 725 481 556 575 676 544 b 775 350 749 435 765 390 b 753 132 793 267 785 193 b 476 -67 699 19 592 -37 l 460 -71 b 361 -83 428 -78 393 -83 b 301 -76 343 -83 322 -81 b 413 -108 333 -100 369 -108 b 460 -104 429 -108 444 -107 b 461 -182 460 -136 461 -161 b 464 -232 461 -206 463 -222 b 461 -247 465 -237 464 -243 b 388 -274 446 -268 410 -274 b 310 -250 361 -274 332 -267 b 288 -87 294 -239 288 -104 l 288 -74 l 274 -71 b 263 -69 269 -71 267 -69 b 54 99 168 -47 83 0 b 50 192 44 132 44 164 b 186 297 64 250 126 297 b 235 281 201 297 224 293 b 263 257 242 271 253 263 l 288 240 l 289 269 b 296 483 290 342 292 413 l 297 493 l 288 499 b 174 635 228 528 178 563 b 200 732 171 667 179 700 b 275 814 215 758 240 785 l 278 817 b 307 835 288 824 296 829 l 314 840 b 431 885 351 863 390 878 b 388 890 418 889 404 890 b 317 876 367 890 343 886 b 325 1014 321 943 324 993 b 385 1019 342 1018 363 1019 z m 518 24 b 535 -3 510 13 521 -6 b 726 165 631 14 694 72 b 743 347 750 236 750 307 b 739 364 742 354 740 360 b 722 376 738 372 732 376 b 718 375 721 376 719 376 b 707 356 708 374 703 365 b 710 342 707 354 708 349 b 694 176 715 304 715 239 b 529 31 667 94 611 46 b 518 24 525 29 521 28 z m 493 251 b 499 260 494 256 497 258 b 503 269 500 264 501 267 b 513 319 511 285 514 301 b 493 364 510 335 503 349 l 463 406 l 461 211 z m 463 13 b 463 -11 454 6 454 -3 b 475 -17 465 -15 469 -17 b 488 -12 479 -17 483 -15 b 488 13 496 -4 496 4 b 475 18 483 17 479 18 b 463 13 471 18 467 17 z "},"":{"ha":986,"x_min":0,"x_max":0,"o":"m 550 3 b 610 29 572 7 593 15 b 638 107 626 43 629 57 b 669 333 649 178 664 292 b 808 319 699 329 757 319 b 906 344 853 319 893 324 b 918 367 910 351 914 357 b 931 461 928 393 935 429 b 808 568 926 550 882 557 b 763 572 792 569 776 571 b 808 639 774 588 790 611 b 961 960 875 739 968 888 b 789 1090 950 1049 871 1090 b 621 997 711 1090 664 1065 b 510 765 589 949 558 876 b 226 1001 458 825 297 1001 b 85 933 179 1001 117 965 b 21 806 51 901 26 860 b 251 569 14 722 167 621 b 142 521 206 565 153 556 b 132 426 135 494 126 460 b 210 350 138 392 158 361 b 375 339 265 340 319 339 b 408 33 368 275 344 79 b 518 0 440 10 479 0 b 550 3 528 0 538 1 z m 563 664 b 533 738 560 690 550 714 b 647 979 583 856 615 931 b 789 1057 685 1036 724 1057 b 928 956 857 1057 917 1028 b 808 697 935 904 868 790 b 718 567 760 625 718 568 l 700 542 l 731 540 b 878 518 764 540 851 533 b 899 460 890 508 897 486 b 886 379 900 432 896 401 b 879 364 885 372 883 368 b 821 350 872 353 850 350 l 808 350 b 674 367 761 353 700 361 l 642 372 l 639 354 b 592 57 639 326 599 69 b 518 33 576 39 540 33 b 428 60 486 33 454 42 b 396 224 399 82 394 156 b 410 354 397 264 403 307 l 414 375 l 393 374 l 378 374 b 361 372 374 372 368 372 l 340 372 b 217 382 306 372 260 372 b 164 432 182 389 168 410 b 174 511 160 458 167 489 b 269 538 179 533 231 538 l 301 538 b 314 536 306 536 310 536 l 397 529 l 303 578 b 54 803 236 614 50 725 b 225 968 61 886 142 961 b 482 744 279 974 429 808 l 486 742 b 497 729 492 736 493 733 l 517 704 b 556 594 533 678 546 649 b 563 664 563 615 565 638 z m 724 672 b 728 649 718 665 718 654 b 738 646 732 647 735 646 b 750 653 743 646 747 649 b 896 929 797 718 885 849 b 872 1003 900 964 893 988 b 858 1008 867 1007 863 1008 b 843 1000 851 1008 846 1006 b 850 978 839 990 840 982 b 854 976 851 976 853 976 b 863 935 864 969 867 956 b 724 672 851 860 768 735 z m 799 1026 b 800 1001 792 1018 792 1010 l 808 997 b 825 1004 815 997 821 1000 b 822 1028 831 1011 829 1022 b 808 1032 818 1032 814 1033 b 799 1026 806 1032 803 1031 z "},")":{"ha":515,"x_min":0,"x_max":0,"o":"m 285 407 b 253 183 300 318 282 243 b 108 4 218 113 165 58 b 63 -43 85 -17 69 -32 b 53 -72 58 -51 54 -61 b 71 -140 50 -94 56 -117 b 167 -206 92 -172 128 -201 l 169 -206 b 219 -190 182 -207 199 -201 b 493 303 386 -106 486 121 b 353 789 500 471 428 654 b 219 997 314 860 269 932 b 110 1047 193 1031 150 1047 b 3 964 56 1047 18 1014 b 10 901 -1 943 -1 922 b 31 872 14 890 21 881 l 33 871 b 285 407 172 743 258 592 z m 392 47 b 219 -153 351 -35 293 -107 b 171 -171 197 -165 181 -172 b 100 -121 142 -167 115 -144 b 88 -76 90 -103 86 -89 b 132 -22 93 -58 97 -54 b 253 113 176 21 219 61 b 319 413 303 186 340 285 b 57 896 290 607 201 763 l 54 899 b 40 917 50 904 44 910 b 38 956 36 928 35 940 b 108 1013 47 990 71 1013 b 192 975 140 1013 171 1001 b 200 965 193 972 196 969 b 219 938 204 958 210 950 b 353 714 268 868 313 793 b 458 304 411 593 465 443 b 392 47 454 219 432 129 z m 267 736 b 269 724 265 732 267 728 b 385 471 324 651 364 560 b 390 236 406 383 411 301 b 401 214 388 225 392 218 b 407 213 403 214 406 213 b 424 225 414 213 419 217 b 419 479 446 296 442 386 b 297 744 396 572 357 667 b 283 751 294 749 290 751 b 274 747 279 751 276 750 b 267 736 269 744 267 740 z m 272 778 b 267 790 272 782 271 786 b 253 797 265 794 260 797 b 242 793 249 797 244 796 b 239 767 232 785 231 776 b 253 761 242 763 246 761 b 272 778 263 761 271 767 z "},"]":{"ha":531,"x_min":0,"x_max":0,"o":"m 414 13 b 514 133 458 38 492 88 b 536 544 558 226 558 383 b 382 1065 519 651 454 976 b 249 1138 349 1106 304 1138 b 211 1132 228 1138 215 1133 b 6 996 154 1121 28 1051 b 11 900 -4 969 -1 933 b 100 818 26 863 56 818 b 217 883 142 818 192 858 b 326 381 288 711 304 565 b 328 371 326 376 326 374 b 326 361 328 367 328 364 b 297 382 317 368 308 375 b 228 400 276 394 250 400 b 107 319 171 400 128 371 b 242 69 79 244 193 118 l 261 50 b 363 0 289 22 322 0 b 414 13 381 0 399 4 z m 435 76 b 360 39 414 54 389 39 b 288 74 333 39 304 53 l 286 75 b 203 164 254 106 226 135 b 139 307 163 214 126 272 b 228 365 154 347 188 365 b 272 356 244 365 260 363 b 382 211 332 318 356 274 b 369 296 386 238 382 267 l 364 353 b 326 642 358 413 343 544 b 238 922 310 731 276 844 l 226 947 l 208 926 b 172 890 196 913 185 900 b 103 853 151 869 125 853 l 96 853 b 88 856 92 853 89 854 b 39 985 51 872 24 944 b 40 988 39 986 39 988 b 218 1097 58 1028 178 1090 l 222 1099 b 229 1101 224 1100 226 1100 b 250 1103 235 1101 240 1103 b 354 1043 293 1103 328 1075 b 501 540 422 958 485 649 b 483 149 524 385 525 235 b 435 76 472 126 456 99 z m 433 760 b 360 968 414 821 390 899 b 326 1028 350 990 339 1010 b 257 1076 304 1060 281 1076 b 226 1068 247 1076 236 1074 b 219 1044 217 1063 214 1054 b 235 1035 222 1038 228 1035 b 243 1038 236 1035 239 1036 b 256 1040 249 1039 253 1040 b 310 988 272 1040 290 1022 b 400 746 353 911 376 829 b 417 733 403 738 408 733 b 433 743 424 733 429 736 b 433 756 435 747 435 751 z m 421 715 b 418 689 413 708 411 699 b 433 683 422 685 426 683 b 444 688 438 683 442 685 b 447 713 454 693 454 706 b 433 719 443 717 439 719 b 421 715 429 719 425 718 z "},"(":{"ha":531,"x_min":0,"x_max":0,"o":"m 64 560 b 35 339 43 488 31 411 b 308 -154 42 160 142 -65 b 358 -169 331 -164 347 -169 b 457 -103 401 -164 435 -136 b 475 -35 472 -81 478 -58 b 465 -7 474 -24 469 -14 b 419 42 458 8 442 21 b 308 163 388 69 346 108 b 243 444 260 233 225 322 b 494 907 271 629 356 779 l 497 910 b 519 938 506 917 513 926 b 525 1001 529 958 529 981 b 418 1085 510 1053 472 1085 b 308 1033 378 1085 335 1067 l 293 1013 b 144 765 264 972 200 882 b 64 560 113 703 85 632 z m 308 975 b 329 1003 318 988 325 996 b 336 1013 332 1007 335 1010 b 419 1050 357 1039 388 1050 b 490 993 457 1050 481 1026 b 488 953 494 981 493 967 b 474 935 485 947 481 942 l 471 933 b 208 449 326 800 238 644 b 308 104 186 293 244 183 b 396 15 340 67 369 39 b 435 -25 417 -3 431 -15 b 440 -39 439 -31 440 -35 b 428 -83 442 -53 438 -68 b 357 -135 413 -107 386 -131 b 211 -26 314 -135 238 -56 b 69 340 122 78 75 207 b 144 682 64 457 99 575 b 308 975 200 811 271 918 z m 104 263 b 121 250 108 254 114 250 b 126 251 124 250 125 250 b 138 274 138 254 142 261 b 143 508 117 339 122 421 l 144 513 b 258 760 167 603 208 694 b 254 785 265 769 264 778 b 244 789 251 788 249 789 b 144 625 215 789 156 651 b 108 517 129 590 118 554 b 104 263 86 424 82 333 z m 129 219 b 132 194 124 213 125 200 b 144 190 136 192 140 190 b 158 196 150 190 154 192 b 156 222 167 206 165 214 b 144 226 153 225 149 226 b 129 219 138 226 133 224 z "},"[":{"ha":589,"x_min":0,"x_max":0,"o":"m 356 883 b 472 818 381 858 431 818 b 561 900 517 818 549 863 b 567 996 574 933 576 969 b 361 1132 551 1051 414 1121 b 324 1138 357 1133 344 1138 b 140 960 219 1138 169 1044 b 36 544 101 856 58 700 b 58 133 14 383 14 226 b 210 0 88 74 136 0 b 311 50 250 0 283 22 b 465 319 328 65 499 229 b 346 400 447 374 400 400 b 247 361 301 400 279 388 l 244 360 b 356 883 260 539 288 715 z m 407 215 b 300 88 374 163 325 113 l 285 74 b 213 39 264 53 242 39 b 90 149 153 39 113 103 b 71 540 47 232 49 386 b 218 1043 88 649 150 958 b 324 1103 244 1075 281 1103 b 344 1101 333 1103 339 1101 b 351 1099 347 1100 350 1100 l 354 1097 b 532 988 393 1090 517 1028 b 533 985 533 988 533 986 b 485 856 549 943 524 874 b 471 853 482 854 478 853 b 401 890 449 853 422 869 b 364 926 389 900 376 913 l 346 947 l 328 906 b 261 711 314 874 283 800 b 247 642 256 690 251 668 b 210 353 231 544 215 413 l 203 296 b 192 211 190 268 188 240 b 344 365 218 274 265 365 b 433 307 385 365 418 346 b 407 215 443 283 429 250 z m 139 756 b 140 743 138 750 138 746 b 156 733 143 736 149 733 b 172 746 164 733 169 738 b 247 957 199 835 221 906 b 318 1040 258 982 289 1040 b 329 1038 319 1040 324 1039 b 338 1035 333 1036 336 1035 b 353 1044 344 1035 350 1038 b 346 1068 358 1054 356 1063 b 315 1076 336 1074 326 1076 b 232 1006 278 1076 250 1038 b 140 760 203 951 172 871 z m 151 715 b 140 719 149 718 144 719 b 125 713 133 719 129 717 b 140 683 115 699 126 683 b 154 689 146 683 150 685 b 151 715 163 699 161 707 z "},"!":{"ha":386,"x_min":0,"x_max":0,"o":"m 26 672 b 40 565 31 638 35 601 b 135 168 67 381 114 189 b 194 144 151 153 172 144 b 282 224 240 144 269 181 b 350 663 293 269 332 483 b 353 915 363 778 368 876 b 189 1040 326 988 267 1040 b 22 908 106 1040 46 985 b 26 672 11 867 13 776 z m 56 899 b 115 982 68 936 88 964 b 153 989 128 986 140 989 b 256 960 188 989 224 976 b 194 1006 244 983 218 999 b 319 904 256 1001 299 960 b 315 667 332 871 328 776 b 250 242 297 500 265 301 b 194 179 243 214 228 179 b 185 181 190 179 188 179 l 182 181 b 158 194 172 185 165 189 b 75 571 142 211 101 392 b 51 769 64 642 56 710 b 56 899 47 826 49 875 z m 44 -37 b 174 -139 56 -87 119 -139 b 292 71 267 -139 393 -19 b 192 107 269 92 224 107 b 56 28 140 107 82 72 b 44 -37 43 7 39 -15 z m 93 -56 b 79 -29 86 -46 81 -37 b 86 10 75 -17 78 -4 b 192 71 107 44 151 71 b 269 43 218 71 249 61 b 292 -17 289 26 296 7 b 174 -104 281 -65 224 -104 b 93 -56 146 -104 111 -82 z m 253 622 b 239 513 249 585 243 549 b 250 494 238 504 240 499 b 254 493 251 493 253 493 b 274 508 265 492 272 496 b 296 731 286 603 292 675 b 292 886 301 832 296 876 b 271 899 288 897 281 899 b 258 878 258 894 254 888 b 261 732 260 871 265 831 b 253 622 260 694 257 658 z m 236 446 b 250 440 240 442 244 440 b 264 471 265 440 275 460 b 250 478 260 475 254 478 b 238 472 246 478 242 476 b 236 446 228 465 228 456 z "},"\"":{"ha":588,"x_min":0,"x_max":0,"o":"m 517 947 b 474 953 501 951 486 953 b 342 865 417 953 363 919 b 338 804 335 846 333 825 b 396 726 344 771 368 744 b 374 635 411 699 394 663 b 331 586 361 618 347 601 l 307 567 l 338 564 b 356 563 343 564 349 563 b 619 810 482 563 608 688 b 615 867 621 829 619 849 b 517 947 604 908 560 936 z m 307 810 b 303 867 308 829 307 849 b 161 953 288 922 211 953 b 29 865 104 953 50 919 b 25 804 22 844 19 825 b 83 726 32 771 54 744 b 60 635 99 699 81 663 b 17 586 47 618 33 601 l -6 567 l 25 564 b 42 563 31 564 36 563 b 307 810 168 563 296 688 z m 136 718 b 196 746 161 718 181 728 b 147 735 175 739 160 735 b 50 810 104 735 60 767 b 54 857 47 825 49 842 b 161 926 71 901 115 926 b 276 860 200 926 265 901 b 281 811 281 844 282 828 b 57 590 269 703 164 601 b 113 721 82 618 124 672 b 136 718 122 719 129 718 z m 474 926 b 589 860 513 926 578 901 b 593 811 593 844 594 828 b 369 590 582 703 476 601 b 426 721 394 619 433 672 b 449 718 436 719 443 718 b 508 746 474 718 493 728 b 460 735 488 739 472 735 b 417 746 443 735 429 740 l 414 747 b 364 810 388 763 369 782 b 367 857 360 825 361 840 b 474 926 383 901 428 926 z m 500 897 b 506 888 499 890 500 888 b 551 857 513 886 536 879 b 560 803 558 844 564 826 b 567 793 558 796 560 793 b 576 800 574 792 576 793 b 565 865 582 829 575 850 b 510 904 547 893 519 900 b 500 897 503 904 500 901 z m 186 897 b 193 888 186 890 189 888 b 238 857 200 886 222 879 b 247 803 247 843 250 825 b 254 793 246 796 247 793 b 264 800 261 792 264 793 b 253 865 268 829 263 850 b 197 904 235 893 204 900 b 186 897 192 904 188 901 z m 479 910 b 469 913 475 911 472 913 b 458 908 465 913 461 911 b 461 889 453 900 454 893 b 469 885 464 886 467 885 b 481 890 474 885 478 886 b 479 910 488 897 486 903 z m 146 908 b 149 889 140 900 142 893 b 157 885 150 886 153 885 b 168 890 161 885 165 886 b 165 910 174 897 172 904 b 157 913 161 911 158 913 b 146 908 153 913 149 911 z "},"#":{"ha":1235,"x_min":0,"x_max":0,"o":"m 686 924 b 707 999 697 961 707 994 b 692 1053 711 1019 703 1038 b 586 1099 668 1085 625 1099 b 453 986 500 1099 482 1053 b 396 835 436 946 417 894 b 331 833 375 833 353 833 l 265 833 b 201 831 231 832 207 832 l 197 831 b 121 776 158 821 138 819 b 100 700 114 760 104 732 b 131 613 96 667 103 633 b 206 593 143 604 168 597 b 315 583 243 589 278 588 l 296 518 b 231 517 272 517 250 517 l 178 517 b 121 514 146 515 126 515 l 117 513 b 40 460 78 506 57 503 b 19 383 33 443 24 415 b 50 296 15 350 22 317 b 119 278 60 286 85 282 b 221 268 147 274 182 272 b 201 197 211 239 206 215 b 190 164 197 182 194 174 b 171 49 181 129 171 86 b 194 -22 169 17 176 -7 b 296 -74 215 -37 257 -62 l 299 -75 b 329 -79 310 -78 319 -79 b 375 -60 347 -79 363 -72 b 415 38 382 -50 394 -17 b 488 260 442 111 464 183 b 538 258 504 260 521 258 l 579 258 l 578 256 b 543 121 563 213 553 165 b 557 13 536 75 535 29 b 690 -19 585 -8 653 -19 b 753 -3 718 -19 742 -15 b 825 190 774 21 793 90 b 846 258 832 213 839 236 l 1008 258 b 1185 315 1053 258 1165 263 b 1206 431 1194 339 1207 388 b 1171 499 1206 463 1197 488 b 1089 508 1161 503 1132 504 b 926 514 1046 510 992 513 l 944 574 l 1022 574 b 1199 631 1067 574 1179 578 b 1219 746 1208 654 1221 703 b 1019 828 1211 847 1144 814 b 1046 922 1029 860 1039 893 b 1063 983 1056 954 1061 979 b 1046 1042 1064 1004 1058 1024 b 939 1090 1019 1074 979 1090 b 811 981 858 1090 840 1047 b 757 832 796 942 778 892 b 731 833 747 833 739 833 l 660 833 b 686 924 664 846 675 885 z m 725 21 b 696 14 722 17 713 14 b 578 42 665 14 604 22 b 578 115 568 47 572 81 b 611 242 588 158 599 199 l 625 293 l 539 293 b 507 294 528 294 517 294 l 461 294 l 457 282 b 382 50 428 189 403 107 b 349 -37 364 0 353 -32 b 329 -44 344 -42 338 -44 b 215 7 296 -44 242 -12 b 206 49 208 13 206 28 b 225 153 206 82 215 121 l 235 188 b 261 279 240 211 250 242 l 267 301 l 246 301 b 71 324 221 301 89 313 b 54 381 56 336 53 357 b 72 447 58 407 67 432 b 124 479 82 469 97 474 l 128 479 b 179 481 132 479 150 481 b 231 482 194 482 211 482 l 321 482 l 325 494 b 356 594 335 528 346 561 l 363 617 l 340 617 b 151 640 314 617 169 629 b 136 697 136 653 132 675 b 153 764 138 724 147 749 b 204 796 163 788 178 790 l 208 796 b 267 799 213 797 233 797 l 338 799 b 408 800 361 799 385 799 l 421 800 l 425 811 b 521 1044 436 844 499 1026 b 586 1064 542 1060 564 1064 b 664 1032 613 1064 647 1054 b 672 1003 671 1022 674 1013 b 619 821 672 990 626 850 l 614 799 l 703 799 b 769 797 725 799 747 799 l 782 797 l 786 810 b 881 1038 797 842 860 1019 b 939 1056 899 1050 918 1056 b 1017 1021 967 1056 1000 1044 b 1028 986 1024 1013 1028 1001 b 1013 932 1026 985 1022 961 b 979 815 1003 897 990 853 l 974 793 l 996 793 b 1169 782 1015 793 1154 789 b 1185 744 1181 778 1183 763 b 1165 643 1186 707 1175 664 b 1022 610 1154 613 1047 610 l 1013 610 b 990 608 1008 610 1000 610 l 918 608 l 879 479 l 903 479 b 1157 467 928 478 1140 474 b 1171 429 1167 463 1171 447 b 1151 328 1172 392 1161 349 b 1008 294 1140 297 1036 294 l 999 294 b 974 293 993 294 985 294 l 821 293 l 817 281 b 792 200 807 249 799 224 b 725 21 760 104 740 38 z m 700 540 b 710 575 704 553 706 564 b 836 626 756 585 797 601 b 635 610 771 617 706 610 b 433 631 568 610 500 615 b 549 578 468 604 506 589 l 529 518 b 385 468 479 511 429 494 b 532 483 433 478 482 482 l 543 483 l 599 482 b 801 464 667 478 735 474 b 690 510 769 485 733 500 z m 161 706 b 175 686 158 694 163 688 b 178 685 176 685 176 685 b 194 700 188 685 193 690 l 196 707 b 207 740 200 719 200 733 b 235 746 211 746 224 746 b 246 747 240 746 244 746 l 344 747 b 414 744 363 747 385 746 b 432 763 426 744 432 750 b 415 781 432 772 426 779 b 300 783 358 782 324 783 l 288 783 b 244 782 269 783 257 782 b 161 711 185 782 171 768 z m 654 568 b 672 569 660 568 665 568 l 656 517 l 647 517 b 568 521 621 521 594 521 l 583 572 b 636 568 600 569 618 568 z m 467 778 b 453 771 463 778 457 775 b 456 744 444 761 446 753 b 467 740 458 742 463 740 b 482 747 472 740 478 743 b 479 774 488 754 489 767 b 467 778 475 776 471 778 z "},"%":{"ha":810,"x_min":0,"x_max":0,"o":"m 521 896 b 499 890 513 896 506 894 b 386 682 486 881 442 799 b 388 701 388 686 388 693 b 243 851 383 790 336 851 l 229 851 b 21 632 182 847 39 817 b 22 581 19 611 19 593 b 181 471 38 499 107 471 b 307 508 229 471 269 476 b 229 335 279 451 256 394 b 74 -78 139 128 67 -60 b 300 -183 92 -126 253 -183 b 335 -172 315 -183 324 -182 b 425 -1 344 -162 376 -97 b 585 -118 438 -90 503 -118 b 778 25 685 -118 746 -75 b 790 111 788 53 792 82 b 646 263 789 200 740 261 b 533 229 608 263 565 247 b 608 394 560 285 582 339 b 753 801 697 599 771 783 l 749 804 b 704 829 735 813 719 821 b 608 874 678 844 643 858 b 521 896 575 886 544 896 z m 557 367 b 467 168 518 279 483 206 b 436 101 454 150 443 128 b 310 -147 374 -36 321 -136 b 299 -149 308 -149 304 -149 b 106 -65 261 -149 121 -94 b 229 247 101 -54 158 79 b 518 861 279 363 492 844 b 528 863 519 863 524 863 b 728 776 567 863 692 797 b 557 367 731 756 633 539 z m 496 147 b 647 226 528 193 590 226 b 756 111 719 226 754 178 b 744 36 757 86 754 61 b 583 -83 717 -49 671 -83 b 460 -4 526 -83 471 -67 b 460 39 458 8 458 22 b 469 90 461 60 465 76 b 496 147 478 110 486 129 z m 57 586 b 56 628 54 597 54 611 b 229 815 71 783 188 811 b 239 817 233 817 236 817 l 243 817 b 351 700 315 817 350 768 b 340 625 353 676 350 651 b 179 507 313 540 264 507 b 57 586 124 507 68 524 z m 517 431 b 524 407 511 421 514 411 b 532 406 525 406 528 406 b 547 414 539 406 544 408 b 701 769 583 483 694 701 b 688 789 703 779 697 789 b 667 775 675 790 668 786 b 517 431 667 738 543 479 z m 507 392 b 499 389 506 392 503 390 b 490 364 489 385 486 374 b 507 354 494 357 500 354 b 515 356 511 354 514 354 b 524 381 525 361 528 369 b 507 392 519 388 514 392 z "},"&":{"ha":946,"x_min":0,"x_max":0,"o":"m 333 0 b 588 86 422 0 517 31 b 767 -21 636 38 724 -6 l 800 -33 l 919 133 l 900 142 b 701 271 828 168 758 217 l 864 464 l 685 578 l 622 496 b 528 579 596 529 563 556 b 671 772 572 606 667 667 b 663 843 672 796 669 819 b 394 1046 629 964 519 1046 b 132 871 281 1046 161 989 b 133 735 117 819 124 768 b 192 633 143 697 168 665 b 18 353 103 563 36 464 b 15 296 14 332 14 317 b 333 0 22 136 175 0 z m 324 1006 b 399 1014 349 1011 374 1014 l 411 1014 b 632 835 515 1007 604 936 b 639 774 638 813 640 792 b 513 607 633 683 553 626 l 486 594 b 429 603 467 600 447 603 b 378 594 411 603 393 600 b 501 558 421 592 461 579 b 608 460 544 531 579 503 l 621 442 l 692 535 l 817 457 l 658 268 l 669 257 b 869 119 726 203 796 151 l 788 6 b 606 114 754 17 650 61 b 631 211 628 146 635 178 b 513 74 604 147 564 101 b 333 32 460 46 400 32 b 296 35 321 32 308 33 l 292 36 b 47 297 165 58 54 165 b 50 347 46 313 47 329 b 213 610 67 453 129 544 l 238 626 l 222 644 b 213 657 221 649 217 651 b 164 743 192 683 174 711 b 163 863 157 775 151 818 b 324 1006 182 940 249 988 z m 328 215 b 364 208 340 211 353 208 b 433 244 392 208 415 221 b 458 344 451 271 460 304 b 358 490 458 401 428 490 b 217 353 296 490 224 415 b 232 282 213 326 217 303 b 328 215 249 254 292 226 z m 363 240 b 258 299 329 240 276 272 b 249 349 249 314 246 331 b 319 447 254 382 283 425 b 356 457 332 454 343 457 b 426 343 408 457 426 383 b 407 264 428 311 422 285 b 363 240 396 249 381 240 z m 382 885 b 338 864 364 882 350 875 b 315 767 314 843 300 810 b 399 703 328 726 356 704 b 419 704 403 701 410 703 b 457 718 432 706 444 710 b 489 779 479 733 490 753 b 399 886 485 833 458 885 b 382 885 392 886 386 886 z m 346 776 b 358 840 336 804 343 825 b 388 853 368 846 376 851 b 399 854 390 854 394 854 b 457 778 439 850 456 813 b 403 735 457 749 429 735 b 346 776 374 735 354 749 z m 342 74 b 331 81 339 78 335 79 b 115 299 214 108 128 175 b 97 313 114 308 107 314 l 93 313 b 83 296 85 310 82 304 b 324 49 99 158 196 79 b 343 61 333 49 339 53 b 342 74 344 65 343 69 z m 82 365 b 81 340 74 357 74 349 b 93 335 85 336 89 335 b 106 363 104 335 118 350 b 93 368 103 367 99 368 b 82 365 88 368 83 367 z "},"'":{"ha":399,"x_min":0,"x_max":0,"o":"m 251 982 b 196 989 232 986 214 989 b 22 874 118 989 49 944 b 15 790 13 846 10 818 b 93 688 25 746 56 711 b 25 518 117 631 58 551 l -24 472 l 17 469 b 39 468 21 468 29 468 b 386 797 207 468 371 635 b 381 874 389 824 388 850 b 251 982 367 928 308 965 z m 206 685 b 240 713 218 690 231 700 b 176 699 217 703 194 699 b 121 713 156 699 138 703 l 115 715 b 50 797 83 733 60 760 b 56 861 46 819 47 840 b 196 954 76 921 135 954 b 347 865 250 954 332 921 b 351 800 351 844 353 822 b 58 504 340 661 199 515 b 132 679 93 546 143 610 b 149 676 138 678 143 676 l 163 676 b 206 685 178 676 193 679 z m 236 899 b 294 858 246 897 276 888 b 307 785 306 842 311 818 b 317 772 306 778 308 774 b 329 782 322 771 329 775 b 314 869 335 821 329 849 b 242 921 292 907 251 919 b 236 899 226 925 221 903 z m 204 906 b 201 932 211 913 211 925 b 190 936 199 935 194 936 b 175 929 185 936 179 933 b 178 903 168 919 169 910 b 190 899 182 900 186 899 b 204 906 194 899 200 901 z "},"*":{"ha":893,"x_min":0,"x_max":0,"o":"m 339 953 b 188 1054 308 979 232 1054 b 10 893 132 1054 14 949 b 97 790 8 860 51 822 b 165 749 124 772 147 758 b 97 681 146 733 124 710 b 24 536 50 629 6 565 b 178 446 49 493 126 446 b 196 449 186 446 192 447 b 356 560 229 460 325 538 b 361 357 344 492 335 372 b 474 343 378 350 425 343 b 582 371 504 343 564 344 b 592 574 600 397 596 508 b 736 486 629 536 692 486 b 815 540 768 486 800 514 b 839 629 833 569 840 603 b 663 786 835 664 715 751 b 881 953 722 822 881 915 b 761 1079 881 1004 813 1075 b 592 961 706 1079 628 1001 b 561 1121 599 1021 600 1107 b 464 1135 539 1131 501 1135 b 339 1097 428 1135 357 1129 b 339 953 325 1072 332 1003 z m 328 583 b 246 519 304 563 274 540 b 186 482 219 499 197 486 b 176 481 185 481 181 481 b 54 554 139 481 72 521 b 97 632 44 567 68 599 b 196 729 131 671 175 711 l 226 756 l 203 768 b 44 890 174 782 40 854 b 93 960 46 911 67 936 l 97 964 b 189 1018 129 992 168 1014 b 283 958 207 1024 246 990 b 343 900 307 935 331 913 l 396 844 l 383 906 b 371 982 378 932 374 958 b 369 1079 365 1021 360 1064 b 465 1100 381 1097 442 1100 b 547 1089 497 1100 529 1096 b 560 989 565 1082 565 1035 b 547 901 558 963 554 933 l 528 803 l 579 889 b 760 1044 601 925 714 1044 b 846 954 790 1040 846 988 b 679 838 846 938 746 875 l 596 789 l 633 765 b 804 626 676 736 804 650 b 786 558 806 608 801 582 b 732 521 775 543 753 521 b 600 615 696 521 631 583 l 549 672 l 557 586 b 553 392 561 529 568 411 b 472 378 546 381 490 378 b 376 389 429 378 389 383 b 394 585 364 393 386 538 l 404 646 l 357 607 b 328 583 349 600 339 593 z m 329 889 b 194 994 281 933 210 994 b 149 972 179 994 164 983 b 124 925 132 960 107 942 b 136 921 128 922 132 921 b 149 926 142 921 146 922 b 167 944 156 933 161 940 b 189 961 176 954 188 963 b 246 915 194 957 218 938 b 339 828 261 904 335 835 b 361 817 343 818 351 817 b 372 839 371 822 375 829 b 329 889 371 844 351 865 z m 83 917 b 85 890 76 907 76 899 b 97 886 89 888 93 886 b 111 893 101 886 107 889 b 108 919 119 903 118 911 b 97 924 106 922 101 924 b 83 917 90 924 86 921 z "},",":{"ha":397,"x_min":0,"x_max":0,"o":"m 249 265 b 193 272 229 269 211 272 b 19 157 117 272 46 228 b 14 74 10 131 8 103 b 92 -29 24 29 53 -6 b 22 -200 117 -86 56 -164 l -25 -244 l 14 -247 b 26 -249 18 -249 22 -249 l 36 -249 b 385 81 203 -249 369 -82 b 379 157 386 108 385 133 b 249 265 365 213 306 249 z m 239 -4 b 175 -18 215 -14 193 -18 b 114 -1 149 -18 131 -11 b 47 81 82 14 57 47 b 53 144 43 100 46 121 b 193 238 75 204 132 238 b 344 149 246 238 329 204 b 349 85 350 128 351 106 b 57 -212 338 -56 197 -201 b 131 -37 92 -174 142 -104 b 161 -40 140 -39 151 -40 b 239 -4 193 -40 218 -28 z m 225 196 b 235 182 224 189 226 183 b 293 142 244 181 275 171 b 304 68 303 125 310 101 b 314 56 304 61 307 57 b 328 65 321 54 326 57 b 313 153 333 104 325 132 b 239 204 290 190 247 204 b 225 196 232 206 226 203 z m 201 189 b 200 215 208 199 208 207 b 188 219 196 218 192 219 b 174 213 181 219 176 217 b 176 186 165 203 167 194 b 188 182 179 183 183 182 b 201 189 194 182 199 185 z "},".":{"ha":282,"x_min":0,"x_max":0,"o":"m 260 92 b 272 143 267 108 271 125 b 264 200 274 164 271 183 b 182 258 251 232 226 253 b 14 125 93 258 32 214 b 11 90 13 113 11 100 b 142 0 18 19 82 0 b 260 92 197 3 239 40 z m 208 215 b 232 188 219 208 228 200 b 238 146 236 172 239 158 b 142 35 233 94 199 39 b 47 92 104 35 47 43 b 49 118 46 101 47 108 b 171 224 61 183 106 224 b 208 215 183 224 196 221 z "},"/":{"ha":531,"x_min":0,"x_max":0,"o":"m 407 1047 b 388 1021 401 1042 394 1033 b 301 843 367 988 339 922 b 181 564 264 760 224 664 b 0 65 81 326 -7 86 b 117 0 18 28 76 0 b 161 15 132 0 149 4 b 386 506 190 44 351 419 l 388 510 b 558 1007 488 750 578 985 l 557 1010 l 546 1017 b 438 1056 522 1031 476 1056 b 407 1047 422 1056 413 1053 z m 367 904 b 425 1018 394 965 418 1013 b 440 1021 428 1019 433 1021 b 535 982 474 1021 522 990 b 136 40 542 940 160 64 b 117 35 131 36 122 35 b 33 79 94 35 42 56 b 214 550 29 93 117 319 b 367 904 233 596 308 781 z m 421 964 b 388 897 413 949 401 926 b 308 718 360 839 333 779 b 318 696 304 708 308 700 b 325 694 319 694 321 694 b 340 706 332 694 338 699 b 375 786 351 732 363 760 b 411 865 386 813 399 839 b 465 969 443 932 461 964 b 461 993 471 976 471 988 b 451 997 458 996 456 997 b 436 990 446 997 440 994 b 421 964 435 988 429 979 z m 301 681 b 288 674 294 681 290 678 b 289 649 281 667 282 654 b 301 644 293 646 297 644 b 315 650 308 644 313 646 b 313 676 324 660 322 668 b 301 681 310 679 306 681 z "},":":{"ha":306,"x_min":0,"x_max":0,"o":"m 156 353 b 290 496 233 353 286 424 b 283 554 292 519 290 539 b 201 611 271 583 244 607 b 33 478 111 611 51 568 b 31 443 31 464 29 453 b 156 353 35 376 97 353 z m 239 239 b 186 258 225 249 207 256 b 18 125 96 258 36 215 b 15 90 15 111 14 100 b 146 0 19 18 86 0 b 275 143 218 4 271 71 b 268 200 278 164 275 182 b 239 239 261 215 251 229 z m 175 224 b 235 188 201 224 225 211 b 240 146 240 175 242 161 b 146 35 236 94 201 39 b 50 92 108 35 50 43 l 50 106 b 53 118 50 110 51 114 b 175 224 65 183 110 224 z m 197 399 b 157 389 185 392 172 389 b 65 444 118 389 69 397 l 65 458 b 67 471 65 463 65 467 b 189 576 82 536 124 576 b 250 540 215 576 240 567 b 256 499 256 528 257 514 b 197 399 253 460 231 418 z "},";":{"ha":343,"x_min":0,"x_max":0,"o":"m 19 260 b 22 225 18 247 19 236 b 86 139 29 188 54 160 b 61 36 101 107 83 68 b 14 -18 49 18 32 0 l -11 -40 l 22 -43 b 42 -44 26 -44 32 -44 b 331 231 179 -44 319 93 b 326 294 333 253 332 274 b 172 390 311 356 231 390 b 26 293 110 390 49 354 b 19 260 22 283 21 272 z m 211 356 b 297 288 247 344 289 322 b 301 233 303 269 303 251 b 57 -14 290 115 176 -3 b 119 126 90 24 125 75 b 142 124 126 125 132 124 b 210 158 168 124 192 135 b 157 146 189 150 172 146 b 50 231 110 146 61 185 b 54 283 46 249 49 267 b 174 361 72 333 122 361 b 211 356 185 361 197 360 z m 213 457 b 290 586 256 482 288 532 b 283 643 292 607 290 626 b 201 701 271 675 244 696 b 33 568 111 701 51 658 b 31 533 31 554 29 543 b 160 443 35 463 100 443 b 213 457 179 444 197 449 z m 75 506 b 65 535 69 513 67 522 l 65 549 b 67 561 65 553 65 557 b 190 667 82 626 125 667 b 250 631 217 667 240 654 b 256 589 256 618 257 604 b 156 478 251 535 215 478 b 75 506 126 478 92 483 z m 206 313 b 251 281 226 308 242 297 b 260 224 261 267 264 247 b 272 207 260 214 264 208 b 289 219 282 206 288 210 b 276 296 294 253 288 278 b 208 342 264 314 232 342 b 194 329 201 342 196 338 b 206 313 193 319 196 314 z m 157 318 b 167 315 161 317 164 315 b 179 321 171 315 175 317 b 176 342 186 329 185 336 b 167 346 174 344 171 346 b 156 340 163 346 158 344 b 157 318 149 332 150 325 z "},"?":{"ha":868,"x_min":0,"x_max":0,"o":"m 382 186 b 511 256 433 186 490 204 b 503 449 544 336 518 415 b 847 828 571 481 858 638 b 626 1122 842 985 782 1082 l 619 1124 b 439 1146 561 1139 501 1146 b 35 890 261 1146 86 1079 l 33 888 b 26 788 25 847 22 814 b 256 628 44 675 150 628 b 301 632 271 628 286 629 b 193 385 239 581 200 461 b 232 231 188 310 194 257 b 382 186 272 201 339 186 z m 407 743 b 375 708 399 731 388 719 b 256 663 340 678 301 663 b 61 793 169 663 76 699 b 68 878 57 817 58 844 l 69 882 b 439 1111 114 1054 279 1111 b 611 1090 497 1111 554 1104 l 617 1089 b 813 826 757 1051 807 967 b 451 464 819 674 621 531 b 340 431 417 449 378 438 b 389 424 356 426 372 424 b 468 439 415 424 442 429 b 478 268 479 415 507 346 b 382 221 463 231 419 221 b 238 276 350 221 249 239 b 228 382 228 303 224 336 b 375 640 240 493 279 581 b 488 760 425 672 467 700 b 496 838 497 789 500 815 b 446 889 492 864 475 889 b 419 879 435 889 426 886 b 414 790 401 863 408 825 b 417 771 414 785 415 778 b 407 743 418 764 414 754 z m 393 -64 b 450 -18 415 -51 435 -36 l 451 -17 b 476 33 465 0 474 17 b 451 119 483 64 475 93 b 442 128 447 124 444 126 b 342 164 421 150 371 164 b 206 86 290 164 232 131 b 196 21 190 63 190 42 b 324 -82 207 -29 271 -82 b 393 -64 347 -82 371 -76 z m 394 117 b 419 101 408 108 417 103 b 443 42 442 81 447 63 b 324 -46 432 -7 372 -46 b 229 29 290 -46 236 -7 b 236 68 226 42 229 56 b 343 129 257 103 303 129 b 394 117 364 129 381 125 z m 368 1043 b 388 1058 379 1042 386 1046 b 372 1078 389 1069 385 1076 b 194 1013 311 1078 243 1050 b 90 864 151 981 114 935 b 100 842 86 854 90 846 b 106 840 101 840 104 840 b 124 851 115 840 121 844 b 336 1039 157 951 232 1018 b 368 1043 353 1042 364 1043 z m 443 835 b 443 854 442 847 442 853 b 456 847 450 854 454 851 b 461 832 460 842 461 836 b 454 772 464 815 461 796 l 451 767 l 451 776 b 447 796 450 783 449 789 b 443 835 446 808 444 822 z m 400 1067 b 419 1047 400 1056 408 1047 b 432 1051 424 1047 428 1049 b 432 1078 439 1058 442 1071 b 419 1083 429 1082 425 1083 b 407 1079 414 1083 410 1082 b 400 1067 403 1075 400 1071 z "},"@":{"ha":1176,"x_min":0,"x_max":0,"o":"m 544 315 b 639 343 578 315 610 325 b 819 251 660 314 725 251 b 1094 390 921 251 1035 311 b 1151 643 1149 463 1167 553 b 683 1076 1114 897 947 1076 b 60 571 382 1076 133 854 b 35 381 43 515 33 453 b 639 -96 42 42 342 -96 b 933 71 735 -96 933 -57 b 822 164 929 136 883 164 b 722 151 793 164 760 158 b 586 136 679 144 635 136 b 286 390 431 136 301 231 b 318 617 276 474 296 561 b 669 881 374 757 511 881 b 944 599 826 881 929 744 b 935 492 949 560 946 524 b 853 425 919 453 893 425 b 765 482 814 425 788 456 b 732 511 753 497 743 507 b 643 479 689 511 681 506 b 600 454 628 468 613 458 l 596 454 b 567 503 586 454 576 465 b 572 560 563 524 564 543 b 636 593 585 586 610 593 b 699 572 664 593 682 582 b 756 550 715 561 735 550 b 829 619 793 550 824 585 b 806 692 833 643 826 668 l 804 693 b 606 776 749 742 682 776 b 401 639 515 776 439 722 b 390 439 375 579 369 510 b 544 315 411 367 467 315 z m 568 610 b 542 575 556 599 546 588 b 532 496 529 551 525 525 b 593 418 547 436 567 418 b 608 421 599 418 603 419 b 664 450 626 425 643 438 b 718 478 685 465 703 478 b 724 476 719 478 722 478 b 728 472 725 475 726 474 b 738 460 732 468 736 464 b 853 390 769 422 801 390 b 968 481 913 390 950 426 b 979 601 981 515 983 558 b 669 917 964 764 844 917 b 285 629 497 917 347 785 b 286 268 247 542 225 369 b 585 101 343 163 451 101 b 728 117 635 101 683 110 b 822 129 763 124 794 129 b 897 71 865 129 896 115 b 885 26 899 56 894 40 b 639 -61 836 -40 715 -61 b 71 382 353 -61 78 67 b 93 561 69 449 78 507 b 453 990 147 757 264 907 b 685 1040 526 1024 607 1040 b 1117 638 933 1040 1079 872 b 1067 411 1129 556 1115 476 b 819 288 1015 342 907 288 b 699 332 765 288 726 310 b 657 376 683 344 669 360 l 647 393 l 632 382 b 544 350 606 361 576 350 b 424 449 483 350 440 393 b 433 624 406 511 411 574 b 606 742 465 694 528 742 b 781 667 671 742 732 710 b 794 625 792 654 796 640 b 753 585 790 604 775 585 b 717 601 740 589 729 594 l 700 613 l 699 613 b 610 633 671 628 642 633 b 504 603 567 633 531 624 b 568 610 528 607 550 608 z m 115 372 b 100 353 103 371 99 364 b 321 58 115 215 172 92 b 342 71 331 58 340 60 b 329 93 346 82 342 89 b 135 356 197 122 150 232 b 115 372 133 367 126 372 z m 104 431 b 101 404 94 422 93 414 b 115 399 106 400 110 399 b 129 428 129 399 142 415 b 115 435 128 432 122 435 b 104 431 111 435 107 433 z "},"\\":{"ha":561,"x_min":0,"x_max":0,"o":"m 318 710 b 260 843 297 757 278 801 b 174 1021 222 922 194 988 b 124 1056 158 1044 153 1056 b 46 1033 97 1056 68 1044 b 6 1010 32 1026 18 1018 l 1 1007 b 174 510 -18 985 74 750 l 175 506 b 401 15 210 418 374 49 b 444 0 413 4 429 0 b 561 65 482 0 546 28 b 381 564 568 86 481 326 b 318 710 360 614 339 663 z m 322 256 b 208 519 276 361 228 475 b 174 600 196 546 185 574 b 28 982 93 794 24 965 l 43 992 b 121 1021 61 1004 99 1021 b 150 997 136 1021 138 1022 b 200 894 163 972 182 936 b 260 758 226 833 254 772 b 349 550 288 693 317 622 b 528 79 444 322 535 89 b 444 35 517 56 472 35 b 425 40 436 35 429 36 b 322 256 414 51 368 147 z m 100 993 b 96 969 90 988 90 976 b 150 865 100 964 118 932 b 221 706 176 811 199 760 b 236 694 224 699 229 694 b 243 696 240 694 242 694 b 253 718 253 700 257 708 b 174 897 228 779 201 839 b 125 990 146 957 129 985 b 110 997 121 994 115 997 b 100 993 106 997 103 996 z m 279 661 b 274 674 279 665 278 669 b 260 681 272 678 267 681 b 249 676 256 681 251 679 b 246 650 239 668 238 660 b 260 644 250 646 254 644 b 279 661 269 644 278 650 z "},"+":{"ha":969,"x_min":0,"x_max":0,"o":"m 444 36 b 469 35 457 35 465 35 b 614 65 507 35 596 36 b 633 354 632 90 633 318 b 824 361 710 356 775 357 b 925 393 907 367 922 378 b 939 525 936 419 940 474 b 896 657 939 556 929 642 b 804 667 886 661 853 663 b 632 672 760 668 699 671 b 624 842 631 739 628 799 b 607 926 619 888 617 919 b 485 949 586 947 517 949 b 331 906 446 949 344 944 b 321 825 326 896 325 868 b 315 674 317 786 317 733 b 124 667 238 672 172 671 b 32 640 69 663 38 656 l 31 635 b 25 515 26 592 25 551 b 56 372 25 453 32 388 b 142 358 65 365 96 363 b 313 353 186 354 246 354 b 319 140 313 269 315 194 b 346 42 324 85 331 47 l 351 40 b 444 36 357 38 408 36 z m 421 911 b 486 914 444 913 471 914 b 579 903 513 914 557 913 b 583 901 581 903 582 901 b 597 654 589 896 597 674 l 597 638 l 614 638 b 882 624 640 638 868 633 b 903 524 894 613 901 569 b 893 407 907 475 903 428 b 892 404 892 406 892 406 b 617 389 885 397 638 389 l 599 389 l 599 342 b 585 85 599 268 593 99 b 514 68 576 74 540 68 l 492 68 b 360 75 447 68 403 71 l 354 143 b 347 371 350 203 347 282 l 347 388 l 329 388 b 74 401 303 388 90 392 b 67 621 47 419 63 589 b 126 632 71 621 92 628 b 332 639 178 636 250 638 l 349 639 b 454 614 386 638 421 631 b 350 668 422 646 394 663 b 363 893 350 693 354 878 b 421 911 372 903 394 907 z m 418 121 b 408 139 411 121 408 126 l 407 144 b 399 396 403 211 399 381 b 381 413 399 407 393 413 b 364 393 371 413 363 404 b 372 142 364 378 368 208 l 374 136 b 435 85 378 86 389 85 b 471 88 446 85 458 86 b 486 106 483 88 488 93 b 467 122 485 117 478 122 b 435 119 457 121 446 119 b 426 121 432 119 429 119 z m 503 118 b 506 92 494 108 496 100 b 517 88 508 89 513 88 b 531 94 524 88 528 90 b 529 119 538 101 536 114 b 517 125 525 124 521 125 b 503 118 513 125 507 122 z "},"<":{"ha":599,"x_min":0,"x_max":0,"o":"m 115 685 b 13 558 64 636 24 592 b 8 529 10 549 8 539 b 169 251 13 499 88 371 l 172 246 b 360 18 206 197 310 50 b 422 0 379 6 400 0 b 588 129 494 0 565 63 b 390 451 610 196 442 394 b 581 639 453 492 554 567 b 558 774 596 683 585 731 b 432 876 539 808 478 876 b 115 685 367 876 219 778 z m 44 532 b 46 547 43 535 44 540 b 300 781 71 619 225 732 b 429 842 354 815 403 838 l 436 842 b 529 756 474 826 508 789 b 547 650 550 722 560 683 b 442 531 533 610 483 563 l 403 501 b 399 499 401 500 400 500 b 372 481 389 492 379 486 b 229 449 329 457 278 453 b 304 431 256 436 281 431 b 356 439 321 431 338 433 b 554 139 386 403 572 199 b 422 35 539 89 476 35 b 378 49 408 35 393 39 b 169 314 326 82 214 247 b 44 532 103 415 44 510 z m 207 664 b 206 639 199 656 199 647 b 218 632 208 635 213 632 b 229 636 222 632 226 633 b 442 781 296 692 363 747 b 451 804 451 785 456 794 b 435 815 449 811 443 815 b 428 814 433 815 432 814 b 207 664 350 782 272 718 z m 157 625 b 156 599 149 617 149 608 b 169 592 158 594 163 592 b 181 596 174 592 178 593 b 183 622 190 603 190 615 b 169 629 179 626 174 629 b 157 625 165 629 161 628 z "},"=":{"ha":706,"x_min":0,"x_max":0,"o":"m 299 1 b 368 0 324 0 347 0 l 469 0 b 517 1 486 0 501 0 b 669 24 613 6 657 11 b 678 38 674 29 676 33 b 690 161 688 61 694 113 b 647 286 690 192 683 272 b 397 306 608 300 488 306 l 319 306 b 24 274 264 306 39 304 l 22 271 l 21 254 b 47 21 17 200 8 50 b 299 1 68 8 196 6 z m 299 326 b 368 325 324 325 347 325 l 415 325 b 517 326 454 325 488 326 b 669 350 613 331 657 338 b 678 363 672 353 675 357 b 690 486 688 386 694 438 b 647 611 690 517 683 600 b 397 631 608 625 488 631 l 319 631 b 24 600 264 631 39 629 l 22 596 b 17 482 18 554 17 517 b 47 347 17 424 25 363 b 299 326 67 332 197 331 z m 372 358 b 67 375 276 358 85 361 b 57 589 42 393 53 561 b 269 599 68 596 158 599 b 517 594 351 599 433 597 b 635 581 588 590 622 586 b 656 486 647 569 654 529 b 646 375 660 440 656 396 l 643 372 b 517 360 638 365 601 361 b 415 358 489 360 456 358 z m 269 272 b 517 268 353 272 433 272 b 635 254 588 264 622 260 b 656 160 647 244 654 203 b 646 50 660 115 656 71 l 643 47 b 517 35 638 40 601 36 b 471 33 503 33 488 33 l 372 33 b 67 49 275 33 88 39 b 57 264 42 67 53 233 b 192 272 64 269 118 272 z m 269 221 b 460 215 321 221 382 219 b 478 231 472 214 478 218 b 461 249 478 240 472 247 b 232 254 383 253 310 254 b 74 243 131 253 81 247 b 63 222 64 240 60 233 b 83 211 67 211 74 211 b 233 221 100 217 182 221 z m 347 544 b 460 540 385 543 422 542 b 478 556 472 540 478 546 b 461 574 478 568 472 574 b 232 579 383 578 310 579 b 74 569 131 578 81 571 b 63 549 64 565 58 558 b 78 536 64 540 69 536 b 83 538 81 536 82 536 b 233 546 90 539 133 544 b 347 544 271 546 310 546 z m 501 567 b 497 553 499 563 497 557 b 517 538 497 543 510 538 b 531 543 522 538 526 539 b 528 568 539 553 538 561 b 517 572 525 571 521 572 b 501 567 510 572 506 571 z m 497 228 b 504 215 497 224 500 219 b 517 213 507 214 511 213 b 531 218 522 213 526 214 b 528 243 539 226 538 235 b 517 247 525 246 521 247 b 501 240 511 247 506 244 b 497 228 499 236 497 232 z "},">":{"ha":603,"x_min":0,"x_max":0,"o":"m 86 294 b 14 129 38 231 3 161 b 179 0 36 63 107 0 b 301 78 236 0 268 38 b 429 246 340 121 385 181 l 432 251 b 593 529 518 371 589 499 b 301 821 593 629 381 775 b 169 876 272 839 207 876 b 43 774 124 876 63 808 b 21 639 17 731 6 683 b 211 451 47 567 149 492 b 86 294 186 424 132 360 z m 47 139 b 246 439 29 199 215 403 b 297 431 264 433 282 431 b 372 449 321 431 346 436 b 229 481 324 453 272 457 b 203 499 222 486 213 492 b 199 501 201 500 200 500 l 160 531 b 54 650 118 563 68 610 b 74 756 43 683 53 722 b 167 842 92 789 129 826 l 172 842 b 558 532 250 836 564 610 b 224 49 553 485 299 94 b 179 35 208 39 193 35 b 47 139 125 35 65 88 z m 174 814 b 167 815 169 814 168 815 b 150 804 158 815 153 811 b 160 781 146 794 150 785 b 372 636 231 754 314 688 b 383 632 375 633 379 632 b 396 639 389 632 393 635 b 394 664 403 646 401 657 b 176 813 335 713 244 786 b 174 814 175 813 174 813 z m 418 622 b 421 596 411 615 411 603 b 432 592 424 593 428 592 b 446 599 439 592 443 594 b 444 625 453 608 453 617 b 432 629 440 628 436 629 b 418 622 428 629 422 626 z "},"~":{"ha":778,"x_min":0,"x_max":0,"o":"m 31 750 b 14 619 4 700 4 657 b 117 531 29 574 67 531 b 207 601 160 531 186 568 b 276 657 228 629 244 657 b 318 644 289 657 301 654 b 394 592 344 628 368 610 b 565 506 439 554 506 506 b 761 688 654 506 742 608 b 764 742 765 708 767 726 b 669 821 754 790 718 821 b 596 786 638 821 617 803 b 536 758 579 771 563 758 b 400 828 490 758 435 801 b 268 892 360 860 322 890 b 176 874 236 890 206 883 b 31 750 126 857 68 821 z m 74 586 b 47 629 61 599 51 614 b 63 733 38 657 42 693 b 268 857 122 851 257 857 b 332 835 289 856 311 849 b 379 801 347 825 363 813 b 539 724 422 767 479 724 b 618 760 574 724 596 742 b 671 785 633 772 649 785 b 729 736 703 785 724 765 b 726 694 731 721 731 707 b 567 543 711 631 639 543 b 501 561 546 543 524 549 b 415 619 472 576 444 597 b 336 675 389 640 363 658 l 332 676 b 278 694 311 689 293 694 b 231 701 260 699 243 701 b 161 685 206 701 182 696 b 225 678 188 683 207 682 b 200 651 215 671 207 661 l 178 621 b 138 572 165 600 153 582 b 117 565 131 568 124 565 b 74 586 100 565 86 572 z m 363 769 b 365 746 354 761 356 753 b 535 672 414 707 469 672 b 639 717 569 672 606 683 b 639 742 647 725 647 733 b 626 747 635 746 631 747 b 614 742 624 747 619 746 b 533 707 588 715 560 707 b 386 774 479 707 426 740 b 376 776 382 775 379 776 b 363 769 369 776 365 774 z m 321 803 b 318 776 311 794 310 786 b 332 769 322 772 328 769 b 344 774 336 769 340 771 b 347 800 351 781 353 793 b 332 807 343 804 338 807 b 321 803 328 807 324 806 z "},"":{"ha":843,"x_min":0,"x_max":0,"o":"m 563 775 b 418 649 525 743 474 700 b 310 754 375 692 339 726 b 247 806 278 783 257 801 b 235 808 243 807 239 808 b 124 746 208 810 164 781 b 33 631 101 724 33 665 b 79 557 32 619 50 594 b 190 429 106 524 146 478 b 69 306 142 381 101 338 b 10 235 36 268 14 244 b 7 222 8 229 7 225 b 69 110 6 196 35 150 b 186 19 92 88 150 24 b 265 72 197 19 226 39 b 408 197 303 104 353 147 b 622 1 438 168 588 7 b 628 0 624 0 625 0 b 829 164 681 0 794 126 l 832 168 b 783 260 838 183 821 214 b 642 418 738 314 690 364 b 815 608 668 444 807 576 b 664 806 826 657 704 768 b 654 814 660 810 656 813 l 647 819 b 640 821 643 819 644 821 b 563 775 625 821 599 806 z m 481 175 b 421 233 451 203 428 228 l 410 246 l 397 233 b 188 56 382 218 197 56 b 42 221 160 56 42 188 b 172 361 49 235 117 306 l 239 428 l 228 440 b 68 628 215 453 68 619 b 233 774 68 656 200 774 b 286 728 239 769 257 754 b 397 621 315 700 354 664 b 360 508 369 586 358 553 b 418 600 375 547 392 574 l 431 611 b 585 749 490 667 544 715 b 635 781 611 769 631 776 b 664 756 640 776 651 768 b 781 617 708 714 788 642 b 646 471 778 606 699 524 l 593 419 l 604 407 b 756 238 656 351 707 297 l 800 183 b 664 50 786 165 711 82 b 629 35 649 39 636 33 b 526 129 621 38 572 82 z m 546 401 b 551 389 544 397 547 393 b 717 201 607 326 663 267 l 721 197 b 726 176 728 188 732 183 b 689 143 714 165 704 154 b 686 119 682 138 681 126 b 700 113 690 115 696 113 b 751 153 711 113 744 143 b 747 219 779 181 768 193 l 743 224 b 576 413 694 283 631 361 b 563 418 572 417 568 418 b 551 414 558 418 554 417 b 546 401 547 410 546 406 z m 646 100 b 661 79 644 88 649 81 b 682 96 674 79 681 85 b 667 115 683 106 676 115 b 646 100 654 117 647 111 z "},"":{"ha":892,"x_min":0,"x_max":0,"o":"m 618 864 b 474 1014 614 954 563 1013 b 251 793 344 1014 263 913 b 253 743 250 772 250 756 b 294 667 258 711 271 688 b 19 633 249 667 32 665 l 18 631 l 17 614 b 43 367 13 557 3 393 b 360 344 71 349 296 344 b 251 157 289 304 258 235 b 253 106 250 136 250 118 b 411 -3 268 24 335 -3 b 604 140 513 -3 572 40 b 618 228 614 167 618 196 b 567 346 617 272 601 317 b 857 369 707 350 844 357 b 867 383 861 374 864 378 b 879 515 876 410 881 461 b 836 646 879 547 872 632 b 528 664 821 654 672 660 b 618 864 586 708 618 790 z m 572 629 b 824 614 693 626 807 622 b 844 514 836 603 840 560 b 833 397 846 465 843 418 b 832 393 833 396 832 394 b 433 379 822 383 501 379 l 368 379 b 63 396 271 379 82 386 b 53 622 36 414 49 593 b 265 633 63 629 153 633 b 572 629 318 633 450 632 z m 582 226 b 571 151 583 203 579 178 b 410 32 543 67 499 32 b 288 113 353 32 297 50 b 286 154 285 122 285 136 b 474 343 296 265 363 333 b 582 226 546 342 581 294 z m 582 863 b 571 788 583 839 579 814 b 410 668 543 703 499 668 b 288 749 351 668 299 686 b 286 790 285 760 285 774 b 474 979 293 896 367 979 b 582 863 546 978 581 931 z m 69 601 b 57 579 57 597 53 590 b 74 567 61 571 67 567 b 79 568 76 567 78 567 b 228 578 85 569 128 576 b 454 571 304 578 378 576 b 474 588 465 571 472 576 b 457 607 474 599 468 606 b 228 613 379 611 306 613 b 69 601 124 611 76 606 z m 497 599 b 500 572 489 589 490 581 b 511 568 503 569 507 568 b 525 575 518 568 522 571 b 524 601 532 585 532 593 b 511 606 519 604 515 606 b 497 599 507 606 501 603 z "},"":{"ha":814,"x_min":0,"x_max":0,"o":"m 583 200 b 724 218 650 201 714 207 b 732 231 726 221 729 225 b 743 349 742 253 744 300 b 704 467 743 376 735 457 b 329 486 667 482 407 486 b 60 456 279 486 71 485 l 58 453 l 57 438 b 81 215 53 385 47 239 b 413 196 108 197 353 196 b 583 200 442 196 515 196 z m 497 451 b 693 438 586 449 678 446 b 711 347 704 428 710 390 b 703 243 715 304 710 261 b 701 240 701 242 701 242 b 451 226 692 231 532 226 l 413 226 b 99 242 360 226 119 229 b 90 446 74 260 86 419 b 281 454 100 453 181 454 l 331 454 b 497 451 375 454 435 453 z m 468 414 b 454 431 469 424 464 431 b 247 436 383 435 318 436 b 104 426 154 436 111 431 b 94 407 94 424 92 417 b 114 396 96 397 104 396 b 249 406 128 401 201 406 l 281 406 b 451 400 326 406 383 404 b 468 414 461 399 468 404 z m 490 424 b 492 400 483 415 485 407 b 503 397 497 399 501 397 b 515 403 508 397 513 399 b 514 426 522 410 521 421 b 503 431 511 429 507 431 b 490 424 497 431 493 428 z "},"":{"ha":814,"x_min":0,"x_max":0,"o":"m 494 190 b 735 211 585 190 721 194 b 743 224 738 214 740 218 b 754 342 753 246 756 293 b 715 460 754 368 746 450 b 340 479 678 476 417 479 b 71 449 290 479 82 478 l 69 444 b 64 338 65 406 64 369 b 92 208 65 282 71 224 b 424 189 119 190 364 189 b 494 190 439 189 463 189 z m 582 222 b 424 219 517 221 450 219 b 110 235 372 221 129 221 b 101 439 85 253 97 413 b 292 447 111 444 192 447 l 349 447 b 704 431 464 447 678 444 b 722 340 715 419 721 383 b 714 236 726 297 721 254 b 711 232 713 235 713 233 b 582 222 706 226 647 222 z m 475 419 b 464 424 472 422 468 424 b 258 429 396 428 326 429 b 115 419 165 428 122 421 b 106 400 106 417 103 410 b 125 389 107 390 115 389 b 258 397 131 390 169 397 b 463 393 326 397 394 396 b 479 407 472 392 479 397 b 475 419 479 411 478 415 z m 497 404 b 503 393 497 400 499 396 b 514 389 507 390 511 389 b 526 396 519 389 524 392 b 525 419 533 404 532 413 b 514 422 519 421 515 422 b 497 404 503 422 497 414 z "},"-":{"ha":814,"x_min":0,"x_max":0,"o":"m 494 194 b 735 215 585 194 721 201 b 743 229 739 221 742 225 b 754 346 753 251 756 300 b 715 465 754 375 746 451 b 389 483 683 479 496 483 l 336 483 b 71 454 288 483 82 482 l 69 450 b 64 343 65 411 64 375 b 92 214 65 288 71 229 b 424 193 121 196 364 193 b 494 194 439 193 463 193 z m 582 228 b 424 225 517 226 450 225 b 110 240 372 226 129 226 b 101 443 85 254 97 418 b 292 453 111 450 192 453 l 349 453 b 704 436 464 453 678 450 b 722 346 715 425 721 386 b 714 240 726 303 721 258 l 711 238 b 582 228 706 232 647 228 z m 479 413 b 464 429 479 422 474 429 b 258 435 396 433 326 435 b 115 425 165 433 122 426 b 106 406 106 422 103 415 b 119 393 107 397 113 393 b 125 394 122 393 124 393 b 258 403 131 396 169 401 b 463 397 326 403 394 401 b 479 413 472 397 479 403 z m 501 422 b 503 399 496 415 496 404 b 514 394 507 396 511 394 b 526 400 518 394 522 396 b 525 424 533 410 532 418 b 514 428 521 426 518 428 b 501 422 508 428 504 426 z "},"_":{"ha":814,"x_min":0,"x_max":0,"o":"m 594 4 b 735 22 661 6 725 13 l 743 35 b 754 153 753 57 756 107 b 715 272 754 182 746 258 b 393 290 683 286 496 290 l 340 290 b 71 261 290 290 82 289 l 69 257 b 64 150 65 218 64 182 b 92 21 65 94 71 36 b 424 0 121 3 364 0 b 594 4 453 0 526 0 z m 583 35 b 463 32 539 33 496 32 l 424 32 b 110 47 372 33 129 33 b 101 250 85 61 97 225 b 292 260 111 257 192 260 l 349 260 b 704 242 465 260 676 256 b 722 151 715 232 721 194 b 714 47 726 108 721 65 l 711 44 b 583 35 706 39 646 35 z m 475 208 b 479 219 478 211 479 215 b 464 236 479 229 474 235 b 258 242 396 240 326 242 b 115 231 165 240 122 235 b 106 211 106 229 101 221 b 119 200 107 204 113 200 b 125 201 122 200 124 200 b 258 210 131 203 169 208 b 463 204 326 210 394 208 b 475 208 467 204 471 206 z m 525 231 b 514 235 521 233 518 235 b 501 229 510 235 506 233 b 503 206 496 222 496 211 b 514 201 507 203 511 201 b 525 231 531 201 536 222 z "},"":{"ha":782,"x_min":0,"x_max":0,"o":"m 96 693 b 154 668 113 676 132 668 b 190 679 168 668 181 672 b 236 732 211 692 221 711 b 299 782 253 758 269 782 b 404 722 328 782 381 742 b 500 660 436 699 468 675 b 558 646 521 650 540 646 b 735 810 635 646 719 739 b 736 858 739 825 739 842 b 651 929 729 901 694 929 b 585 899 622 929 606 914 b 532 874 569 886 556 874 b 506 879 522 874 514 875 b 500 881 503 879 501 879 b 410 936 465 893 436 915 b 290 993 372 965 339 992 b 208 978 261 992 235 988 b 78 865 163 961 110 931 b 63 749 54 821 53 781 b 96 693 68 728 79 708 z m 115 719 b 92 757 104 732 96 744 b 106 851 85 783 85 814 b 290 963 161 958 279 963 b 390 911 329 958 361 935 b 533 842 428 882 483 842 b 606 874 565 842 585 858 b 653 897 621 886 632 897 b 706 853 681 897 700 879 b 704 817 707 840 707 828 b 558 679 689 757 625 679 b 424 749 511 679 458 722 b 351 799 400 765 378 783 l 349 800 b 300 817 329 810 313 815 b 257 822 286 821 272 822 b 194 807 236 822 215 817 b 251 801 217 806 235 806 b 210 750 236 789 222 771 b 174 706 199 732 186 715 b 154 700 169 701 163 700 b 115 719 139 700 125 707 z m 375 883 b 378 861 369 878 371 867 b 531 796 421 828 474 796 b 625 836 563 796 593 807 b 625 858 632 843 632 850 b 614 863 621 861 618 863 b 603 858 610 863 606 861 b 529 828 579 836 556 828 b 397 886 481 828 435 857 b 388 890 394 889 392 890 b 375 883 382 890 378 888 z m 349 883 b 349 917 368 883 372 917 b 338 914 344 917 342 915 b 336 890 329 906 329 897 b 349 883 339 886 343 883 z "},"":{"ha":588,"x_min":0,"x_max":0,"o":"m 535 929 b 454 953 510 944 483 953 b 313 867 401 953 328 922 b 308 810 308 849 307 829 b 572 563 319 688 447 563 b 590 564 578 563 585 564 l 621 567 l 585 600 b 532 726 558 625 513 685 b 590 804 560 744 583 771 b 586 865 594 825 593 846 b 535 929 576 892 558 914 z m 307 567 l 285 586 b 242 635 268 601 254 618 b 218 726 221 663 206 699 b 278 804 247 744 271 771 b 272 865 282 826 281 847 b 140 953 251 919 197 953 b 21 904 100 953 51 935 b 0 867 11 893 4 881 b -4 810 -6 849 -7 829 b 260 563 7 688 133 563 b 278 564 265 563 271 564 z m 478 718 b 501 721 488 718 492 719 b 558 590 494 672 533 619 b 335 811 451 601 346 703 b 339 860 333 828 335 844 b 454 926 350 901 415 926 b 561 857 500 926 544 901 b 564 810 567 840 568 825 b 514 749 558 783 540 758 b 468 735 500 739 485 735 b 419 746 456 735 440 739 b 478 718 435 728 454 718 z m 47 733 b 22 811 33 758 25 785 b 25 860 21 826 22 842 b 140 926 36 900 101 926 b 247 857 186 926 231 901 b 251 810 254 842 256 825 b 201 747 246 782 225 763 l 197 746 b 156 735 186 740 172 735 b 107 746 143 735 126 739 b 165 718 122 728 142 718 b 189 721 175 718 179 719 b 244 590 178 672 219 618 b 47 733 165 599 86 657 z m 108 888 b 115 897 115 888 117 890 b 106 904 114 901 110 904 b 50 865 96 900 67 893 b 38 800 38 849 33 826 b 49 793 39 793 43 792 b 56 803 53 793 56 796 b 64 857 51 826 57 844 b 108 888 79 879 103 886 z m 351 839 b 351 800 349 828 349 815 b 361 793 351 793 354 792 b 368 803 368 793 369 796 b 378 857 364 826 368 844 b 422 888 393 879 415 886 b 428 897 428 888 429 890 b 418 904 428 901 425 904 b 363 865 408 900 381 893 b 351 839 358 858 354 849 z m 458 885 b 467 889 461 885 464 886 b 469 908 474 893 475 900 b 458 913 467 911 463 913 b 449 910 456 913 453 911 b 447 890 442 903 442 897 b 458 885 450 886 454 885 z m 136 910 b 135 890 129 903 129 897 b 144 885 138 886 140 885 b 154 889 149 885 151 886 b 156 908 161 894 163 901 b 146 913 153 911 150 913 b 136 910 143 913 140 911 z "},"":{"ha":588,"x_min":0,"x_max":0,"o":"m 517 947 b 474 953 501 951 486 953 b 342 865 417 953 363 919 b 338 804 335 846 333 825 b 396 726 344 771 368 744 b 374 635 411 699 394 663 b 331 586 361 618 347 601 l 307 567 l 338 564 b 356 563 343 564 349 563 b 619 810 482 563 608 688 b 615 867 621 829 619 849 b 517 947 604 908 560 936 z m 307 810 b 303 867 308 829 307 849 b 161 953 288 922 211 953 b 29 865 104 953 50 919 b 25 804 22 844 19 825 b 83 726 32 771 54 744 b 60 635 99 699 81 663 b 17 586 47 618 33 601 l -6 567 l 25 564 b 42 563 31 564 36 563 b 307 810 168 563 296 688 z m 136 718 b 196 746 161 718 181 728 b 147 735 175 739 160 735 b 50 810 104 735 60 767 b 54 857 47 825 49 842 b 161 926 71 901 115 926 b 276 860 200 926 265 901 b 281 811 281 844 282 828 b 57 590 269 703 164 601 b 113 721 82 618 124 672 b 136 718 122 719 129 718 z m 474 926 b 589 860 513 926 578 901 b 593 811 593 844 594 828 b 369 590 582 703 476 601 b 426 721 394 619 433 672 b 449 718 436 719 443 718 b 508 746 474 718 493 728 b 460 735 488 739 472 735 b 417 746 443 735 429 740 l 414 747 b 364 810 388 763 369 782 b 367 857 360 825 361 840 b 474 926 383 901 428 926 z m 500 897 b 506 888 499 890 500 888 b 551 857 513 886 536 879 b 560 803 558 844 564 826 b 567 793 558 796 560 793 b 576 800 574 792 576 793 b 565 865 582 829 575 850 b 510 904 547 893 519 900 b 500 897 503 904 500 901 z m 186 897 b 193 888 186 890 189 888 b 238 857 200 886 222 879 b 247 803 247 843 250 825 b 254 793 246 796 247 793 b 264 800 261 792 264 793 b 253 865 268 829 263 850 b 197 904 235 893 204 900 b 186 897 192 904 188 901 z m 479 910 b 469 913 475 911 472 913 b 458 908 465 913 461 911 b 461 889 453 900 454 893 b 469 885 464 886 467 885 b 481 890 474 885 478 886 b 479 910 488 897 486 903 z m 146 908 b 149 889 140 900 142 893 b 157 885 150 886 153 885 b 168 890 161 885 165 886 b 165 910 174 897 172 904 b 157 913 161 911 158 913 b 146 908 153 913 149 911 z "},"":{"ha":588,"x_min":0,"x_max":0,"o":"m 497 251 b 456 257 482 256 468 257 b 324 171 399 257 344 225 b 318 108 317 149 314 128 b 378 32 325 79 343 53 b 325 -96 397 -12 351 -68 l 289 -129 l 319 -132 l 336 -132 b 601 114 463 -132 590 -10 b 597 171 603 133 601 153 b 497 251 586 213 539 240 z m 283 171 b 143 257 268 226 194 257 b 11 171 86 257 32 225 b 6 108 3 150 1 129 b 65 32 13 79 31 53 b 13 -96 85 -12 39 -68 l -24 -129 l 7 -132 l 24 -132 b 288 114 150 -132 276 -10 b 283 171 290 133 289 153 z m 456 231 b 571 164 494 231 560 208 b 575 117 575 149 576 133 b 351 -106 564 11 458 -99 b 407 25 376 -78 418 -24 b 419 24 411 24 415 24 l 431 24 b 490 50 456 24 475 32 b 442 40 472 43 456 40 b 394 53 426 40 410 44 b 344 114 371 63 350 88 b 349 161 342 129 343 146 b 456 231 365 206 410 231 z m 178 50 b 129 40 160 43 143 40 b 82 53 111 40 96 44 b 32 114 58 63 38 88 b 36 161 29 129 31 146 b 143 231 53 206 97 231 b 258 164 182 231 247 206 b 261 117 263 151 263 135 b 39 -106 250 11 146 -99 b 94 25 64 -78 106 -24 b 107 24 99 24 103 24 l 118 24 b 178 50 142 24 161 32 z m 168 201 b 175 192 167 194 168 192 b 219 161 181 190 204 183 b 228 107 229 147 232 129 b 236 97 228 100 231 97 b 246 104 240 96 244 97 b 235 169 250 133 244 154 b 178 208 217 197 188 207 b 168 201 174 210 169 208 z m 481 201 b 488 192 479 194 481 192 b 532 161 493 190 517 183 b 542 107 542 147 544 129 b 549 97 540 100 542 97 b 558 104 556 96 558 97 b 547 169 563 133 557 154 b 492 208 529 197 499 207 b 481 201 486 210 482 207 z m 451 189 b 463 194 456 189 458 190 b 460 214 467 200 467 210 b 451 217 458 215 456 217 b 442 193 438 217 432 200 b 451 189 444 190 447 189 z m 128 213 b 129 193 122 207 124 197 b 138 189 132 190 135 189 b 149 194 142 189 144 190 b 147 214 154 200 153 210 b 139 217 146 215 143 217 b 128 213 135 217 131 215 z "},"":{"ha":399,"x_min":0,"x_max":0,"o":"m 251 982 b 196 989 232 986 214 989 b 22 874 118 989 49 944 b 15 790 13 846 10 818 b 93 688 25 746 56 711 b 25 518 117 631 58 551 l -24 472 l 17 469 b 39 468 21 468 29 468 b 386 797 207 468 371 635 b 381 874 389 824 388 850 b 251 982 367 928 308 965 z m 206 685 b 240 713 218 690 231 700 b 176 699 217 703 194 699 b 121 713 156 699 138 703 l 115 715 b 50 797 83 733 60 760 b 56 861 46 819 47 840 b 196 954 76 921 135 954 b 347 865 250 954 332 921 b 351 800 351 844 353 822 b 58 504 340 661 199 515 b 132 679 93 546 143 610 b 149 676 138 678 143 676 l 163 676 b 206 685 178 676 193 679 z m 236 899 b 294 858 246 897 276 888 b 307 785 306 842 311 818 b 317 772 306 778 308 774 b 329 782 322 771 329 775 b 314 869 335 821 329 849 b 242 921 292 907 251 919 b 236 899 226 925 221 903 z m 204 906 b 201 932 211 913 211 925 b 190 936 199 935 194 936 b 175 929 185 936 179 933 b 178 903 168 919 169 910 b 190 899 182 900 186 899 b 204 906 194 899 200 901 z "},"":{"ha":399,"x_min":0,"x_max":0,"o":"m 299 958 b 192 989 267 979 231 989 b 7 874 124 989 25 946 b 1 797 0 850 -1 824 b 226 497 13 675 107 551 b 349 468 267 478 307 468 l 360 468 b 371 469 364 468 367 468 l 411 472 l 364 518 b 294 688 328 551 271 632 b 372 790 332 711 363 746 b 365 874 378 818 375 846 b 299 958 353 908 331 938 z m 329 504 b 36 800 189 515 47 661 b 40 865 33 822 35 844 b 192 954 56 921 139 954 b 332 861 253 954 311 921 b 338 797 340 840 342 819 b 272 715 328 760 304 733 l 267 713 b 210 699 250 703 231 699 b 146 713 192 699 169 703 b 225 676 167 689 193 676 l 240 676 b 256 679 244 676 250 678 b 329 504 244 610 294 546 z m 58 782 b 71 772 58 775 65 771 b 81 785 79 774 82 778 b 92 858 75 818 82 842 b 151 899 113 888 142 897 b 146 921 167 903 161 925 b 72 869 136 919 96 907 b 58 782 60 849 51 821 z m 197 899 b 210 903 201 899 206 900 b 213 929 218 911 219 919 b 197 936 208 933 203 936 b 186 932 193 936 189 935 b 183 906 176 925 176 913 b 197 899 188 901 193 899 z "},"":{"ha":399,"x_min":0,"x_max":0,"o":"m 278 278 b 222 285 257 282 239 285 b 49 169 144 285 75 240 b 42 86 39 142 36 114 b 119 -17 51 42 82 6 b 51 -187 144 -74 85 -151 l 3 -232 l 43 -236 l 65 -236 b 413 93 232 -236 397 -69 b 407 169 415 119 414 146 b 278 278 393 224 335 261 z m 222 250 b 374 161 275 250 358 217 b 378 96 378 140 379 118 b 85 -200 367 -43 225 -189 b 158 -25 121 -161 169 -93 b 175 -28 164 -26 169 -28 l 189 -28 b 267 8 221 -28 246 -18 b 203 -6 243 -1 221 -6 b 76 93 147 -6 88 38 b 82 157 72 115 74 136 b 222 250 103 217 161 250 z m 268 217 b 263 194 253 221 247 199 b 321 154 272 193 303 183 b 333 81 332 138 338 114 b 343 68 332 74 335 69 b 356 78 349 67 356 71 b 340 165 361 117 356 144 b 268 217 318 203 278 215 z m 228 228 b 217 232 225 231 221 232 b 201 225 211 232 206 229 b 204 199 194 215 196 206 b 217 194 208 196 213 194 b 231 201 221 194 226 197 b 228 228 236 208 238 221 z "},"":{"ha":599,"x_min":0,"x_max":0,"o":"m 115 685 b 13 558 64 636 24 592 b 8 529 10 549 8 539 b 169 251 13 499 88 371 l 172 246 b 360 18 206 197 310 50 b 422 0 379 6 400 0 b 588 129 494 0 565 63 b 390 451 610 196 442 394 b 581 639 453 492 554 567 b 558 774 596 683 585 731 b 432 876 539 808 478 876 b 115 685 367 876 219 778 z m 44 532 b 46 547 43 535 44 540 b 300 781 71 619 225 732 b 429 842 354 815 403 838 l 436 842 b 529 756 474 826 508 789 b 547 650 550 722 560 683 b 442 531 533 610 483 563 l 403 501 b 399 499 401 500 400 500 b 372 481 389 492 379 486 b 229 449 329 457 278 453 b 304 431 256 436 281 431 b 356 439 321 431 338 433 b 554 139 386 403 572 199 b 422 35 539 89 476 35 b 378 49 408 35 393 39 b 169 314 326 82 214 247 b 44 532 103 415 44 510 z m 207 664 b 206 639 199 656 199 647 b 218 632 208 635 213 632 b 229 636 222 632 226 633 b 442 781 296 692 363 747 b 451 804 451 785 456 794 b 435 815 449 811 443 815 b 428 814 433 815 432 814 b 207 664 350 782 272 718 z m 157 625 b 156 599 149 617 149 608 b 169 592 158 594 163 592 b 181 596 174 592 178 593 b 183 622 190 603 190 615 b 169 629 179 626 174 629 b 157 625 165 629 161 628 z "},"":{"ha":603,"x_min":0,"x_max":0,"o":"m 86 294 b 14 129 38 231 3 161 b 179 0 36 63 107 0 b 301 78 236 0 268 38 b 429 246 340 121 385 181 l 432 251 b 593 529 518 371 589 499 b 301 821 593 629 381 775 b 169 876 272 839 207 876 b 43 774 124 876 63 808 b 21 639 17 731 6 683 b 211 451 47 567 149 492 b 86 294 186 424 132 360 z m 47 139 b 246 439 29 199 215 403 b 297 431 264 433 282 431 b 372 449 321 431 346 436 b 229 481 324 453 272 457 b 203 499 222 486 213 492 b 199 501 201 500 200 500 l 160 531 b 54 650 118 563 68 610 b 74 756 43 683 53 722 b 167 842 92 789 129 826 l 172 842 b 558 532 250 836 564 610 b 224 49 553 485 299 94 b 179 35 208 39 193 35 b 47 139 125 35 65 88 z m 174 814 b 167 815 169 814 168 815 b 150 804 158 815 153 811 b 160 781 146 794 150 785 b 372 636 231 754 314 688 b 383 632 375 633 379 632 b 396 639 389 632 393 635 b 394 664 403 646 401 657 b 176 813 335 713 244 786 b 174 814 175 813 174 813 z m 418 622 b 421 596 411 615 411 603 b 432 592 424 593 428 592 b 446 599 439 592 443 594 b 444 625 453 608 453 617 b 432 629 440 628 436 629 b 418 622 428 629 422 626 z "}}}
